{
.appVersion = "3134";
.formatVersion = 3;
DisplayStrings = (
"Aa Bb Cc Dd Ee Ff Gg Hh Ii Jj Kk Ll Mm Nn Oo Pp Qq Rr Ss Tt Uu Vv Ww Xx Yy Zz 0123456789"
);
customParameters = (
{
name = vendorID;
value = ITFO;
},
{
name = panose;
value = (
0,
0,
8,
0,
0,
0,
0,
0,
0,
0
);
},
{
name = unicodeRanges;
value = (
0,
1,
2,
15
);
},
{
name = codePageRanges;
value = (
"1252",
"1250",
"1254",
"1257",
"bit 29"
);
},
{
name = fsType;
value = (
);
},
{
name = glyphOrder;
value = (
.notdef,
NULL,
CR,
space,
dvA,
dvAA,
dvI,
dvII,
dvU,
dvUU,
dvvR,
dvvRR,
dvvL,
dvvLL,
dvE,
dvAI,
dvO,
dvAU,
dvEcandra,
dvAcandra,
dvOcandra,
dvmAA,
dvmI,
dvmII,
dvmU,
dvmUU,
dvmvR,
dvmvRR,
dvmvL,
dvmvLL,
dvmE,
dvmAI,
dvmO,
dvmAU,
dvmEcandra,
dvmOcandra,
dvKA,
dvKHA,
dvGA,
dvGHA,
dvNGA,
dvCA,
dvCHA,
dvJA,
dvJHA,
dvNYA,
dvTTA,
dvTTHA,
dvDDA,
dvDDHA,
dvNNA,
dvTA,
dvTHA,
dvDA,
dvDHA,
dvNA,
dvPA,
dvPHA,
dvBA,
dvBHA,
dvMA,
dvYA,
dvRA,
dvLA,
dvVA,
dvSHA,
dvSSA,
dvSA,
dvHA,
dvLLA,
dvK_SSA,
dvJ_NYA,
dvKxA,
dvKHxA,
dvGxA,
dvJxA,
dvDDxA,
dvDDHxA,
dvPHxA,
dvRxA,
dvK,
dvKH,
dvG,
dvGH,
dvNG,
dvC,
dvCH,
dvJ,
dvJH,
dvNY,
dvTT,
dvTTH,
dvDD,
dvDDH,
dvNN,
dvT,
dvTH,
dvD,
dvDH,
dvN,
dvP,
dvPH,
dvB,
dvBH,
dvM,
dvY,
dvR,
dvL,
dvV,
dvSH,
dvSS,
dvS,
dvH,
dvLL,
dvK_SS,
dvJ_NY,
dvKx,
dvKHx,
dvGx,
dvJx,
dvPHx,
dvAnusvara,
dvCandrabindu,
dvVisarga,
dvAvagraha,
dvVirama,
dvNukta,
dvZero,
dvOne,
dvTwo,
dvThree,
dvFour,
dvFive,
dvSix,
dvSeven,
dvEight,
dvNine,
dvOm,
dvAbbreviationsign,
danda,
doubledanda,
rupee,
indianrupee,
zerowidthnonjoiner,
zerowidthjoiner,
dottedcircle,
dvReph,
dvEyelash,
dvRashtrasign,
dvK_RA,
dvKH_RA,
dvG_RA,
dvGH_RA,
dvNG_RA,
dvC_RA,
dvCH_RA,
dvJ_RA,
dvJH_RA,
dvNY_RA,
dvTT_RA,
dvTTH_RA,
dvDD_RA,
dvDDH_RA,
dvNN_RA,
dvT_RA,
dvTH_RA,
dvD_RA,
dvDH_RA,
dvN_RA,
dvP_RA,
dvPH_RA,
dvB_RA,
dvBH_RA,
dvM_RA,
dvY_RA,
dvL_RA,
dvV_RA,
dvSH_RA,
dvSS_RA,
dvS_RA,
dvH_RA,
dvLL_RA,
dvKx_RA,
dvKHx_RA,
dvGx_RA,
dvJx_RA,
dvPHx_RA,
dvK_R,
dvKH_R,
dvG_R,
dvGH_R,
dvNG_R,
dvC_R,
dvCH_R,
dvJ_R,
dvJH_R,
dvNY_R,
dvTT_R,
dvTTH_R,
dvDD_R,

glyphs = (
{
glyphname = .notdef;
layers = (
{
layerId = m01;
shapes = (
{
closed = 1;
nodes = (
(0,0,l),
(500,0,l),
(500,700,l),
(0,700,l)
);
},
{
closed = 1;
nodes = (
(250,395,l),
(80,650,l),
(420,650,l)
);
},
{
closed = 1;
nodes = (
(280,350,l),
(450,605,l),
(450,95,l)
);
},
{
closed = 1;
nodes = (
(80,50,l),
(250,305,l),
(420,50,l)
);
},
{
closed = 1;
nodes = (
(50,605,l),
(220,350,l),
(50,95,l)
);
}
);
width = 500;
}
);
note = ".notdef";
},
{
glyphname = dvR;
layers = (
{
layerId = m01;
shapes = (
{
closed = 1;
nodes = (
(320,-291,l),
(481,-291,l),
(347,-68,l),
(191,-68,l)
);
},
{
closed = 1;
nodes = (
(-17,609,l),
(306,609,l),
(306,556,ls),
(306,476,o),
(271,426,o),
(164,426,cs),
(63,426,l),
(63,208,ls),
(63,86,o),
(137,-9,o),
(282,-9,cs),
(414,-9,o),
(490,74,o),
(490,201,cs),
(490,224,l),
(339,224,l),
(339,196,ls),
(339,155,o),
(317,125,o),
(279,125,cs),
(236,125,o),
(218,157,o),
(218,200,cs),
(218,300,l),
(223,300,ls),
(406,300,o),
(463,410,o),
(463,556,cs),
(463,609,l),
(548,609,l),
(548,740,l),
(-17,740,l)
);
}
);
width = 531;
}
);
note = dvR;
},
{
glyphname = dvKx;
layers = (
{
layerId = m01;
shapes = (
{
closed = 1;
nodes = (
(415,0,l),
(566,0,l),
(566,288,ls),
(566,347,o),
(595,397,o),
(660,397,cs),
(717,397,o),
(753,354,o),
(753,298,c),
(912,298,l),
(912,429,o),
(838,531,o),
(710,531,cs),
(643,531,o),
(595,504,o),
(566,461,c),
(566,609,l),
(912,609,l),
(912,740,l),
(-17,740,l),
(-17,609,l),
(415,609,l),
(415,461,l),
(386,504,o),
(336,531,o),
(265,531,cs),
(132,531,o),
(53,436,o),
(53,298,cs),
(53,161,o),
(132,64,o),
(259,64,cs),
(332,64,o),
(385,93,o),
(415,139,c)
);
},
{
closed = 1;
nodes = (
(289,-175,o),
(329,-136,o),
(329,-86,cs),
(329,-34,o),
(289,7,o),
(237,7,cs),
(186,7,o),
(146,-34,o),
(146,-86,cs),
(146,-136,o),
(186,-175,o),
(237,-175,cs)
);
},
{
closed = 1;
nodes = (
(253,196,o),
(212,236,o),
(212,297,cs),
(212,358,o),
(256,398,o),
(314,398,cs),
(380,398,o),
(415,350,o),
(415,298,cs),
(415,247,o),
(379,196,o),
(313,196,cs)
);
}
);
width = 701;
}
);
note = dvKx;
},
{
glyphname = dvGx;
layers = (
{
layerId = m01;
shapes = (
{
closed = 1;
nodes = (
(-17,609,l),
(293,609,l),
(293,377,ls),
(293,342,o),
(285,303,o),
(242,303,cs),
(201,303,o),
(189,336,o),
(189,376,cs),
(189,407,l),
(37,407,l),
(36,397,o),
(36,386,o),
(36,375,cs),
(36,242,o),
(113,169,o),
(246,169,cs),
(390,169,o),
(451,263,o),
(451,383,cs),
(451,609,l),
(563,609,l),
(563,740,l),
(-17,740,l)
);
},
{
closed = 1;
nodes = (
(299,-71,o),
(339,-32,o),
(339,18,cs),
(339,70,o),
(299,111,o),
(247,111,cs),
(196,111,o),
(156,70,o),
(156,18,cs),
(156,-32,o),
(196,-71,o),
(247,-71,cs)
);
}
);
width = 546;
}
);
note = dvGx;
},
{
glyphname = dvJx;
layers = (
{
layerId = m01;
shapes = (
{
closed = 1;
nodes = (
(421,100,o),
(507,193,o),
(507,324,cs),
(507,354,l),
(705,354,l),
(705,488,l),
(353,488,l),
(353,328,ls),
(353,272,o),
(328,237,o),
(282,237,cs),
(235,237,o),
(210,272,o),
(210,328,cs),
(210,488,l),
(52,488,l),
(52,324,ls),
(52,193,o),
(130,100,o),
(281,100,cs)
);
},
{
closed = 1;
nodes = (
(-17,609,l),
(705,609,l),
(705,740,l),
(-17,740,l)
);
},
{
closed = 1;
nodes = (
(334,-139,o),
(374,-100,o),
(374,-50,cs),
(374,2,o),
(334,43,o),
(282,43,cs),
(231,43,o),
(191,2,o),
(191,-50,cs),
(191,-100,o),
(231,-139,o),
(282,-139,cs)
);
}
);
width = 550;
}
);
note = dvJx;
},
{
glyphname = rupee;
layers = (
{
layerId = m01;
shapes = (
{
closed = 1;
nodes = (
(433,419,o),
(403,387,o),
(339,387,cs),
(233,387,l),
(233,562,l),
(339,562,ls),
(403,562,o),
(433,527,o),
(433,474,cs)
);
},
{
closed = 1;
nodes = (
(62,702,l),
(62,0,l),
(233,0,l),
(233,267,l),
(267,267,l),
(419,0,l),
(613,0,l),
(445,279,l),
(557,308,o),
(607,392,o),
(607,482,cs),
(607,604,o),
(521,702,o),
(349,702,cs)
);
},
{
closed = 1;
nodes = (
(650,188,o),
(979,263,o),
(979,167,cs),
(979,140,o),
(957,121,o),
(910,121,cs),
(864,121,o),
(827,140,o),
(823,182,c),
(653,182,l),
(669,59,o),
(765,-8,o),
(911,-8,cs),
(1051,-8,o),
(1137,65,o),
(1137,164,cs),
(1137,369,o),
(807,298,o),
(807,391,cs),
(807,418,o),
(833,437,o),
(876,437,cs),
(922,437,o),
(955,416,o),
(961,376,c),
(1131,376,l),
(1116,488,o),
(1030,566,o),
(882,566,cs),
(732,566,o),
(650,486,o),
(650,393,cs)
);
}
);
width = 1190;
}
);
note = rupee;
unicode = 8360;
},
{
glyphname = indianrupee;
layers = (
{
layerId = m01;
shapes = (
{
closed = 1;
nodes = (
(38,587,l),
(322,587,l),
(322,527,l),
(38,527,l),
(38,423,l),
(317,423,l),
(301,359,o),
(246,353,o),
(57,353,c),
(57,224,ls),
(57,65,o),
(141,-10,o),
(288,-10,cs),
(430,-10,o),
(502,71,o),
(507,203,c),
(349,203,l),
(349,149,o),
(333,119,o),
(284,119,cs),
(232,119,o),
(217,154,o),
(217,201,cs),
(217,241,l),
(380,241,o),
(455,308,o),
(476,423,c),
(567,423,l),
(567,527,l),
(482,527,l),
(482,587,l),
(567,587,l),
(567,702,l),
(38,702,l)
);
}
);
width = 598;
}
);
note = indianrupee;
unicode = 8377;
},
{
glyphname = zerowidthnonjoiner;
layers = (
{
layerId = m01;
shapes = (
{
closed = 1;
nodes = (
(24,-230,l),
(24,811,l),
(-23,811,l),
(-23,-230,l)
);
}
);
width = 0;
}
);
note = zerowidthnonjoiner;
unicode = 8204;
},
{
glyphname = zerowidthjoiner;
layers = (
{
layerId = m01;
shapes = (
{
closed = 1;
nodes = (
(128,593,l),
(32,688,l),
(128,784,l),
(96,816,l),
(0,721,l),
(-95,816,l),
(-128,783,l),
(-33,688,l),
(-126,595,l),
(-93,562,l),
(-24,635,l),
(-24,-230,l),
(23,-230,l),
(23,635,l),
(95,560,l)
);
}
);
width = 0;
}
);
note = zerowidthjoiner;
unicode = 8205;
},
{
glyphname = dottedcircle;
layers = (
{
layerId = m01;
shapes = (
{
closed = 1;
nodes = (
(557,434,o),
(539,451,o),
(514,451,cs),
(489,451,o),
(471,434,o),
(471,409,cs),
(471,384,o),
(489,367,o),
(514,367,cs),
(539,367,o),
(557,384,o),
(557,409,cs)
);
},
{
closed = 1;
nodes = (
(181,148,o),
(163,165,o),
(138,165,cs),
(113,165,o),
(95,148,o),
(95,123,cs),
(95,98,o),
(113,81,o),
(138,81,cs),
(163,81,o),
(181,98,o),
(181,123,cs)
);
},
{
closed = 1;
nodes = (
(279,72,o),
(261,89,o),
(236,89,cs),
(211,89,o),
(193,72,o),
(193,47,cs),
(193,22,o),
(211,5,o),
(236,5,cs),
(261,5,o),
(279,22,o),
(279,47,cs)
);
},
{
closed = 1;
nodes = (
(136,261,o),
(118,278,o),
(93,278,cs),
(68,278,o),
(50,261,o),
(50,236,cs),
(50,211,o),
(68,194,o),
(93,194,cs),
(118,194,o),
(136,211,o),
(136,236,cs)
);
},
{
closed = 1;
nodes = (
(403,58,o),
(385,75,o),
(360,75,cs),
(335,75,o),
(317,58,o),
(317,33,cs),
(317,8,o),
(335,-9,o),
(360,-9,cs),
(385,-9,o),
(403,8,o),
(403,33,cs)
);
},
{
closed = 1;
nodes = (
(151,382,o),
(133,399,o),
(108,399,cs),
(83,399,o),
(65,382,o),
(65,357,cs),
(65,332,o),
(83,315,o),
(108,315,cs),
(133,315,o),
(151,332,o),
(151,357,cs)
);
},
{
closed = 1;
nodes = (
(518,104,o),
(500,121,o),
(475,121,cs),
(450,121,o),
(432,104,o),
(432,79,cs),
(432,54,o),
(450,37,o),
(475,37,cs),
(500,37,o),
(518,54,o),
(518,79,cs)
);
},
{
closed = 1;
nodes = (
(227,481,o),
(209,498,o),
(184,498,cs),
(159,498,o),
(141,481,o),
(141,456,cs),
(141,431,o),
(159,414,o),
(184,414,cs),
(209,414,o),
(227,431,o),
(227,456,cs)
);
},
{
closed = 1;
nodes = (
(591,200,o),
(573,217,o),
(548,217,cs),
(523,217,o),
(505,200,o),
(505,175,cs),
(505,150,o),
(523,133,o),
(548,133,cs),
(573,133,o),
(591,150,o),
(591,175,cs)
);
},
{
closed = 1;
nodes = (
(344,523,o),
(326,540,o),
(301,540,cs),
(276,540,o),
(258,523,o),
(258,498,cs),
(258,473,o),
(276,456,o),
(301,456,cs),
(326,456,o),
(344,473,o),
(344,498,cs)
);
},
{
closed = 1;
nodes = (
(601,320,o),
(583,337,o),
(558,337,cs),
(533,337,o),
(515,320,o),
(515,295,cs),
(515,270,o),
(533,253,o),
(558,253,cs),
(583,253,o),
(601,270,o),
(601,295,cs)
);
},
{
closed = 1;
nodes = (
(465,508,o),
(447,525,o),
(422,525,cs),
(397,525,o),
(379,508,o),
(379,483,cs),
(379,458,o),
(397,441,o),
(422,441,cs),
(447,441,o),
(465,458,o),
(465,483,cs)
);
}
);
width = 651;
}
);
note = dottedcircle;
unicode = 9676;
},
{
glyphname = dvEyelash;
layers = (
{
layerId = m01;
shapes = (
{
closed = 1;
nodes = (
(388,431,l),
(367,421,o),
(341,411,o),
(301,411,cs),
(241,411,o),
(183,438,o),
(179,515,c),
(29,515,l),
(35,355,o),
(156,298,o),
(279,298,cs),
(345,298,o),
(408,318,o),
(449,345,c)
);
},
{
closed = 1;
nodes = (
(-17,609,l),
(442,609,l),
(442,740,l),
(-17,740,l)
);
}
);
width = 353;
}
);
note = dvEyelash;
},
{
glyphname = dvRashtrasign;
layers = (
{
layerId = m01;
shapes = (
{
closed = 1;
nodes = (
(-562,-97,l),
(-404,-97,l),
(-312,22,l),
(-220,-97,l),
(-61,-97,l),
(-207,82,l),
(-417,82,l)
);
}
);
width = 0;
}
);
note = dvRashtrasign;
},
{
glyphname = dvKx_RA;
layers = (
{
layerId = m01;
shapes = (
{
closed = 1;
nodes = (
(492,0,l),
(643,0,l),
(643,288,l),
(646,345,o),
(673,397,o),
(737,397,cs),
(795,397,o),
(830,354,o),
(830,298,cs),
(830,237,o),
(792,202,o),
(741,202,cs),
(732,202,o),
(722,203,o),
(715,205,c),
(715,82,l),
(739,76,o),
(760,74,o),
(783,74,cs),
(902,74,o),
(990,157,o),
(990,302,cs),
(990,429,o),
(916,531,o),
(787,531,cs),
(720,531,o),
(672,504,o),
(643,461,c),
(643,609,l),
(1060,609,l),
(1060,740,l),
(-17,740,l),
(-17,609,l),
(492,609,l),
(492,463,l),
(463,504,o),
(413,531,o),
(343,531,cs),
(210,531,o),
(131,436,o),
(131,298,cs),
(131,191,o),
(189,109,o),
(279,85,c),
(160,-46,l),
(329,-46,l),
(477,129,l),
(483,134,o),
(488,140,o),
(492,146,c)
);
},
{
closed = 1;
nodes = (
(124,-17,o),
(159,17,o),
(159,60,cs),
(159,105,o),
(124,141,o),
(79,141,cs),
(35,141,o),
(0,105,o),
(0,60,cs),
(0,17,o),
(35,-17,o),
(79,-17,cs)
);
},
{
closed = 1;
nodes = (
(330,196,o),
(290,236,o),
(290,297,cs),
(290,358,o),
(332,398,o),
(391,398,cs),
(458,398,o),
(492,350,o),
(492,298,cs),
(492,247,o),
(457,196,o),
(391,196,cs)
);
}
);
width = 1043;
}
);
note = dvKx_RA;
},
{
glyphname = dvGx_RA;
layers = (
{
layerId = m01;
shapes = (
{
closed = 1;
nodes = (
(580,0,l),
(734,0,l),
(734,609,l),
(831,609,l),
(831,740,l),
(-17,740,l),
(-17,609,l),
(293,609,l),
(293,445,ls),
(293,411,o),
(285,372,o),
(242,372,cs),
(201,372,o),
(189,405,o),
(189,444,cs),
(189,476,l),
(37,476,l),
(36,465,o),
(36,454,o),
(36,444,cs),
(36,311,o),
(113,238,o),
(246,238,cs),
(390,238,o),
(451,332,o),
(451,452,cs),
(451,609,l),
(577,609,l),
(577,343,l),
(197,-20,l),
(378,-20,l),
(580,183,l)
);
},
{
closed = 1;
nodes = (
(148,16,o),
(183,50,o),
(183,93,cs),
(183,138,o),
(148,174,o),
(103,174,cs),
(59,174,o),
(24,138,o),
(24,93,cs),
(24,50,o),
(59,16,o),
(103,16,cs)
);
}
);
width = 814;
}
);
note = dvGx_RA;
},
{
glyphname = dvJx_RA;
layers = (
{
layerId = m01;
shapes = (
{
closed = 1;
nodes = (
(-17,609,l),
(629,609,l),
(629,493,l),
(353,493,l),
(353,398,ls),
(353,341,o),
(327,307,o),
(281,307,cs),
(235,307,o),
(210,341,o),
(210,398,cs),
(210,493,l),
(52,493,l),
(52,394,ls),
(52,262,o),
(130,169,o),
(281,169,cs),
(411,169,o),
(488,249,o),
(499,366,c),
(629,366,l),
(629,320,l),
(275,-49,l),
(447,-49,l),
(633,161,l),
(633,0,l),
(779,0,l),
(779,609,l),
(877,609,l),
(877,740,l),
(-17,740,l)
);
},
{
closed = 1;
nodes = (
(191,-42,o),
(226,-8,o),
(226,35,cs),
(226,80,o),
(191,116,o),
(146,116,cs),
(102,116,o),
(67,80,o),
(67,35,cs),
(67,-8,o),
(102,-42,o),
(146,-42,cs)
);
}
);
width = 860;
}
);
note = dvJx_RA;
},
{
glyphname = dvKx_R;
layers = (
{
layerId = m01;
shapes = (
{
closed = 1;
nodes = (
(492,0,l),
(643,0,l),
(643,288,l),
(646,345,o),
(673,397,o),
(737,397,cs),
(795,397,o),
(830,354,o),
(830,298,c),
(990,298,l),
(990,429,o),
(916,531,o),
(787,531,cs),
(720,531,o),
(672,504,o),
(643,461,c),
(643,609,l),
(990,609,l),
(990,740,l),
(-17,740,l),
(-17,609,l),
(492,609,l),
(492,463,l),
(463,504,o),
(413,531,o),
(343,531,cs),
(210,531,o),
(131,436,o),
(131,298,cs),
(131,191,o),
(189,109,o),
(279,85,c),
(160,-46,l),
(329,-46,l),
(477,129,l),
(483,134,o),
(488,140,o),
(492,146,c)
);
},
{
closed = 1;
nodes = (
(124,-17,o),
(159,17,o),
(159,60,cs),
(159,105,o),
(124,141,o),
(79,141,cs),
(35,141,o),
(0,105,o),
(0,60,cs),
(0,17,o),
(35,-17,o),
(79,-17,cs)
);
},
{
closed = 1;
nodes = (
(330,196,o),
(290,236,o),
(290,297,cs),
(290,358,o),
(332,398,o),
(391,398,cs),
(458,398,o),
(492,350,o),
(492,298,cs),
(492,247,o),
(457,196,o),
(391,196,cs)
);
}
);
width = 778;
}
);
note = dvKx_R;
},
{
glyphname = dvGx_R;
layers = (
{
layerId = m01;
shapes = (
{
closed = 1;
nodes = (
(610,213,l),
(610,374,l),
(197,-20,l),
(378,-20,l)
);
},
{
closed = 1;
nodes = (
(-17,609,l),
(293,609,l),
(293,445,ls),
(293,411,o),
(285,372,o),
(242,372,cs),
(201,372,o),
(189,405,o),
(189,444,cs),
(189,476,l),
(37,476,l),
(36,465,o),
(36,454,o),
(36,444,cs),
(36,311,o),
(113,238,o),
(246,238,cs),
(390,238,o),
(451,332,o),
(451,452,cs),
(451,609,l),
(610,609,l),
(610,740,l),
(-17,740,l)
);
},
{
closed = 1;
nodes = (
(148,16,o),
(183,50,o),
(183,93,cs),
(183,138,o),
(148,174,o),
(103,174,cs),
(59,174,o),
(24,138,o),
(24,93,cs),
(24,50,o),
(59,16,o),
(103,16,cs)
);
}
);
width = 546;
}
);
note = dvGx_R;
},
{
glyphname = dvJx_R;
layers = (
{
layerId = m01;
shapes = (
{
closed = 1;
nodes = (
(-17,609,l),
(705,609,l),
(705,740,l),
(-17,740,l)
);
},
{
closed = 1;
nodes = (
(447,-49,l),
(705,243,l),
(705,493,l),
(353,493,l),
(353,398,ls),
(353,341,o),
(327,307,o),
(281,307,cs),
(235,307,o),
(210,341,o),
(210,398,cs),
(210,493,l),
(52,493,l),
(52,394,ls),
(52,262,o),
(130,169,o),
(281,169,cs),
(408,169,o),
(485,246,o),
(498,359,c),
(666,359,l),
(275,-49,l)
);
},
{
closed = 1;
nodes = (
(191,-42,o),
(226,-8,o),
(226,35,cs),
(226,80,o),
(191,116,o),
(146,116,cs),
(102,116,o),
(67,80,o),
(67,35,cs),
(67,-8,o),
(102,-42,o),
(146,-42,cs)
);
}
);
width = 550;
}
);
note = dvJx_R;
},
{
glyphname = dvKx_KxA;
layers = (
{
layerId = m01;
shapes = (
{
closed = 1;
nodes = (
(289,-175,o),
(329,-136,o),
(329,-86,cs),
(329,-34,o),
(289,7,o),
(237,7,cs),
(186,7,o),
(146,-34,o),
(146,-86,cs),
(146,-136,o),
(186,-175,o),
(237,-175,cs)
);
},
{
closed = 1;
nodes = (
(984,-175,o),
(1024,-136,o),
(1024,-86,cs),
(1024,-34,o),
(984,7,o),
(932,7,cs),
(881,7,o),
(841,-34,o),
(841,-86,cs),
(841,-136,o),
(881,-175,o),
(932,-175,cs)
);
},
{
closed = 1;
nodes = (
(253,196,o),
(212,236,o),
(212,297,cs),
(212,358,o),
(256,398,o),
(314,398,cs),
(380,398,o),
(415,350,o),
(415,298,cs),
(415,247,o),
(379,196,o),
(313,196,cs)
);
},
{
closed = 1;
nodes = (
(948,196,o),
(907,236,o),
(907,297,cs),
(907,358,o),
(951,398,o),
(1009,398,cs),
(1075,398,o),
(1110,350,o),
(1110,298,cs),
(1110,247,o),
(1074,196,o),
(1008,196,cs)
);
},
{
closed = 1;
nodes = (
(1110,609,l),
(1110,461,l),
(1081,504,o),
(1031,531,o),
(960,531,cs),
(904,531,o),
(857,514,o),
(822,484,c),
(794,514,o),
(756,531,o),
(707,531,cs),
(641,531,o),
(594,504,o),
(566,463,c),
(566,609,l)
);
},
{
closed = 1;
nodes = (
(1110,0,l),
(1261,0,l),
(1261,288,ls),
(1261,347,o),
(1290,397,o),
(1355,397,cs),
(1412,397,o),
(1448,354,o),
(1448,298,cs),
(1448,237,o),
(1410,202,o),
(1358,202,cs),
(1349,202,o),
(1340,203,o),
(1333,205,c),
(1333,82,l),
(1357,76,o),
(1377,74,o),
(1401,74,cs),
(1520,74,o),
(1607,157,o),
(1607,302,cs),
(1607,429,o),
(1533,531,o),
(1405,531,cs),
(1338,531,o),
(1290,504,o),
(1261,461,c),
(1261,609,l),
(1677,609,l),
(1677,740,l),
(-17,740,l),
(-17,609,l),
(415,609,l),
(415,461,l),
(386,504,o),
(336,531,o),
(265,531,cs),
(132,531,o),
(53,436,o),
(53,298,cs),
(53,161,o),
(132,64,o),
(259,64,cs),
(332,64,o),
(385,93,o),
(415,139,c),
(415,0,l),
(566,0,l),
(566,288,ls),
(566,347,o),
(593,397,o),
(657,397,cs),
(714,397,o),
(747,354,o),
(747,298,c),
(748,298,l),
(748,161,o),
(827,64,o),
(954,64,cs),
(1027,64,o),
(1080,93,o),
(1110,139,c)
);
}
);
width = 1659;
}
);
note = dvKx_KxA;
},
{
glyphname = dvKx_TA;
layers = (
{
layerId = m01;
shapes = (
{
closed = 1;
nodes = (
(638,522,o),
(593,499,o),
(566,460,c),
(566,609,l),
(1151,609,l),
(1151,492,l),
(1018,492,ls),
(954,492,o),
(894,479,o),
(846,452,c),
(815,497,o),
(764,522,o),
(700,522,cs)
);
},
{
closed = 1;
nodes = (
(289,-175,o),
(329,-136,o),
(329,-86,cs),
(329,-34,o),
(289,7,o),
(237,7,cs),
(186,7,o),
(146,-34,o),
(146,-86,cs),
(146,-136,o),
(186,-175,o),
(237,-175,cs)
);
},
{
closed = 1;
nodes = (
(253,196,o),
(212,236,o),
(212,297,cs),
(212,358,o),
(256,398,o),
(314,398,cs),
(380,398,o),
(415,350,o),
(415,298,cs),
(415,247,o),
(379,196,o),
(313,196,cs)
);
},
{
closed = 1;
nodes = (
(566,288,ls),
(566,346,o),
(592,395,o),
(655,395,cs),
(701,395,o),
(738,358,o),
(737,286,c),
(735,273,o),
(734,259,o),
(734,245,cs),
(734,74,o),
(851,1,o),
(994,1,cs),
(1037,1,l),
(1037,125,l),
(1018,125,ls),
(934,125,o),
(893,171,o),
(893,242,cs),
(893,317,o),
(946,357,o),
(1026,357,cs),
(1151,357,l),
(1151,0,l),
(1308,0,l),
(1308,609,l),
(1406,609,l),
(1406,740,l),
(-17,740,l),
(-17,609,l),
(415,609,l),
(415,461,l),
(386,504,o),
(336,531,o),
(265,531,cs),
(132,531,o),
(53,436,o),
(53,298,cs),
(53,161,o),
(132,64,o),
(259,64,cs),
(332,64,o),
(385,93,o),
(415,139,c),
(415,0,l),
(566,0,l)
);
}
);
width = 1389;
}
);
note = dvKx_TA;
},
{
glyphname = dvKx_PHA;
layers = (
{
layerId = m01;
shapes = (
{
closed = 1;
nodes = (
(566,609,l),
(733,609,l),
(733,522,l),
(725,523,o),
(716,523,o),
(707,523,cs),
(641,523,o),
(594,499,o),
(566,460,c)
);
},
{
closed = 1;
nodes = (
(921,292,o),
(890,341,o),
(890,410,cs),
(890,609,l),
(1087,609,l),
(1087,401,ls),
(1087,342,o),
(1054,292,o),
(988,292,cs)
);
},
{
closed = 1;
nodes = (
(566,288,ls),
(566,347,o),
(593,397,o),
(657,397,cs),
(698,397,o),
(728,374,o),
(739,341,c),
(760,233,o),
(830,160,o),
(948,160,cs),
(1010,160,o),
(1056,181,o),
(1087,216,c),
(1087,0,l),
(1244,0,l),
(1244,271,ls),
(1244,342,o),
(1277,397,o),
(1346,397,cs),
(1403,397,o),
(1439,354,o),
(1439,298,cs),
(1439,240,o),
(1404,201,o),
(1350,201,cs),
(1340,201,o),
(1328,202,o),
(1318,205,c),
(1318,84,l),
(1342,77,o),
(1367,74,o),
(1392,74,cs),
(1512,74,o),
(1598,159,o),
(1598,306,cs),
(1598,432,o),
(1523,531,o),
(1396,531,cs),
(1326,531,o),
(1274,503,o),
(1244,461,c),
(1244,609,l),
(1667,609,l),
(1667,740,l),
(-17,740,l),
(-17,609,l),
(415,609,l),
(415,461,l),
(386,504,o),
(336,531,o),
(265,531,cs),
(132,531,o),
(53,436,o),
(53,298,cs),
(53,161,o),
(132,64,o),
(259,64,cs),
(332,64,o),
(385,93,o),
(415,139,c),
(415,0,l),
(566,0,l)
);
},
{
closed = 1;
nodes = (
(289,-175,o),
(329,-136,o),
(329,-86,cs),
(329,-34,o),
(289,7,o),
(237,7,cs),
(186,7,o),
(146,-34,o),
(146,-86,cs),
(146,-136,o),
(186,-175,o),
(237,-175,cs)
);
},
{
closed = 1;
nodes = (
(253,196,o),
(212,236,o),
(212,297,cs),
(212,358,o),
(256,398,o),
(314,398,cs),
(380,398,o),
(415,350,o),
(415,298,cs),
(415,247,o),
(379,196,o),
(313,196,cs)
);
}
);
width = 1650;
}
);
note = dvKx_PHA;
},
{
glyphname = dvKx_PHxA;
layers = (
{
layerId = m01;
shapes = (
{
closed = 1;
nodes = (
(566,609,l),
(734,609,l),
(734,521,l),
(725,522,o),
(716,523,o),
(707,523,cs),
(641,523,o),
(594,499,o),
(566,460,c)
);
},
{
closed = 1;
nodes = (
(289,-175,o),
(329,-136,o),
(329,-86,cs),
(329,-34,o),
(289,7,o),
(237,7,cs),
(186,7,o),
(146,-34,o),
(146,-86,cs),
(146,-136,o),
(186,-175,o),
(237,-175,cs)
);
},
{
closed = 1;
nodes = (
(945,-74,o),
(985,-35,o),
(985,15,cs),
(985,67,o),
(945,108,o),
(893,108,cs),
(842,108,o),
(802,67,o),
(802,15,cs),
(802,-35,o),
(842,-74,o),
(893,-74,cs)
);
},
{
closed = 1;
nodes = (
(253,196,o),
(212,236,o),
(212,297,cs),
(212,358,o),
(256,398,o),
(314,398,cs),
(380,398,o),
(415,350,o),
(415,298,cs),
(415,247,o),
(379,196,o),
(313,196,cs)
);
},
{
closed = 1;
nodes = (
(922,292,o),
(891,341,o),
(891,410,cs),
(891,609,l),
(1088,609,l),
(1088,401,ls),
(1088,342,o),
(1055,292,o),
(989,292,cs)
);
},
{
closed = 1;
nodes = (
(566,288,ls),
(566,347,o),
(593,397,o),
(657,397,cs),
(702,397,o),
(733,370,o),
(742,331,c),
(742,331,l),
(765,229,o),
(835,160,o),
(949,160,cs),
(1011,160,o),
(1057,181,o),
(1088,216,c),
(1088,0,l),
(1245,0,l),
(1245,271,ls),
(1245,342,o),
(1278,397,o),
(1347,397,cs),
(1404,397,o),
(1440,354,o),
(1440,298,cs),
(1440,240,o),
(1405,201,o),
(1351,201,cs),
(1341,201,o),
(1329,202,o),
(1319,205,c),
(1319,84,l),
(1343,77,o),
(1368,74,o),
(1393,74,cs),
(1513,74,o),
(1599,159,o),
(1599,306,cs),
(1599,432,o),
(1524,531,o),
(1397,531,cs),
(1327,531,o),
(1275,503,o),
(1245,461,c),
(1245,609,l),
(1668,609,l),
(1668,740,l),
(-17,740,l),
(-17,609,l),
(415,609,l),
(415,461,l),
(386,504,o),
(336,531,o),
(265,531,cs),
(132,531,o),
(53,436,o),
(53,298,cs),
(53,161,o),
(132,64,o),
(259,64,cs),
(332,64,o),
(385,93,o),
(415,139,c),
(415,0,l),
(566,0,l)
);
}
);
width = 1651;
}
);
note = dvKx_PHxA;
},
{
glyphname = dvKx_BA;
layers = (
{
layerId = m01;
shapes = (
{
closed = 1;
nodes = (
(566,609,l),
(1150,609,l),
(1150,480,l),
(1113,517,o),
(1058,541,o),
(989,541,cs),
(924,541,o),
(866,520,o),
(824,483,c),
(796,513,o),
(757,531,o),
(707,531,cs),
(641,531,o),
(594,504,o),
(566,463,c)
);
},
{
closed = 1;
nodes = (
(1150,0,l),
(1301,0,l),
(1301,609,l),
(1399,609,l),
(1399,740,l),
(-17,740,l),
(-17,609,l),
(415,609,l),
(415,461,l),
(386,504,o),
(336,531,o),
(265,531,cs),
(132,531,o),
(53,436,o),
(53,298,cs),
(53,161,o),
(132,64,o),
(259,64,cs),
(332,64,o),
(385,93,o),
(415,139,c),
(415,0,l),
(566,0,l),
(566,288,ls),
(566,347,o),
(593,397,o),
(657,397,cs),
(714,397,o),
(747,354,o),
(747,298,c),
(747,298,l),
(750,156,o),
(853,59,o),
(990,59,cs),
(1061,59,o),
(1118,85,o),
(1150,126,c)
);
},
{
closed = 1;
nodes = (
(289,-175,o),
(329,-136,o),
(329,-86,cs),
(329,-34,o),
(289,7,o),
(237,7,cs),
(186,7,o),
(146,-34,o),
(146,-86,cs),
(146,-136,o),
(186,-175,o),
(237,-175,cs)
);
},
{
closed = 1;
nodes = (
(253,196,o),
(212,236,o),
(212,297,cs),
(212,358,o),
(256,398,o),
(314,398,cs),
(380,398,o),
(415,350,o),
(415,298,cs),
(415,247,o),
(379,196,o),
(313,196,cs)
);
},
{
closed = 1;
nodes = (
(1108,440,o),
(1159,377,o),
(1159,305,cs),
(1159,286,o),
(1155,267,o),
(1148,250,c),
(936,412,l),
(960,430,o),
(990,440,o),
(1023,440,cs)
);
},
{
closed = 1;
nodes = (
(948,171,o),
(884,221,o),
(884,304,cs),
(884,324,o),
(888,343,o),
(895,360,c),
(1110,199,l),
(1088,181,o),
(1059,171,o),
(1023,171,cs)
);
}
);
width = 1382;
}
);
note = dvKx_BA;
},
{
glyphname = dvKx_MA;
layers = (
{
layerId = m01;
shapes = (
{
closed = 1;
nodes = (
(641,523,o),
(594,498,o),
(566,458,c),
(566,609,l),
(1031,609,l),
(1031,464,l),
(967,464,ls),
(927,464,o),
(890,457,o),
(858,444,c),
(828,493,o),
(779,523,o),
(707,523,cs)
);
},
{
closed = 1;
nodes = (
(289,-175,o),
(329,-136,o),
(329,-86,cs),
(329,-34,o),
(289,7,o),
(237,7,cs),
(186,7,o),
(146,-34,o),
(146,-86,cs),
(146,-136,o),
(186,-175,o),
(237,-175,cs)
);
},
{
closed = 1;
nodes = (
(253,196,o),
(212,236,o),
(212,297,cs),
(212,358,o),
(256,398,o),
(314,398,cs),
(380,398,o),
(415,350,o),
(415,298,cs),
(415,247,o),
(379,196,o),
(313,196,cs)
);
},
{
closed = 1;
nodes = (
(918,194,o),
(888,219,o),
(888,264,cs),
(888,311,o),
(923,336,o),
(971,336,cs),
(1031,336,l),
(1031,281,ls),
(1031,229,o),
(1006,194,o),
(958,194,cs)
);
},
{
closed = 1;
nodes = (
(1306,464,l),
(1177,464,l),
(1177,609,l),
(1306,609,l)
);
},
{
closed = 1;
nodes = (
(566,288,ls),
(566,347,o),
(593,397,o),
(657,397,cs),
(710,397,o),
(742,360,o),
(746,311,c),
(744,296,o),
(742,281,o),
(742,264,cs),
(742,141,o),
(829,61,o),
(961,61,cs),
(1103,61,o),
(1177,148,o),
(1177,289,cs),
(1177,336,l),
(1306,336,l),
(1306,0,l),
(1464,0,l),
(1464,609,l),
(1562,609,l),
(1562,740,l),
(-17,740,l),
(-17,609,l),
(415,609,l),
(415,461,l),
(386,504,o),
(336,531,o),
(265,531,cs),
(132,531,o),
(53,436,o),
(53,298,cs),
(53,161,o),
(132,64,o),
(259,64,cs),
(332,64,o),
(385,93,o),
(415,139,c),
(415,0,l),
(566,0,l)
);
}
);
width = 1534;
}
);
note = dvKx_MA;
},
{
glyphname = dvJx_JxA;
layers = (
{
layerId = m01;
shapes = (
{
closed = 1;
nodes = (
(334,-139,o),
(374,-100,o),
(374,-50,cs),
(374,2,o),
(334,43,o),
(282,43,cs),
(231,43,o),
(191,2,o),
(191,-50,cs),
(191,-100,o),
(231,-139,o),
(282,-139,cs)
);
},
{
closed = 1;
nodes = (
(900,-139,o),
(940,-100,o),
(940,-50,cs),
(940,2,o),
(900,43,o),
(848,43,cs),
(797,43,o),
(757,2,o),
(757,-50,cs),
(757,-100,o),
(797,-139,o),
(848,-139,cs)
);
},
{
closed = 1;
nodes = (
(1345,0,l),
(1345,609,l),
(1443,609,l),
(1443,740,l),
(-17,740,l),
(-17,609,l),
(1188,609,l),
(1188,488,l),
(919,488,l),
(919,328,ls),
(919,272,o),
(894,237,o),
(848,237,cs),
(801,237,o),
(776,272,o),
(776,328,cs),
(776,488,l),
(353,488,l),
(353,328,ls),
(353,272,o),
(328,237,o),
(282,237,cs),
(235,237,o),
(210,272,o),
(210,328,cs),
(210,488,l),
(52,488,l),
(52,324,ls),
(52,193,o),
(130,100,o),
(281,100,cs),
(421,100,o),
(507,193,o),
(507,324,cs),
(507,354,l),
(618,354,l),
(618,324,ls),
(618,193,o),
(696,100,o),
(847,100,cs),
(987,100,o),
(1073,193,o),
(1073,324,cs),
(1073,354,l),
(1188,354,l),
(1188,0,l)
);
}
);
width = 1426;
}
);
note = dvJx_JxA;
},
{
glyphname = dvJx_YA;
layers = (
{
layerId = m01;
shapes = (
{
closed = 1;
nodes = (
(1234,0,l),
(1234,609,l),
(1331,609,l),
(1331,740,l),
(-17,740,l),
(-17,609,l),
(775,609,l),
(775,564,ls),
(775,493,o),
(740,450,o),
(627,450,cs),
(353,450,l),
(353,328,ls),
(353,272,o),
(328,237,o),
(282,237,cs),
(235,237,o),
(210,272,o),
(210,328,cs),
(210,450,l),
(52,450,l),
(52,324,ls),
(52,193,o),
(130,100,o),
(281,100,cs),
(419,100,o),
(505,190,o),
(507,319,c),
(545,319,ls),
(573,319,o),
(597,319,o),
(617,320,c),
(638,174,o),
(730,82,o),
(883,82,cs),
(970,82,o),
(1034,111,o),
(1075,155,c),
(1075,0,l)
);
},
{
closed = 1;
nodes = (
(334,-139,o),
(374,-100,o),
(374,-50,cs),
(374,2,o),
(334,43,o),
(282,43,cs),
(231,43,o),
(191,2,o),
(191,-50,cs),
(191,-100,o),
(231,-139,o),
(282,-139,cs)
);
},
{
closed = 1;
nodes = (
(825,213,o),
(772,268,o),
(768,345,c),
(875,363,o),
(930,438,o),
(930,535,cs),
(930,609,l),
(1075,609,l),
(1075,373,ls),
(1075,281,o),
(1016,213,o),
(917,213,cs)
);
}
);
width = 1314;
}
);
note = dvJx_YA;
},
{
glyphname = dvEyelash_YA;
layers = (
{
layerId = m01;
shapes = (
{
closed = 1;
nodes = (
(503,213,o),
(450,268,o),
(448,344,c),
(564,358,o),
(609,432,o),
(609,535,cs),
(609,609,l),
(755,609,l),
(755,373,ls),
(755,281,o),
(695,213,o),
(597,213,cs)
);
},
{
closed = 1;
nodes = (
(913,0,l),
(913,609,l),
(1011,609,l),
(1011,740,l),
(-17,740,l),
(-17,609,l),
(454,609,l),
(454,564,ls),
(454,481,o),
(423,429,o),
(322,424,c),
(322,425,l),
(264,423,o),
(188,450,o),
(188,527,c),
(39,527,l),
(44,369,o),
(167,308,o),
(296,304,c),
(317,168,o),
(410,82,o),
(563,82,cs),
(650,82,o),
(714,111,o),
(755,156,c),
(755,0,l)
);
}
);
width = 993;
}
);
note = dvEyelash_YA;
},
{
glyphname = dvEyelash_HA;
layers = (
{
layerId = m01;
shapes = (
{
closed = 1;
nodes = (
(623,77,l),
(614,46,o),
(583,17,o),
(536,17,cs),
(483,17,o),
(444,54,o),
(444,117,cs),
(444,178,o),
(483,216,o),
(536,216,cs),
(586,216,o),
(616,185,o),
(623,154,c),
(773,154,l),
(761,259,o),
(688,340,o),
(540,340,cs),
(525,340,o),
(510,339,o),
(496,337,c),
(479,346,o),
(469,361,o),
(469,380,cs),
(469,415,o),
(498,428,o),
(531,428,cs),
(705,428,l),
(705,609,l),
(833,609,l),
(833,740,l),
(-17,740,l),
(-17,609,l),
(555,609,l),
(555,539,l),
(475,539,ls),
(374,539,o),
(313,489,o),
(313,411,cs),
(313,406,o),
(313,401,o),
(314,397,c),
(306,396,o),
(298,395,o),
(289,395,cs),
(234,395,o),
(188,426,o),
(188,488,c),
(39,488,l),
(42,345,o),
(151,272,o),
(262,272,cs),
(319,272,o),
(353,285,o),
(377,298,c),
(378,298,o),
(379,297,o),
(380,296,c),
(324,259,o),
(290,198,o),
(290,120,cs),
(290,-20,o),
(385,-112,o),
(536,-112,cs),
(670,-112,o),
(763,-37,o),
(773,77,c)
);
}
);
width = 816;
}
);
note = dvEyelash_HA;
},
{
glyphname = dvmII.aLong;
layers = (
{
layerId = m01;
shapes = (
{
closed = 1;
nodes = (
(-550,705,l),
(-399,705,l),
(-399,748,ls),
(-399,820,o),
(-369,905,o),
(-157,905,cs),
(57,905,o),
(86,820,o),
(86,748,cs),
(86,740,l),
(-17,740,l),
(-17,609,l),
(81,609,l),
(81,0,l),
(238,0,l),
(238,609,l),
(336,609,l),
(336,740,l),
(238,740,l),
(238,760,ls),
(238,916,o),
(141,1037,o),
(-157,1037,cs),
(-445,1037,o),
(-550,919,o),
(-550,760,cs)
);
}
);
width = 319;
}
);
note = dvmII.aLong;
},
{
glyphname = dvmII_Anusvara;
layers = (
{
layerId = m01;
shapes = (
{
closed = 1;
nodes = (
(-238,705,l),
(-86,705,l),
(-86,778,ls),
(-86,829,o),
(-75,899,o),
(2,899,cs),
(75,899,o),
(86,829,o),
(86,778,cs),
(86,740,l),
(-17,740,l),
(-17,609,l),
(81,609,l),
(81,0,l),
(238,0,l),
(238,609,l),
(336,609,l),
(336,740,l),
(238,740,l),
(238,770,ls),
(238,917,o),
(181,1031,o),
(2,1031,cs),
(-175,1031,o),
(-238,921,o),
(-238,770,cs)
);
},
{
closed = 1;
nodes = (
(425,800,o),
(466,841,o),
(466,891,cs),
(466,942,o),
(425,982,o),
(374,982,cs),
(323,982,o),
(283,942,o),
(283,891,cs),
(283,841,o),
(323,800,o),
(374,800,cs)
);
}
);
width = 319;
}
);
note = dvmII_Anusvara;
},
{
glyphname = dvmII_Reph;
layers = (
{
layerId = m01;
shapes = (
{
closed = 1;
nodes = (
(-238,705,l),
(-86,705,l),
(-86,778,ls),
(-86,829,o),
(-75,899,o),
(2,899,cs),
(75,899,o),
(86,829,o),
(86,778,cs),
(86,740,l),
(-17,740,l),
(-17,609,l),
(81,609,l),
(81,0,l),
(238,0,l),
(238,609,l),
(336,609,l),
(336,740,l),
(238,740,l),
(238,822,ls),
(238,856,o),
(249,892,o),
(293,892,cs),
(330,892,o),
(346,865,o),
(344,819,c),
(484,819,l),
(493,949,o),
(427,1016,o),
(332,1016,cs),
(260,1016,o),
(218,984,o),
(197,942,c),
(161,997,o),
(100,1031,o),
(2,1031,cs),
(-175,1031,o),
(-238,921,o),
(-238,770,cs)
);
}
);
width = 319;
}
);
note = dvmII_Reph;
},
{
glyphname = dvmII_Reph_Anusvara;
layers = (
{
layerId = m01;
shapes = (
{
closed = 1;
nodes = (
(238,740,l),
(238,814,ls),
(238,872,o),
(270,910,o),
(321,910,cs),
(372,910,o),
(399,878,o),
(400,841,c),
(526,841,l),
(538,950,o),
(468,1032,o),
(354,1032,cs),
(272,1032,o),
(221,993,o),
(196,943,c),
(161,997,o),
(99,1031,o),
(2,1031,cs),
(-175,1031,o),
(-238,921,o),
(-238,770,cs),
(-238,705,l),
(-86,705,l),
(-86,778,ls),
(-86,829,o),
(-75,899,o),
(2,899,cs),
(75,899,o),
(86,829,o),
(86,778,cs),
(86,740,l),
(-17,740,l),
(-17,609,l),
(81,609,l),
(81,0,l),
(238,0,l),
(238,609,l),
(336,609,l),
(336,740,l)
);
},
{
closed = 1;
nodes = (
(348,772,o),
(372,796,o),
(372,825,cs),
(372,854,o),
(348,877,o),
(319,877,cs),
(289,877,o),
(266,854,o),
(266,825,cs),
(266,796,o),
(289,772,o),
(319,772,cs)
);
}
);
width = 319;
}
);
note = dvmII_Reph_Anusvara;
},
{
glyphname = dvmII_Anusvara.aLong;
layers = (
{
layerId = m01;
shapes = (
{
closed = 1;
nodes = (
(-550,705,l),
(-399,705,l),
(-399,748,ls),
(-399,820,o),
(-369,905,o),
(-157,905,cs),
(57,905,o),
(86,820,o),
(86,748,cs),
(86,740,l),
(-17,740,l),
(-17,609,l),
(81,609,l),
(81,0,l),
(238,0,l),
(238,609,l),
(336,609,l),
(336,740,l),
(238,740,l),
(238,760,ls),
(238,916,o),
(141,1037,o),
(-157,1037,cs),
(-445,1037,o),
(-550,919,o),
(-550,760,cs)
);
},
{
closed = 1;
nodes = (
(425,800,o),
(466,841,o),
(466,891,cs),
(466,942,o),
(425,982,o),
(374,982,cs),
(323,982,o),
(283,942,o),
(283,891,cs),
(283,841,o),
(323,800,o),
(374,800,cs)
);
}
);
width = 319;
}
);
note = dvmII_Anusvara.aLong;
},
{
glyphname = dvmII_Reph.aLong;
layers = (
{
layerId = m01;
shapes = (
{
closed = 1;
nodes = (
(-550,705,l),
(-399,705,l),
(-399,748,ls),
(-399,820,o),
(-369,905,o),
(-157,905,cs),
(57,905,o),
(86,820,o),
(86,748,cs),
(86,740,l),
(-17,740,l),
(-17,609,l),
(81,609,l),
(81,0,l),
(238,0,l),
(238,609,l),
(336,609,l),
(336,740,l),
(238,740,l),
(238,822,ls),
(238,856,o),
(249,892,o),
(293,892,cs),
(330,892,o),
(346,865,o),
(344,819,c),
(484,819,l),
(493,949,o),
(427,1016,o),
(332,1016,cs),
(248,1016,o),
(205,972,o),
(188,921,c),
(133,992,o),
(25,1037,o),
(-157,1037,cs),
(-445,1037,o),
(-550,919,o),
(-550,760,cs)
);
}
);
width = 319;
}
);
note = dvmII_Reph.aLong;
},
{
glyphname = dvmII_Reph_Anusvara.aLong;
layers = (
{
layerId = m01;
shapes = (
{
closed = 1;
nodes = (
(-550,705,l),
(-399,705,l),
(-399,748,ls),
(-399,820,o),
(-369,905,o),
(-157,905,cs),
(57,905,o),
(86,820,o),
(86,748,cs),
(86,740,l),
(-17,740,l),
(-17,609,l),
(81,609,l),
(81,0,l),
(238,0,l),
(238,609,l),
(336,609,l),
(336,740,l),
(238,740,l),
(238,814,ls),
(238,872,o),
(270,910,o),
(321,910,cs),
(372,910,o),
(399,878,o),
(400,841,c),
(526,841,l),
(538,950,o),
(468,1032,o),
(354,1032,cs),
(260,1032,o),
(208,981,o),
(188,922,c),
(132,992,o),
(25,1037,o),
(-157,1037,cs),
(-445,1037,o),
(-550,919,o),
(-550,760,cs)
);
},
{
closed = 1;
nodes = (
(348,772,o),
(372,796,o),
(372,825,cs),
(372,854,o),
(348,877,o),
(319,877,cs),
(289,877,o),
(266,854,o),
(266,825,cs),
(266,796,o),
(289,772,o),
(319,772,cs)
);
}
);
width = 319;
}
);
note = dvmII_Reph_Anusvara.aLong;
},
{
glyphname = dvmE_Anusvara;
layers = (
{
layerId = m01;
shapes = (
{
closed = 1;
nodes = (
(-83,735,l),
(-214,972,o),
(-268,999,o),
(-424,1000,cs),
(-473,1000,l),
(-473,874,l),
(-421,874,ls),
(-332,874,o),
(-308,857,o),
(-230,735,c)
);
},
{
closed = 1;
nodes = (
(51,804,o),
(92,845,o),
(92,895,cs),
(92,946,o),
(51,986,o),
(0,986,cs),
(-51,986,o),
(-91,946,o),
(-91,895,cs),
(-91,845,o),
(-51,804,o),
(0,804,cs)
);
}
);
width = 0;
}
);
note = dvmE_Anusvara;
},
{
glyphname = dvmE_Reph;
layers = (
{
layerId = m01;
shapes = (
{
closed = 1;
nodes = (
(-83,735,l),
(-96,759,o),
(-104,786,o),
(-104,811,cs),
(-104,854,o),
(-84,881,o),
(-45,881,cs),
(-7,881,o),
(11,850,o),
(9,816,c),
(142,816,l),
(152,920,o),
(96,1001,o),
(-11,1001,cs),
(-115,1001,o),
(-155,932,o),
(-162,865,c),
(-243,983,o),
(-303,999,o),
(-424,1000,cs),
(-473,1000,l),
(-473,874,l),
(-421,874,ls),
(-332,874,o),
(-308,857,o),
(-230,735,c)
);
}
);
width = 0;
}
);
note = dvmE_Reph;
},
{
glyphname = dvmE_Reph_Anusvara;
layers = (
{
layerId = m01;
shapes = (
{
closed = 1;
nodes = (
(-83,735,l),
(-97,762,o),
(-108,789,o),
(-108,822,cs),
(-108,876,o),
(-73,913,o),
(-21,913,cs),
(39,913,o),
(67,869,o),
(67,823,c),
(173,823,l),
(182,938,o),
(112,1012,o),
(0,1012,cs),
(-107,1012,o),
(-158,947,o),
(-170,877,c),
(-248,984,o),
(-307,999,o),
(-424,1000,cs),
(-473,1000,l),
(-473,874,l),
(-421,874,ls),
(-332,874,o),
(-308,857,o),
(-230,735,c)
);
},
{
closed = 1;
nodes = (
(5,774,o),
(29,798,o),
(29,827,cs),
(29,856,o),
(5,879,o),
(-24,879,cs),
(-54,879,o),
(-77,856,o),
(-77,827,cs),
(-77,798,o),
(-54,774,o),
(-24,774,cs)
);
}
);
width = 0;
}
);
note = dvmE_Reph_Anusvara;
},
{
glyphname = dvmAI_Anusvara;
layers = (
{
layerId = m01;
shapes = (
{
closed = 1;
nodes = (
(-83,737,l),
(-249,1057,o),
(-279,1072,o),
(-432,1072,cs),
(-486,1072,l),
(-486,973,l),
(-429,973,ls),
(-359,973,o),
(-316,971,o),
(-243,849,c),
(-316,905,o),
(-341,906,o),
(-435,906,cs),
(-486,906,l),
(-486,808,l),
(-432,808,ls),
(-324,808,o),
(-328,806,o),
(-218,737,c)
);
},
{
closed = 1;
nodes = (
(56,801,o),
(97,842,o),
(97,892,cs),
(97,943,o),
(56,983,o),
(5,983,cs),
(-46,983,o),
(-86,943,o),
(-86,892,cs),
(-86,842,o),
(-46,801,o),
(5,801,cs)
);
}
);
width = 0;
}
);
note = dvmAI_Anusvara;
},
{
glyphname = dvmAI_Reph;
layers = (
{
layerId = m01;
shapes = (
{
closed = 1;
nodes = (
(-83,737,l),
(-86,742,o),
(-89,748,o),
(-91,753,cs),
(-100,772,o),
(-104,792,o),
(-104,811,cs),
(-104,854,o),
(-84,881,o),
(-45,881,cs),
(-7,881,o),
(11,850,o),
(9,816,c),
(128,816,l),
(136,920,o),
(85,1001,o),
(-14,1001,cs),
(-108,1001,o),
(-149,942,o),
(-160,880,c),
(-263,1062,o),
(-306,1072,o),
(-432,1072,cs),
(-486,1072,l),
(-486,973,l),
(-429,973,ls),
(-359,973,o),
(-316,971,o),
(-243,849,c),
(-316,905,o),
(-341,906,o),
(-435,906,cs),
(-486,906,l),
(-486,808,l),
(-432,808,ls),
(-324,808,o),
(-328,806,o),
(-218,737,c)
);
}
);
width = 0;
}
);
note = dvmAI_Reph;
},
{
glyphname = dvmAI_Reph_Anusvara;
layers = (
{
layerId = m01;
shapes = (
{
closed = 1;
nodes = (
(-83,737,l),
(-97,764,o),
(-108,788,o),
(-108,818,cs),
(-108,875,o),
(-74,913,o),
(-21,913,cs),
(39,913,o),
(67,869,o),
(67,823,c),
(173,823,l),
(182,933,o),
(116,1012,o),
(0,1012,cs),
(-98,1012,o),
(-150,954,o),
(-165,888,c),
(-265,1062,o),
(-308,1072,o),
(-432,1072,cs),
(-486,1072,l),
(-486,973,l),
(-429,973,ls),
(-359,973,o),
(-316,971,o),
(-243,849,c),
(-316,905,o),
(-341,906,o),
(-435,906,cs),
(-486,906,l),
(-486,808,l),
(-432,808,ls),
(-324,808,o),
(-328,806,o),
(-218,737,c)
);
},
{
closed = 1;
nodes = (
(4,774,o),
(28,798,o),
(28,827,cs),
(28,856,o),
(4,879,o),
(-25,879,cs),
(-55,879,o),
(-78,856,o),
(-78,827,cs),
(-78,798,o),
(-55,774,o),
(-25,774,cs)
);
}
);
width = 0;
}
);
note = dvmAI_Reph_Anusvara;
},
{
glyphname = dvmO_Anusvara;
layers = (
{
layerId = m01;
shapes = (
{
closed = 1;
nodes = (
(238,0,l),
(238,609,l),
(336,609,l),
(336,740,l),
(234,740,l),
(106,972,o),
(52,999,o),
(-104,1000,cs),
(-153,1000,l),
(-153,874,l),
(-101,874,ls),
(-13,874,o),
(11,857,o),
(87,740,c),
(-17,740,l),
(-17,609,l),
(81,609,l),
(81,0,l)
);
},
{
closed = 1;
nodes = (
(371,804,o),
(412,845,o),
(412,895,cs),
(412,946,o),
(371,986,o),
(320,986,cs),
(269,986,o),
(229,946,o),
(229,895,cs),
(229,845,o),
(269,804,o),
(320,804,cs)
);
}
);
width = 319;
}
);
note = dvmO_Anusvara;
},
{
glyphname = dvmO_Reph;
layers = (
{
layerId = m01;
shapes = (
{
closed = 1;
nodes = (
(238,0,l),
(238,609,l),
(336,609,l),
(336,740,l),
(234,740,l),
(223,763,o),
(216,788,o),
(216,811,cs),
(216,854,o),
(236,881,o),
(275,881,cs),
(313,881,o),
(331,850,o),
(329,816,c),
(462,816,l),
(472,920,o),
(416,1001,o),
(309,1001,cs),
(205,1001,o),
(165,932,o),
(158,865,c),
(77,983,o),
(17,999,o),
(-104,1000,cs),
(-153,1000,l),
(-153,874,l),
(-101,874,ls),
(-13,874,o),
(11,857,o),
(87,740,c),
(-17,740,l),
(-17,609,l),
(81,609,l),
(81,0,l)
);
}
);
width = 319;
}
);
note = dvmO_Reph;
},
{
glyphname = dvmO_Reph_Anusvara;
layers = (
{
layerId = m01;
shapes = (
{
closed = 1;
nodes = (
(238,0,l),
(238,609,l),
(336,609,l),
(336,740,l),
(234,740,l),
(222,765,o),
(212,791,o),
(212,822,cs),
(212,876,o),
(247,913,o),
(299,913,cs),
(359,913,o),
(387,869,o),
(387,823,c),
(493,823,l),
(502,938,o),
(432,1012,o),
(320,1012,cs),
(213,1012,o),
(162,947,o),
(150,877,c),
(72,984,o),
(13,999,o),
(-104,1000,cs),
(-153,1000,l),
(-153,874,l),
(-101,874,ls),
(-13,874,o),
(11,857,o),
(87,740,c),
(-17,740,l),
(-17,609,l),
(81,609,l),
(81,0,l)
);
},
{
closed = 1;
nodes = (
(325,774,o),
(349,798,o),
(349,827,cs),
(349,856,o),
(325,879,o),
(296,879,cs),
(266,879,o),
(243,856,o),
(243,827,cs),
(243,798,o),
(266,774,o),
(296,774,cs)
);
}
);
width = 319;
}
);
note = dvmO_Reph_Anusvara;
},
{
glyphname = dvmAU_Anusvara;
layers = (
{
layerId = m01;
shapes = (
{
closed = 1;
nodes = (
(238,0,l),
(238,609,l),
(336,609,l),
(336,740,l),
(229,740,l),
(65,1057,o),
(35,1072,o),
(-118,1072,cs),
(-172,1072,l),
(-172,973,l),
(-115,973,ls),
(-45,973,o),
(-2,971,o),
(71,849,c),
(-2,905,o),
(-27,906,o),
(-121,906,cs),
(-172,906,l),
(-172,808,l),
(-118,808,ls),
(-12,808,o),
(-14,806,o),
(91,740,c),
(-17,740,l),
(-17,609,l),
(81,609,l),
(81,0,l)
);
},
{
closed = 1;
nodes = (
(370,801,o),
(411,842,o),
(411,892,cs),
(411,943,o),
(370,983,o),
(319,983,cs),
(268,983,o),
(228,943,o),
(228,892,cs),
(228,842,o),
(268,801,o),
(319,801,cs)
);
}
);
width = 319;
}
);
note = dvmAU_Anusvara;
},
{
glyphname = dvmAU_Reph;
layers = (
{
layerId = m01;
shapes = (
{
closed = 1;
nodes = (
(238,0,l),
(238,609,l),
(336,609,l),
(336,740,l),
(229,740,l),
(228,742,o),
(225,748,o),
(223,753,cs),
(214,772,o),
(210,792,o),
(210,811,cs),
(210,854,o),
(230,881,o),
(269,881,cs),
(307,881,o),
(325,850,o),
(323,816,c),
(442,816,l),
(450,920,o),
(399,1001,o),
(300,1001,cs),
(206,1001,o),
(165,942,o),
(154,880,c),
(51,1062,o),
(8,1072,o),
(-118,1072,cs),
(-172,1072,l),
(-172,973,l),
(-115,973,ls),
(-45,973,o),
(-2,971,o),
(71,849,c),
(-2,905,o),
(-27,906,o),
(-121,906,cs),
(-172,906,l),
(-172,808,l),
(-118,808,ls),
(-12,808,o),
(-14,806,o),
(91,740,c),
(-17,740,l),
(-17,609,l),
(81,609,l),
(81,0,l)
);
}
);
width = 319;
}
);
note = dvmAU_Reph;
},
{
glyphname = dvmAU_Reph_Anusvara;
layers = (
{
layerId = m01;
shapes = (
{
closed = 1;
nodes = (
(238,0,l),
(238,609,l),
(336,609,l),
(336,740,l),
(229,740,l),
(217,764,o),
(206,788,o),
(206,818,cs),
(206,875,o),
(240,913,o),
(293,913,cs),
(353,913,o),
(381,869,o),
(381,823,c),
(487,823,l),
(496,933,o),
(430,1012,o),
(314,1012,cs),
(216,1012,o),
(164,954,o),
(149,888,c),
(49,1062,o),
(6,1072,o),
(-118,1072,cs),
(-172,1072,l),
(-172,973,l),
(-115,973,ls),
(-45,973,o),
(-2,971,o),
(71,849,c),
(-2,905,o),
(-27,906,o),
(-121,906,cs),
(-172,906,l),
(-172,808,l),
(-118,808,ls),
(-12,808,o),
(-14,806,o),
(91,740,c),
(-17,740,l),
(-17,609,l),
(81,609,l),
(81,0,l)
);
},
{
closed = 1;
nodes = (
(318,774,o),
(342,798,o),
(342,827,cs),
(342,856,o),
(318,879,o),
(289,879,cs),
(259,879,o),
(236,856,o),
(236,827,cs),
(236,798,o),
(259,774,o),
(289,774,cs)
);
}
);
width = 319;
}
);
note = dvmAU_Reph_Anusvara;
},
{
glyphname = dvmEcandra_Anusvara;
layers = (
{
layerId = m01;
shapes = (
{
closed = 1;
nodes = (
(-3,811,o),
(81,892,o),
(81,1022,c),
(-45,1022,l),
(-45,969,o),
(-85,923,o),
(-159,923,cs),
(-233,923,o),
(-273,969,o),
(-273,1022,c),
(-398,1022,l),
(-398,892,o),
(-314,811,o),
(-159,811,cs)
);
},
{
closed = 1;
nodes = (
(-124,986,o),
(-98,1013,o),
(-98,1047,cs),
(-98,1080,o),
(-124,1108,o),
(-160,1108,cs),
(-193,1108,o),
(-220,1080,o),
(-220,1047,cs),
(-220,1013,o),
(-193,986,o),
(-160,986,cs)
);
}
);
width = 0;
}
);
note = dvmEcandra_Anusvara;
},
{
glyphname = dvmOcandra_Anusvara;
layers = (
{
layerId = m01;
shapes = (
{
closed = 1;
nodes = (
(81,0,l),
(238,0,l),
(238,609,l),
(336,609,l),
(336,740,l),
(-17,740,l),
(-17,609,l),
(81,609,l)
);
},
{
closed = 1;
nodes = (
(316,811,o),
(400,892,o),
(400,1022,c),
(274,1022,l),
(274,969,o),
(234,923,o),
(160,923,cs),
(86,923,o),
(46,969,o),
(46,1022,c),
(-79,1022,l),
(-79,892,o),
(5,811,o),
(160,811,cs)
);
},
{
closed = 1;
nodes = (
(195,986,o),
(221,1013,o),
(221,1047,cs),
(221,1080,o),
(195,1108,o),
(159,1108,cs),
(126,1108,o),
(99,1080,o),
(99,1047,cs),
(99,1013,o),
(126,986,o),
(159,986,cs)
);
}
);
width = 319;
}
);
note = dvmOcandra_Anusvara;
},
{
glyphname = dvRA_mU;
layers = (
{
layerId = m01;
shapes = (
{
closed = 1;
nodes = (
(-17,609,l),
(306,609,l),
(306,559,ls),
(306,478,o),
(271,429,o),
(164,429,cs),
(63,429,l),
(63,208,ls),
(63,86,o),
(137,-9,o),
(282,-9,cs),
(414,-9,o),
(490,73,o),
(490,199,cs),
(490,215,l),
(339,215,l),
(339,194,ls),
(339,154,o),
(317,125,o),
(279,125,cs),
(236,125,o),
(218,157,o),
(218,200,cs),
(218,303,l),
(584,303,ls),
(627,303,o),
(653,281,o),
(653,244,cs),
(653,208,o),
(629,186,o),
(586,186,cs),
(573,186,o),
(560,188,o),
(549,190,c),
(549,65,l),
(562,63,o),
(583,60,o),
(600,60,cs),
(718,60,o),
(793,130,o),
(793,239,cs),
(793,360,o),
(721,429,o),
(571,429,cs),
(431,429,l),
(452,467,o),
(463,512,o),
(463,559,cs),
(463,609,l),
(850,609,l),
(850,740,l),
(-17,740,l)
);
}
);
width = 824;
}
);
note = dvRA_mU;
},
{
glyphname = dvRA_mUU;
layers = (
{
layerId = m01;
shapes = (
{
closed = 1;
nodes = (
(-17,609,l),
(306,609,l),
(306,559,ls),
(306,478,o),
(271,429,o),
(164,429,cs),
(63,429,l),
(63,208,ls),
(63,86,o),
(137,-9,o),
(282,-9,cs),
(414,-9,o),
(490,73,o),
(490,199,cs),
(490,215,l),
(339,215,l),
(339,194,ls),
(339,154,o),
(317,125,o),
(279,125,cs),
(236,125,o),
(218,157,o),
(218,200,cs),
(218,303,l),
(478,303,ls),
(547,303,o),
(583,265,o),
(583,205,cs),
(583,117,l),
(729,117,l),
(729,208,ls),
(729,342,o),
(651,429,o),
(494,429,cs),
(431,429,l),
(452,467,o),
(463,512,o),
(463,559,cs),
(463,609,l),
(785,609,l),
(785,740,l),
(-17,740,l)
);
}
);
width = 768;
}
);
note = dvRA_mUU;
},
{
glyphname = dvmI.a01;
layers = (
{
layerId = m01;
shapes = (
{
closed = 1;
nodes = (
(238,609,l),
(336,609,l),
(336,740,l),
(237,740,l),
(244,855,o),
(336,903,o),
(432,903,cs),
(532,903,o),
(629,845,o),
(629,720,cs),
(629,705,l),
(782,705,l),
(782,723,ls),
(782,904,o),
(647,1031,o),
(432,1031,cs),
(222,1031,o),
(89,917,o),
(81,740,c),
(-17,740,l),
(-17,609,l),
(81,609,l),
(81,0,l),
(238,0,l)
);
}
);
width = 319;
}
);
note = dvmI.a01;
},
{
glyphname = dvmI.a02;
layers = (
{
layerId = m01;
shapes = (
{
closed = 1;
nodes = (
(238,609,l),
(336,609,l),
(336,740,l),
(237,740,l),
(244,855,o),
(337,904,o),
(459,904,cs),
(586,904,o),
(686,845,o),
(686,718,cs),
(686,704,l),
(839,704,l),
(839,722,ls),
(839,905,o),
(701,1032,o),
(459,1032,cs),
(225,1032,o),
(89,919,o),
(81,740,c),
(-17,740,l),
(-17,609,l),
(81,609,l),
(81,0,l),
(238,0,l)
);
}
);
width = 319;
}
);
note = dvmI.a02;
},
{
glyphname = dvmI.a03;
layers = (
{
layerId = m01;
shapes = (
{
closed = 1;
nodes = (
(238,609,l),
(336,609,l),
(336,740,l),
(237,740,l),
(245,856,o),
(339,905,o),
(486,905,cs),
(640,905,o),
(742,845,o),
(742,716,cs),
(742,702,l),
(896,702,l),
(896,720,ls),
(896,906,o),
(756,1033,o),
(487,1033,cs),
(226,1033,o),
(89,920,o),
(81,740,c),
(-17,740,l),
(-17,609,l),
(81,609,l),
(81,0,l),
(238,0,l)
);
}
);
width = 319;
}
);
note = dvmI.a03;
},
{
glyphname = dvmI.a04;
layers = (
{
layerId = m01;
shapes = (
{
closed = 1;
nodes = (
(238,609,l),
(336,609,l),
(336,740,l),
(237,740,l),
(245,856,o),
(340,906,o),
(512,906,cs),
(694,906,o),
(799,844,o),
(799,714,cs),
(799,701,l),
(953,701,l),
(953,718,ls),
(953,906,o),
(810,1034,o),
(514,1034,cs),
(228,1034,o),
(90,922,o),
(81,740,c),
(-17,740,l),
(-17,609,l),
(81,609,l),
(81,0,l),
(238,0,l)
);
}
);
width = 319;
}
);
note = dvmI.a04;
},
{
glyphname = dvmI.a05;
layers = (
{
layerId = m01;
shapes = (
{
closed = 1;
nodes = (
(238,609,l),
(336,609,l),
(336,740,l),
(237,740,l),
(245,856,o),
(341,907,o),
(539,907,cs),
(748,907,o),
(856,844,o),
(856,713,cs),
(856,700,l),
(1010,700,l),
(1010,717,ls),
(1010,907,o),
(865,1035,o),
(541,1035,cs),
(230,1035,o),
(90,923,o),
(81,740,c),
(-17,740,l),
(-17,609,l),
(81,609,l),
(81,0,l),
(238,0,l)
);
}
);
width = 319;
}
);
note = dvmI.a05;
},
{
glyphname = dvmI.a06;
layers = (
{
layerId = m01;
shapes = (
{
closed = 1;
nodes = (
(238,609,l),
(336,609,l),
(336,740,l),
(238,740,l),
(246,856,o),
(343,908,o),
(566,908,cs),
(801,908,o),
(912,844,o),
(912,711,cs),
(912,698,l),
(1066,698,l),
(1066,715,ls),
(1066,908,o),
(920,1036,o),
(569,1036,cs),
(233,1036,o),
(90,924,o),
(81,740,c),
(-17,740,l),
(-17,609,l),
(81,609,l),
(81,0,l),
(238,0,l)
);
}
);
width = 319;
}
);
note = dvmI.a06;
},
{
glyphname = dvmI.a07;
layers = (
{
layerId = m01;
shapes = (
{
closed = 1;
nodes = (
(238,609,l),
(336,609,l),
(336,740,l),
(238,740,l),
(246,857,o),
(345,908,o),
(593,908,cs),
(856,908,o),
(969,845,o),
(969,710,cs),
(969,697,l),
(1122,697,l),
(1122,713,ls),
(1122,908,o),
(974,1036,o),
(597,1036,cs),
(235,1036,o),
(90,926,o),
(81,740,c),
(-17,740,l),
(-17,609,l),
(81,609,l),
(81,0,l),
(238,0,l)
);
}
);
width = 319;
}
);
note = dvmI.a07;
},
{
glyphname = dvmI.a08;
layers = (
{
layerId = m01;
shapes = (
{
closed = 1;
nodes = (
(238,609,l),
(336,609,l),
(336,740,l),
(238,740,l),
(246,857,o),
(346,909,o),
(620,909,cs),
(909,909,o),
(1026,845,o),
(1026,708,cs),
(1026,697,l),
(1179,696,l),
(1179,712,ls),
(1179,909,o),
(1030,1037,o),
(624,1037,cs),
(237,1037,o),
(91,928,o),
(81,740,c),
(-17,740,l),
(-17,609,l),
(81,609,l),
(81,0,l),
(238,0,l)
);
}
);
width = 319;
}
);
note = dvmI.a08;
},
{
glyphname = dvmI.a09;
layers = (
{
layerId = m01;
shapes = (
{
closed = 1;
nodes = (
(238,609,l),
(336,609,l),
(336,740,l),
(238,740,l),
(246,857,o),
(348,910,o),
(645,910,cs),
(962,910,o),
(1081,845,o),
(1081,706,cs),
(1081,695,l),
(1236,695,l),
(1236,710,ls),
(1236,909,o),
(1083,1038,o),
(650,1038,cs),
(238,1038,o),
(91,931,o),
(81,740,c),
(-17,740,l),
(-17,609,l),
(81,609,l),
(81,0,l),
(238,0,l)
);
}
);
width = 319;
}
);
note = dvmI.a09;
},
{
glyphname = dvmI.a10;
layers = (
{
layerId = m01;
shapes = (
{
closed = 1;
nodes = (
(238,609,l),
(336,609,l),
(336,740,l),
(238,740,l),
(246,857,o),
(349,911,o),
(672,911,cs),
(1017,911,o),
(1138,845,o),
(1138,704,cs),
(1138,694,l),
(1292,693,l),
(1292,708,ls),
(1292,910,o),
(1138,1039,o),
(677,1039,cs),
(240,1039,o),
(91,932,o),
(81,740,c),
(-17,740,l),
(-17,609,l),
(81,609,l),
(81,0,l),
(238,0,l)
);
}
);
width = 319;
}
);
note = dvmI.a10;
},
{
glyphname = dvmI.a11;
layers = (
{
layerId = m01;
shapes = (
{
closed = 1;
nodes = (
(238,609,l),
(336,609,l),
(336,740,l),
(238,740,l),
(247,858,o),
(351,912,o),
(699,912,cs),
(1071,912,o),
(1195,845,o),
(1195,703,cs),
(1195,692,l),
(1349,692,l),
(1349,707,ls),
(1349,910,o),
(1194,1040,o),
(705,1040,cs),
(242,1040,o),
(91,932,o),
(81,740,c),
(-17,740,l),
(-17,609,l),
(81,609,l),
(81,0,l),
(238,0,l)
);
}
);
width = 319;
}
);
note = dvmI.a11;
},
{
glyphname = dvmI.a12;
layers = (
{
layerId = m01;
shapes = (
{
closed = 1;
nodes = (
(238,609,l),
(336,609,l),
(336,740,l),
(238,740,l),
(247,858,o),
(354,913,o),
(726,913,cs),
(1124,913,o),
(1252,845,o),
(1252,701,cs),
(1252,691,l),
(1406,691,l),
(1406,705,ls),
(1406,911,o),
(1247,1041,o),
(733,1041,cs),
(244,1041,o),
(91,935,o),
(82,740,c),
(-17,740,l),
(-17,609,l),
(81,609,l),
(81,0,l),
(238,0,l)
);
}
);
width = 319;
}
);
note = dvmI.a12;
},
{
glyphname = dvmI.a13;
layers = (
{
layerId = m01;
shapes = (
{
closed = 1;
nodes = (
(238,609,l),
(336,609,l),
(336,740,l),
(238,740,l),
(247,858,o),
(354,914,o),
(752,914,cs),
(1178,914,o),
(1307,845,o),
(1307,700,cs),
(1307,690,l),
(1463,690,l),
(1463,703,ls),
(1463,912,o),
(1302,1042,o),
(760,1042,cs),
(247,1042,o),
(92,936,o),
(82,740,c),
(-17,740,l),
(-17,609,l),
(81,609,l),
(81,0,l),
(238,0,l)
);
}
);
width = 319;
}
);
note = dvmI.a13;
},
{
glyphname = dvmI.a14;
layers = (
{
layerId = m01;
shapes = (
{
closed = 1;
nodes = (
(238,609,l),
(336,609,l),
(336,740,l),
(238,740,l),
(248,858,o),
(357,915,o),
(779,915,cs),
(1231,915,o),
(1364,845,o),
(1364,698,cs),
(1364,689,l),
(1520,688,l),
(1520,701,ls),
(1520,913,o),
(1356,1043,o),
(788,1043,cs),
(250,1043,o),
(92,938,o),
(82,740,c),
(-17,740,l),
(-17,609,l),
(81,609,l),
(81,0,l),
(238,0,l)
);
}
);
width = 319;
}
);
note = dvmI.a14;
},
{
glyphname = dvmI.a15;
layers = (
{
layerId = m01;
shapes = (
{
closed = 1;
nodes = (
(238,609,l),
(336,609,l),
(336,740,l),
(238,740,l),
(248,859,o),
(358,916,o),
(807,916,cs),
(1285,916,o),
(1422,846,o),
(1422,696,cs),
(1422,688,l),
(1577,687,l),
(1577,700,ls),
(1577,913,o),
(1412,1044,o),
(815,1044,cs),
(250,1044,o),
(92,940,o),
(82,740,c),
(-17,740,l),
(-17,609,l),
(81,609,l),
(81,0,l),
(238,0,l)
);
}
);
width = 319;
}
);
note = dvmI.a15;
},
{
glyphname = dvmI.a16;
layers = (
{
layerId = m01;
shapes = (
{
closed = 1;
nodes = (
(238,609,l),
(336,609,l),
(336,740,l),
(238,740,l),
(248,859,o),
(362,917,o),
(833,917,cs),
(1340,917,o),
(1477,846,o),
(1477,695,cs),
(1477,687,l),
(1634,687,l),
(1634,699,ls),
(1634,914,o),
(1466,1045,o),
(842,1045,cs),
(252,1045,o),
(92,941,o),
(82,740,c),
(-17,740,l),
(-17,609,l),
(81,609,l),
(81,0,l),
(238,0,l)
);
}
);
width = 319;
}
);
note = dvmI.a16;
},
{
glyphname = dvmI.a17;
layers = (
{
layerId = m01;
shapes = (
{
closed = 1;
nodes = (
(238,609,l),
(336,609,l),
(336,740,l),
(238,740,l),
(248,860,o),
(363,918,o),
(860,918,cs),
(1393,918,o),
(1534,845,o),
(1534,693,cs),
(1534,685,l),
(1690,685,l),
(1690,697,ls),
(1690,915,o),
(1521,1046,o),
(869,1046,cs),
(255,1046,o),
(92,943,o),
(82,740,c),
(-17,740,l),
(-17,609,l),
(81,609,l),
(81,0,l),
(238,0,l)
);
}
);
width = 319;
}
);
note = dvmI.a17;
},
{
glyphname = dvmI.a18;
layers = (
{
layerId = m01;
shapes = (
{
closed = 1;
nodes = (
(238,609,l),
(336,609,l),
(336,740,l),
(238,740,l),
(249,860,o),
(366,919,o),
(887,919,cs),
(1447,919,o),
(1591,845,o),
(1591,691,cs),
(1591,684,l),
(1746,684,l),
(1746,695,ls),
(1746,915,o),
(1576,1047,o),
(896,1047,cs),
(258,1047,o),
(93,944,o),
(82,740,c),
(-17,740,l),
(-17,609,l),
(81,609,l),
(81,0,l),
(238,0,l)
);
}
);
width = 319;
}
);
note = dvmI.a18;
},
{
glyphname = dvmI.a19;
layers = (
{
layerId = m01;
shapes = (
{
closed = 1;
nodes = (
(238,609,l),
(336,609,l),
(336,740,l),
(238,740,l),
(249,860,o),
(367,920,o),
(913,920,cs),
(1500,920,o),
(1647,845,o),
(1647,690,cs),
(1647,682,l),
(1803,682,l),
(1803,694,ls),
(1803,916,o),
(1630,1048,o),
(923,1048,cs),
(259,1048,o),
(93,945,o),
(82,740,c),
(-17,740,l),
(-17,609,l),
(81,609,l),
(81,0,l),
(238,0,l)
);
}
);
width = 319;
}
);
note = dvmI.a19;
},
{
glyphname = dvmI.a20;
layers = (
{
layerId = m01;
shapes = (
{
closed = 1;
nodes = (
(238,609,l),
(336,609,l),
(336,740,l),
(238,740,l),
(250,860,o),
(370,921,o),
(939,921,cs),
(1554,921,o),
(1703,846,o),
(1703,687,cs),
(1703,682,l),
(1860,681,l),
(1860,691,ls),
(1860,917,o),
(1685,1049,o),
(951,1049,cs),
(261,1049,o),
(93,947,o),
(82,740,c),
(-17,740,l),
(-17,609,l),
(81,609,l),
(81,0,l),
(238,0,l)
);
}
);
width = 319;
}
);
note = dvmI.a20;
},
{
glyphname = dvmI.a21;
layers = (
{
layerId = m01;
shapes = (
{
closed = 1;
nodes = (
(238,609,l),
(336,609,l),
(336,740,l),
(238,740,l),
(250,860,o),
(371,921,o),
(966,921,cs),
(1608,921,o),
(1761,846,o),
(1761,686,cs),
(1761,680,l),
(1916,680,l),
(1916,690,ls),
(1916,917,o),
(1739,1049,o),
(978,1049,cs),
(263,1049,o),
(93,948,o),
(82,740,c),
(-17,740,l),
(-17,609,l),
(81,609,l),
(81,0,l),
(238,0,l)
);
}
);
width = 319;
}
);
note = dvmI.a21;
},
{
glyphname = dvmI.a22;
layers = (
{
layerId = m01;
shapes = (
{
closed = 1;
nodes = (
(238,609,l),
(336,609,l),
(336,740,l),
(238,740,l),
(250,860,o),
(373,922,o),
(993,922,cs),
(1661,922,o),
(1818,845,o),
(1818,684,cs),
(1818,679,l),
(1973,678,l),
(1973,688,ls),
(1973,918,o),
(1794,1050,o),
(1005,1050,cs),
(265,1050,o),
(93,950,o),
(82,740,c),
(-17,740,l),
(-17,609,l),
(81,609,l),
(81,0,l),
(238,0,l)
);
}
);
width = 319;
}
);
note = dvmI.a22;
},
{
glyphname = dvmI.a23;
layers = (
{
layerId = m01;
shapes = (
{
closed = 1;
nodes = (
(238,609,l),
(336,609,l),
(336,740,l),
(238,740,l),
(250,862,o),
(375,923,o),
(1019,923,cs),
(1716,923,o),
(1873,846,o),
(1873,683,cs),
(1873,677,l),
(2031,677,l),
(2031,686,ls),
(2031,919,o),
(1848,1051,o),
(1032,1051,cs),
(269,1051,o),
(94,951,o),
(82,740,c),
(-17,740,l),
(-17,609,l),
(81,609,l),
(81,0,l),
(238,0,l)
);
}
);
width = 319;
}
);
note = dvmI.a23;
},
{
glyphname = dvmI.a24;
layers = (
{
layerId = m01;
shapes = (
{
closed = 1;
nodes = (
(238,609,l),
(336,609,l),
(336,740,l),
(238,740,l),
(251,862,o),
(378,924,o),
(1046,924,cs),
(1769,924,o),
(1930,846,o),
(1930,681,cs),
(1930,676,l),
(2087,676,l),
(2087,685,ls),
(2087,920,o),
(1903,1052,o),
(1060,1052,cs),
(269,1052,o),
(94,953,o),
(82,740,c),
(-17,740,l),
(-17,609,l),
(81,609,l),
(81,0,l),
(238,0,l)
);
}
);
width = 319;
}
);
note = dvmI.a24;
},
{
glyphname = exclam;
layers = (
{
layerId = m01;
shapes = (
{
closed = 1;
nodes = (
(122,248,l),
(267,248,l),
(287,727,l),
(102,727,l)
);
},
{
closed = 1;
nodes = (
(298,137,o),
(257,178,o),
(197,178,cs),
(136,178,o),
(95,137,o),
(95,84,cs),
(95,33,o),
(136,-8,o),
(197,-8,cs),
(257,-8,o),
(298,33,o),
(298,84,cs)
);
}
);
width = 392;
}
);
note = exclam;
unicode = 33;
},
{
glyphname = quotedbl;
layers = (
{
layerId = m01;
shapes = (
{
closed = 1;
nodes = (
(53,579,l),
(168,579,l),
(181,800,l),
(40,800,l)
);
},
{
closed = 1;
nodes = (
(243,579,l),
(358,579,l),
(371,800,l),
(230,800,l)
);
}
);
width = 411;
}
);
note = quotedbl;
unicode = 34;
},
{
glyphname = numbersign;
layers = (
{
layerId = m01;
shapes = (
{
closed = 1;
nodes = (
(527,307,l),
(361,307,l),
(389,438,l),
(555,438,l)
);
},
{
closed = 1;
nodes = (
(461,0,l),
(621,0,l),
(654,153,l),
(807,153,l),
(807,307,l),
(687,307,l),
(715,438,l),
(871,438,l),
(871,592,l),
(747,592,l),
(779,740,l),
(619,740,l),
(587,592,l),
(421,592,l),
(453,740,l),
(293,740,l),
(261,592,l),
(84,592,l),
(84,438,l),
(229,438,l),
(201,307,l),
(20,307,l),
(20,153,l),
(168,153,l),
(135,0,l),
(295,0,l),
(328,153,l),
(494,153,l)
);
}
);
width = 904;
}
);
note = numbersign;
unicode = 35;
},
{
glyphname = dollar;
layers = (
{
layerId = m01;
shapes = (
{
closed = 1;
nodes = (
(285,-87,l),
(349,-87,l),
(349,-6,l),
(507,1,o),
(593,96,o),
(593,204,cs),
(593,359,o),
(456,388,o),
(349,418,c),
(349,573,l),
(377,563,o),
(396,540,o),
(400,503,c),
(583,503,l),
(574,630,o),
(486,700,o),
(349,711,c),
(349,792,l),
(285,792,l),
(285,711,l),
(149,702,o),
(44,628,o),
(44,503,cs),
(44,346,o),
(178,316,o),
(285,288,c),
(285,130,l),
(251,141,o),
(231,166,o),
(227,207,c),
(45,207,l),
(50,78,o),
(149,7,o),
(285,-5,c)
);
},
{
closed = 1;
nodes = (
(414,161,o),
(389,134,o),
(349,127,c),
(349,269,l),
(388,254,o),
(414,234,o),
(414,198,cs)
);
},
{
closed = 1;
nodes = (
(225,550,o),
(248,572,o),
(285,578,c),
(285,439,l),
(249,455,o),
(225,476,o),
(225,511,cs)
);
}
);
width = 658;
}
);
note = dollar;
unicode = 36;
},
{
glyphname = percent;
layers = (
{
layerId = m01;
shapes = (
{
closed = 1;
nodes = (
(31,435,o),
(103,377,o),
(198,377,cs),
(293,377,o),
(364,435,o),
(364,546,cs),
(364,657,o),
(293,715,o),
(198,715,cs),
(103,715,o),
(31,657,o),
(31,546,cs)
);
},
{
closed = 1;
nodes = (
(227,615,o),
(246,594,o),
(246,546,cs),
(246,499,o),
(227,478,o),
(197,478,cs),
(167,478,o),
(149,499,o),
(149,546,cs),
(149,594,o),
(167,615,o),
(197,615,cs)
);
},
{
closed = 1;
nodes = (
(160,0,l),
(325,0,l),
(710,704,l),
(545,704,l)
);
},
{
closed = 1;
nodes = (
(507,47,o),
(578,-11,o),
(673,-11,cs),
(768,-11,o),
(839,47,o),
(839,158,cs),
(839,270,o),
(768,327,o),
(673,327,cs),
(578,327,o),
(507,270,o),
(507,158,cs)
);
},
{
closed = 1;
nodes = (
(702,227,o),
(721,205,o),
(721,158,cs),
(721,111,o),
(702,90,o),
(672,90,cs),
(642,90,o),
(624,111,o),
(624,158,cs),
(624,205,o),
(642,227,o),
(672,227,cs)
);
}
);
width = 870;
}
);
note = percent;
unicode = 37;
},
{
glyphname = ampersand;
layers = (
{
layerId = m01;
shapes = (
{
closed = 1;
nodes = (
(560,532,l),
(563,629,o),
(492,716,o),
(349,716,cs),
(209,716,o),
(130,636,o),
(130,537,cs),
(130,492,o),
(143,454,o),
(179,411,c),
(82,365,o),
(36,290,o),
(36,204,cs),
(36,74,o),
(139,-11,o),
(302,-11,cs),
(394,-11,o),
(470,14,o),
(534,63,c),
(599,0,l),
(798,0,l),
(629,166,l),
(651,199,o),
(672,236,o),
(691,278,c),
(739,365,l),
(568,365,l),
(531,302,l),
(527,292,o),
(522,283,o),
(518,274,c),
(347,441,ls),
(310,480,o),
(291,509,o),
(291,538,cs),
(291,568,o),
(315,588,o),
(347,588,cs),
(377,588,o),
(400,570,o),
(399,532,c)
);
},
{
closed = 1;
nodes = (
(242,127,o),
(201,167,o),
(201,216,cs),
(201,256,o),
(225,291,o),
(273,316,c),
(429,165,l),
(395,140,o),
(356,127,o),
(310,127,cs)
);
}
);
width = 798;
}
);
note = ampersand;
unicode = 38;
},
{
glyphname = quotesingle;
layers = (
{
layerId = m01;
shapes = (
{
closed = 1;
nodes = (
(53,579,l),
(168,579,l),
(181,800,l),
(40,800,l)
);
}
);
width = 221;
}
);
note = quotesingle;
unicode = 39;
},
{
glyphname = parenleft;
layers = (
{
layerId = m01;
shapes = (
{
closed = 1;
nodes = (
(461,-209,l),
(461,-193,l),
(327,-54,o),
(251,145,o),
(251,348,cs),
(251,549,o),
(327,756,o),
(470,897,c),
(470,913,l),
(302,913,l),
(163,786,o),
(87,574,o),
(87,348,cs),
(87,122,o),
(163,-85,o),
(292,-209,c)
);
}
);
width = 477;
}
);
note = parenleft;
unicode = 40;
},
{
glyphname = parenright;
layers = (
{
layerId = m01;
shapes = (
{
closed = 1;
nodes = (
(16,-209,l),
(16,-193,l),
(150,-54,o),
(226,145,o),
(226,348,cs),
(226,549,o),
(150,756,o),
(7,897,c),
(7,913,l),
(175,913,l),
(314,786,o),
(390,574,o),
(390,348,cs),
(390,122,o),
(314,-85,o),
(185,-209,c)
);
}
);
width = 477;
}
);
note = parenright;
unicode = 41;
},
{
glyphname = asterisk;
layers = (
{
layerId = m01;
shapes = (
{
closed = 1;
nodes = (
(329,740,l),
(210,740,l),
(236,608,l),
(132,695,l),
(75,592,l),
(197,552,l),
(74,509,l),
(136,401,l),
(235,490,l),
(211,360,l),
(328,360,l),
(303,490,l),
(403,402,l),
(463,508,l),
(340,550,l),
(463,593,l),
(407,695,l),
(303,608,l)
);
}
);
width = 534;
}
);
note = asterisk;
unicode = 42;
},
{
glyphname = plus;
layers = (
{
layerId = m01;
shapes = (
{
closed = 1;
nodes = (
(233,605,l),
(233,426,l),
(59,426,l),
(59,273,l),
(233,273,l),
(233,95,l),
(395,95,l),
(395,273,l),
(569,273,l),
(569,426,l),
(395,426,l),
(395,605,l)
);
}
);
width = 628;
}
);
note = plus;
unicode = 43;
},
{
glyphname = comma;
layers = (
{
layerId = m01;
shapes = (
{
closed = 1;
nodes = (
(19,-151,l),
(131,-151,l),
(258,173,l),
(83,173,l)
);
}
);
width = 290;
}
);
note = comma;
unicode = 44;
},
{
glyphname = hyphen;
layers = (
{
layerId = m01;
shapes = (
{
closed = 1;
nodes = (
(52,280,l),
(492,280,l),
(492,422,l),
(52,422,l)
);
}
);
width = 580;
}
);
note = hyphen;
unicode = 45;
},
{
glyphname = period;
layers = (
{
layerId = m01;
shapes = (
{
closed = 1;
nodes = (
(243,137,o),
(202,178,o),
(142,178,cs),
(81,178,o),
(40,137,o),
(40,84,cs),
(40,33,o),
(81,-8,o),
(142,-8,cs),
(202,-8,o),
(243,33,o),
(243,84,cs)
);
}
);
width = 282;
}
);
note = period;
unicode = 46;
},
{
glyphname = slash;
layers = (
{
layerId = m01;
shapes = (
{
closed = 1;
nodes = (
(10,-187,l),
(175,-187,l),
(443,950,l),
(278,950,l)
);
}
);
width = 453;
}
);
note = slash;
unicode = 47;
},
{
glyphname = zero;
layers = (
{
layerId = m01;
shapes = (
{
closed = 1;
nodes = (
(45,159,o),
(118,3,o),
(326,3,cs),
(534,3,o),
(607,159,o),
(607,375,cs),
(607,589,o),
(534,745,o),
(326,745,cs),
(118,745,o),
(45,589,o),
(45,375,cs)
);
},
{
closed = 1;
nodes = (
(439,259,o),
(427,163,o),
(326,163,cs),
(225,163,o),
(213,259,o),
(213,375,cs),
(213,487,o),
(225,585,o),
(326,585,cs),
(427,585,o),
(439,487,o),
(439,375,cs)
);
}
);
width = 652;
}
);
note = zero;
unicode = 48;
},
{
glyphname = one;
lastChange = "2022-10-20 10:32:21 +0000";
layers = (
{
layerId = m01;
shapes = (
{
closed = 1;
nodes = (
(126,10,ls),
(126,4,o),
(130,0,o),
(136,0,cs),
(294,0,ls),
(300,0,o),
(304,4,o),
(304,10,cs),
(304,695,ls),
(304,717,o),
(291,730,o),
(269,730,cs),
(64,730,l),
(27,571,l),
(91,571,ls),
(113,571,o),
(126,558,o),
(126,536,cs)
);
}
);
width = 376;
}
);
note = one;
unicode = 49;
},
{
glyphname = two;
lastChange = "2022-10-20 10:32:40 +0000";
layers = (
{
layerId = m01;
shapes = (
{
closed = 1;
nodes = (
(39,10,l),
(531,10,ls),
(537,10,o),
(541,14,o),
(541,20,cs),
(541,114,ls),
(541,136,o),
(528,149,o),
(506,149,cs),
(271,149,l),
(387,238,o),
(530,366,o),
(530,526,cs),
(530,649,o),
(456,746,o),
(290,746,cs),
(160,746,o),
(47,673,o),
(37,503,cs),
(37,497,o),
(41,493,o),
(47,493,cs),
(168,493,ls),
(190,493,o),
(201,505,o),
(205,527,cs),
(213,575,o),
(241,602,o),
(283,602,cs),
(335,602,o),
(359,568,o),
(359,515,cs),
(359,392,o),
(194,265,o),
(39,137,c)
);
}
);
width = 571;
}
);
note = two;
unicode = 50;
},
{
glyphname = three;
lastChange = "2022-10-20 10:32:57 +0000";
layers = (
{
layerId = m01;
shapes = (
{
closed = 1;
nodes = (
(186,524,ls),
(207,524,o),
(217,535,o),
(224,555,cs),
(234,582,o),
(256,604,o),
(296,604,cs),
(342,604,o),
(371,577,o),
(371,528,cs),
(371,462,o),
(315,448,o),
(257,448,cs),
(236,448,o),
(225,435,o),
(225,413,cs),
(225,344,ls),
(225,322,o),
(237,309,o),
(257,309,cs),
(346,309,o),
(385,283,o),
(385,218,cs),
(385,170,o),
(356,136,o),
(303,136,cs),
(253,136,o),
(223,160,o),
(212,199,cs),
(207,220,o),
(196,231,o),
(175,231,cs),
(52,231,ls),
(46,231,o),
(42,227,o),
(42,221,cs),
(52,63,o),
(160,-6,o),
(309,-6,cs),
(462,-6,o),
(550,82,o),
(550,205,cs),
(550,301,o),
(500,357,o),
(427,381,c),
(427,385,l),
(477,402,o),
(537,453,o),
(537,549,cs),
(537,659,o),
(454,747,o),
(300,747,cs),
(155,747,o),
(62,672,o),
(52,534,cs),
(51,528,o),
(55,524,o),
(61,524,cs)
);
}
);
width = 605;
}
);
note = three;
unicode = 51;
},
{
glyphname = four;
lastChange = "2022-10-20 10:33:13 +0000";
layers = (
{
layerId = m01;
shapes = (
{
closed = 1;
nodes = (
(385,10,ls),
(385,4,o),
(389,0,o),
(395,0,cs),
(546,0,ls),
(552,0,o),
(556,4,o),
(556,10,cs),
(556,130,l),
(628,130,ls),
(634,130,o),
(638,134,o),
(638,140,cs),
(638,268,ls),
(638,274,o),
(634,278,o),
(628,278,cs),
(591,278,ls),
(569,278,o),
(556,291,o),
(556,313,cs),
(556,710,ls),
(556,716,o),
(552,720,o),
(546,720,cs),
(365,720,l),
(49,268,l),
(49,130,l),
(385,130,l)
);
},
{
closed = 1;
nodes = (
(229,278,l),
(397,532,l),
(397,278,l)
);
}
);
width = 677;
}
);
note = four;
unicode = 52;
},
{
glyphname = five;
lastChange = "2022-10-20 10:33:50 +0000";
layers = (
{
layerId = m01;
shapes = (
{
closed = 1;
nodes = (
(102,731,ls),
(96,731,o),
(92,727,o),
(92,721,cs),
(92,296,l),
(257,296,l),
(266,330,o),
(294,356,o),
(342,356,cs),
(403,356,o),
(436,321,o),
(436,255,cs),
(436,192,o),
(408,145,o),
(343,145,cs),
(287,145,o),
(258,179,o),
(251,217,c),
(84,217,l),
(90,91,o),
(185,0,o),
(349,0,cs),
(511,0,o),
(601,100,o),
(601,254,cs),
(601,372,o),
(540,493,o),
(381,493,cs),
(323,493,o),
(273,472,o),
(247,443,c),
(247,581,l),
(524,581,ls),
(546,581,o),
(559,594,o),
(559,616,cs),
(559,721,ls),
(559,727,o),
(555,731,o),
(549,731,cs)
);
}
);
width = 650;
}
);
note = five;
unicode = 53;
},
{
glyphname = six;
layers = (
{
layerId = m01;
shapes = (
{
closed = 1;
nodes = (
(565,533,l),
(556,641,o),
(486,745,o),
(329,745,cs),
(140,745,o),
(62,620,o),
(62,370,cs),
(62,152,o),
(116,-4,o),
(336,-4,cs),
(493,-4,o),
(585,96,o),
(585,241,cs),
(585,393,o),
(495,476,o),
(368,476,cs),
(301,476,o),
(242,448,o),
(213,401,c),
(214,542,o),
(244,607,o),
(321,607,cs),
(372,607,o),
(396,581,o),
(406,533,c)
);
},
{
closed = 1;
nodes = (
(391,341,o),
(424,301,o),
(424,240,cs),
(424,178,o),
(387,141,o),
(329,141,cs),
(264,141,o),
(227,179,o),
(227,243,cs),
(227,309,o),
(273,341,o),
(327,341,cs)
);
}
);
width = 637;
}
);
note = six;
unicode = 54;
},
{
glyphname = seven;
lastChange = "2022-10-20 10:33:33 +0000";
layers = (
{
layerId = m01;
shapes = (
{
closed = 1;
nodes = (
(38,729,ls),
(32,729,o),
(28,725,o),
(28,719,cs),
(28,618,ls),
(28,596,o),
(41,583,o),
(63,583,cs),
(294,583,ls),
(320,583,o),
(331,566,o),
(321,542,cs),
(90,12,ls),
(87,5,o),
(91,0,o),
(98,0,cs),
(252,0,ls),
(257,0,o),
(261,2,o),
(263,8,cs),
(511,602,l),
(511,719,ls),
(511,725,o),
(507,729,o),
(501,729,cs)
);
}
);
width = 535;
}
);
note = seven;
unicode = 55;
},
{
glyphname = eight;
layers = (
{
layerId = m01;
shapes = (
{
closed = 1;
nodes = (
(95,359,o),
(54,297,o),
(54,214,cs),
(54,68,o),
(175,-14,o),
(324,-14,cs),
(473,-14,o),
(594,68,o),
(594,214,cs),
(594,297,o),
(553,358,o),
(482,392,c),
(537,421,o),
(576,474,o),
(576,549,cs),
(576,653,o),
(496,745,o),
(324,745,cs),
(152,745,o),
(71,653,o),
(71,549,cs),
(71,472,o),
(109,422,o),
(165,392,c)
);
},
{
closed = 1;
nodes = (
(275,438,o),
(238,469,o),
(238,522,cs),
(238,578,o),
(273,609,o),
(324,609,cs),
(375,609,o),
(410,578,o),
(410,523,cs),
(410,470,o),
(373,438,o),
(324,438,cs)
);
},
{
closed = 1;
nodes = (
(385,318,o),
(427,282,o),
(427,222,cs),
(427,168,o),
(389,126,o),
(324,126,cs),
(258,126,o),
(219,167,o),
(219,222,cs),
(219,284,o),
(263,318,o),
(324,318,cs)
);
}
);
width = 648;
}
);
note = eight;
unicode = 56;
},
{
glyphname = nine;
lastChange = "2022-10-20 10:34:03 +0000";
layers = (
{
layerId = m01;
shapes = (
{
closed = 1;
nodes = (
(81,214,ls),
(75,214,o),
(71,210,o),
(72,204,cs),
(84,96,o),
(161,-3,o),
(315,-3,cs),
(511,-3,o),
(569,135,o),
(569,384,cs),
(569,606,o),
(511,747,o),
(303,747,cs),
(148,747,o),
(52,651,o),
(52,503,cs),
(52,348,o),
(148,270,o),
(273,270,cs),
(335,270,o),
(389,294,o),
(418,335,c),
(418,196,o),
(393,135,o),
(321,135,cs),
(279,135,o),
(252,152,o),
(238,185,cs),
(230,204,o),
(218,214,o),
(198,214,cs)
);
},
{
closed = 1;
nodes = (
(245,405,o),
(213,446,o),
(213,501,cs),
(213,562,o),
(249,600,o),
(308,600,cs),
(366,600,o),
(404,565,o),
(404,500,cs),
(404,441,o),
(368,405,o),
(312,405,cs)
);
}
);
width = 615;
}
);
note = nine;
unicode = 57;
},
{
glyphname = colon;
layers = (
{
layerId = m01;
shapes = (
{
closed = 1;
nodes = (
(243,137,o),
(202,178,o),
(142,178,cs),
(81,178,o),
(40,137,o),
(40,84,cs),
(40,33,o),
(81,-8,o),
(142,-8,cs),
(202,-8,o),
(243,33,o),
(243,84,cs)
);
},
{
closed = 1;
nodes = (
(243,544,o),
(202,585,o),
(142,585,cs),
(81,585,o),
(40,544,o),
(40,491,cs),
(40,440,o),
(81,399,o),
(142,399,cs),
(202,399,o),
(243,440,o),
(243,491,cs)
);
}
);
width = 284;
}
);
note = colon;
unicode = 58;
},
{
glyphname = semicolon;
layers = (
{
layerId = m01;
shapes = (
{
closed = 1;
nodes = (
(272,536,o),
(231,577,o),
(171,577,cs),
(110,577,o),
(69,536,o),
(69,483,cs),
(69,432,o),
(110,391,o),
(171,391,cs),
(231,391,o),
(272,432,o),
(272,483,cs)
);
},
{
closed = 1;
nodes = (
(43,-151,l),
(155,-151,l),
(282,173,l),
(107,173,l)
);
}
);
width = 347;
}
);
note = semicolon;
unicode = 59;
},
{
glyphname = less;
layers = (
{
layerId = m01;
shapes = (
{
closed = 1;
nodes = (
(271,350,l),
(475,571,l),
(260,571,l),
(57,350,l),
(260,129,l),
(475,129,l)
);
}
);
width = 551;
}
);
note = less;
unicode = 60;
},
{
glyphname = equal;
layers = (
{
layerId = m01;
shapes = (
{
closed = 1;
nodes = (
(68,147,l),
(628,147,l),
(628,298,l),
(68,298,l)
);
},
{
closed = 1;
nodes = (
(68,402,l),
(628,402,l),
(628,553,l),
(68,553,l)
);
}
);
width = 696;
}
);
note = equal;
unicode = 61;
},
{
glyphname = greater;
layers = (
{
layerId = m01;
shapes = (
{
closed = 1;
nodes = (
(63,129,l),
(278,129,l),
(481,350,l),
(278,571,l),
(63,571,l),
(267,350,l)
);
}
);
width = 541;
}
);
note = greater;
unicode = 62;
},
{
glyphname = question;
layers = (
{
layerId = m01;
shapes = (
{
closed = 1;
nodes = (
(189,525,l),
(189,571,o),
(216,601,o),
(265,601,cs),
(309,601,o),
(337,573,o),
(337,528,cs),
(338,455,o),
(273,438,o),
(179,438,cs),
(119,438,l),
(124,252,l),
(274,252,l),
(279,327,l),
(410,328,o),
(503,398,o),
(503,527,cs),
(503,666,o),
(406,741,o),
(267,741,cs),
(109,741,o),
(25,645,o),
(28,525,c)
);
},
{
closed = 1;
nodes = (
(302,137,o),
(261,178,o),
(201,178,cs),
(140,178,o),
(99,137,o),
(99,84,cs),
(99,33,o),
(140,-8,o),
(201,-8,cs),
(261,-8,o),
(302,33,o),
(302,84,cs)
);
}
);
width = 538;
}
);
note = question;
unicode = 63;
},
{
glyphname = at;
layers = (
{
layerId = m01;
shapes = (
{
closed = 1;
nodes = (
(918,-5,o),
(1007,146,o),
(1007,313,cs),
(1007,523,o),
(858,668,o),
(618,668,cs),
(306,668,o),
(73,440,o),
(73,133,cs),
(73,-85,o),
(224,-225,o),
(454,-225,cs),
(534,-225,o),
(608,-211,o),
(674,-182,c),
(647,-73,l),
(597,-96,o),
(534,-109,o),
(470,-109,cs),
(301,-109,o),
(202,-15,o),
(202,146,cs),
(202,373,o),
(372,553,o),
(601,553,cs),
(776,553,o),
(877,460,o),
(877,308,cs),
(877,214,o),
(847,105,o),
(778,105,cs),
(739,105,o),
(734,135,o),
(742,181,cs),
(786,432,l),
(648,432,l),
(639,379,l),
(620,417,o),
(582,439,o),
(525,439,cs),
(388,439,o),
(293,305,o),
(293,159,cs),
(293,56,o),
(353,-7,o),
(452,-7,cs),
(522,-7,o),
(583,23,o),
(620,75,c),
(636,25,o),
(683,-5,o),
(754,-5,cs)
);
},
{
closed = 1;
nodes = (
(614,172,o),
(565,116,o),
(508,116,cs),
(463,116,o),
(441,146,o),
(441,189,cs),
(441,257,o),
(483,317,o),
(543,317,cs),
(588,317,o),
(614,285,o),
(614,240,cs)
);
}
);
width = 1080;
}
);
note = at;
unicode = 64;
},
{
glyphname = A;
lastChange = "2022-10-20 10:14:17 +0000";
layers = (
{
layerId = m01;
shapes = (
{
closed = 1;
nodes = (
(531,29,ls),
(537,10,o),
(551,0,o),
(571,0,cs),
(710,0,ls),
(717,0,o),
(720,4,o),
(718,11,cs),
(478,674,ls),
(471,693,o),
(458,702,o),
(438,702,cs),
(300,702,ls),
(280,702,o),
(267,693,o),
(260,674,cs),
(20,11,ls),
(18,4,o),
(21,0,o),
(28,0,cs),
(165,0,ls),
(185,0,o),
(199,10,o),
(205,29,cs),
(234,116,ls),
(236,121,o),
(241,124,o),
(246,124,cs),
(490,124,ls),
(495,124,o),
(500,121,o),
(502,116,cs)
);
},
{
closed = 1;
nodes = (
(451,267,ls),
(453,260,o),
(450,256,o),
(443,256,cs),
(294,256,ls),
(287,256,o),
(284,260,o),
(286,267,cs),
(362,494,ls),
(365,503,o),
(372,503,o),
(375,494,cs)
);
}
);
width = 737;
}
);
note = A;
unicode = 65;
},
{
glyphname = B;
lastChange = "2022-10-20 10:15:36 +0000";
layers = (
{
layerId = m01;
shapes = (
{
closed = 1;
nodes = (
(449,164,o),
(416,138,o),
(359,138,cs),
(233,138,l),
(233,258,ls),
(233,280,o),
(246,293,o),
(268,293,cs),
(357,293,ls),
(414,293,o),
(449,264,o),
(449,214,cs)
);
},
{
closed = 1;
nodes = (
(432,443,o),
(401,418,o),
(345,418,cs),
(233,418,l),
(233,530,ls),
(233,552,o),
(246,565,o),
(268,565,cs),
(345,565,ls),
(401,565,o),
(432,539,o),
(432,491,cs)
);
},
{
closed = 1;
nodes = (
(622,271,o),
(569,343,o),
(487,360,c),
(555,380,o),
(606,435,o),
(606,520,cs),
(606,631,o),
(521,702,o),
(378,702,cs),
(72,702,ls),
(66,702,o),
(62,698,o),
(62,692,cs),
(62,10,ls),
(62,4,o),
(66,0,o),
(72,0,cs),
(389,0,ls),
(537,0,o),
(622,75,o),
(622,191,cs)
);
}
);
width = 659;
}
);
note = B;
unicode = 66;
},
{
glyphname = C;
lastChange = "2022-10-20 10:16:24 +0000";
layers = (
{
layerId = m01;
shapes = (
{
closed = 1;
nodes = (
(33,142,o),
(179,-5,o),
(386,-5,cs),
(533,-5,o),
(648,67,o),
(701,188,cs),
(714,219,o),
(697,240,o),
(664,240,cs),
(539,240,ls),
(534,240,o),
(530,238,o),
(527,233,cs),
(498,178,o),
(446,150,o),
(384,150,cs),
(279,150,o),
(207,228,o),
(207,352,cs),
(207,476,o),
(279,554,o),
(384,554,cs),
(446,554,o),
(498,526,o),
(527,471,cs),
(530,466,o),
(534,464,o),
(539,464,cs),
(664,464,ls),
(697,464,o),
(714,485,o),
(701,516,cs),
(648,637,o),
(533,710,o),
(386,710,cs),
(179,710,o),
(33,562,o),
(33,352,cs)
);
}
);
width = 762;
}
);
note = C;
unicode = 67;
},
{
glyphname = D;
lastChange = "2022-10-20 10:16:55 +0000";
layers = (
{
layerId = m01;
shapes = (
{
closed = 1;
nodes = (
(77,702,ls),
(68,702,o),
(62,696,o),
(62,687,cs),
(62,15,ls),
(62,6,o),
(68,0,o),
(77,0,cs),
(325,0,ls),
(549,0,o),
(693,143,o),
(693,351,cs),
(693,560,o),
(549,702,o),
(325,702,cs)
);
},
{
closed = 1;
nodes = (
(233,148,l),
(233,521,ls),
(233,543,o),
(246,556,o),
(268,556,cs),
(314,556,ls),
(443,556,o),
(519,480,o),
(519,351,cs),
(519,222,o),
(443,148,o),
(314,148,cs)
);
}
);
width = 727;
}
);
note = D;
unicode = 68;
},
{
glyphname = E;
lastChange = "2022-10-20 10:17:32 +0000";
layers = (
{
layerId = m01;
shapes = (
{
closed = 1;
nodes = (
(492,687,ls),
(492,696,o),
(486,702,o),
(477,702,cs),
(77,702,ls),
(68,702,o),
(62,696,o),
(62,687,cs),
(62,15,ls),
(62,6,o),
(68,0,o),
(77,0,cs),
(477,0,ls),
(486,0,o),
(492,6,o),
(492,15,cs),
(492,102,ls),
(492,124,o),
(479,137,o),
(457,137,cs),
(268,137,ls),
(246,137,o),
(233,150,o),
(233,172,cs),
(233,276,ls),
(233,285,o),
(239,291,o),
(248,291,cs),
(447,291,ls),
(456,291,o),
(462,297,o),
(462,306,cs),
(462,408,ls),
(462,417,o),
(456,423,o),
(447,423,cs),
(248,423,ls),
(239,423,o),
(233,429,o),
(233,438,cs),
(233,530,ls),
(233,552,o),
(246,565,o),
(268,565,cs),
(457,565,ls),
(479,565,o),
(492,578,o),
(492,600,cs)
);
}
);
width = 541;
}
);
note = E;
unicode = 69;
},
{
glyphname = F;
lastChange = "2022-10-20 10:18:29 +0000";
layers = (
{
layerId = m01;
shapes = (
{
closed = 1;
nodes = (
(62,10,ls),
(62,4,o),
(66,0,o),
(72,0,cs),
(223,0,ls),
(229,0,o),
(233,4,o),
(233,10,cs),
(233,274,ls),
(233,280,o),
(237,284,o),
(243,284,cs),
(437,284,ls),
(443,284,o),
(447,288,o),
(447,294,cs),
(447,407,ls),
(447,413,o),
(443,417,o),
(437,417,cs),
(243,417,ls),
(237,417,o),
(233,421,o),
(233,427,cs),
(233,530,ls),
(233,552,o),
(246,565,o),
(268,565,cs),
(484,565,ls),
(506,565,o),
(519,578,o),
(519,600,cs),
(519,692,ls),
(519,698,o),
(515,702,o),
(509,702,cs),
(97,702,ls),
(75,702,o),
(62,689,o),
(62,667,cs)
);
}
);
width = 547;
}
);
note = F;
unicode = 70;
},
{
glyphname = G;
lastChange = "2022-10-20 10:19:33 +0000";
layers = (
{
layerId = m01;
shapes = (
{
closed = 1;
nodes = (
(180,710,o),
(33,562,o),
(33,352,cs),
(33,142,o),
(181,-5,o),
(391,-5,cs),
(576,-5,o),
(693,116,o),
(729,237,c),
(729,386,ls),
(729,392,o),
(725,396,o),
(719,396,cs),
(392,396,ls),
(370,396,o),
(357,383,o),
(357,361,cs),
(357,280,ls),
(357,274,o),
(361,270,o),
(367,270,cs),
(574,270,l),
(548,191,o),
(489,146,o),
(404,146,cs),
(281,146,o),
(207,222,o),
(207,352,cs),
(207,474,o),
(280,552,o),
(390,552,cs),
(443,552,o),
(485,535,o),
(513,502,cs),
(525,487,o),
(536,480,o),
(555,480,cs),
(705,480,ls),
(712,480,o),
(716,484,o),
(714,491,cs),
(674,628,o),
(554,710,o),
(390,710,cs)
);
}
);
width = 762;
}
);
note = G;
unicode = 71;
},
{
glyphname = H;
lastChange = "2022-10-20 10:20:21 +0000";
layers = (
{
layerId = m01;
shapes = (
{
closed = 1;
nodes = (
(499,35,ls),
(499,13,o),
(512,0,o),
(534,0,cs),
(660,0,ls),
(666,0,o),
(670,4,o),
(670,10,cs),
(670,692,ls),
(670,698,o),
(666,702,o),
(660,702,cs),
(509,702,ls),
(503,702,o),
(499,698,o),
(499,692,cs),
(499,462,ls),
(499,440,o),
(486,427,o),
(464,427,cs),
(243,427,ls),
(237,427,o),
(233,431,o),
(233,437,cs),
(233,667,ls),
(233,689,o),
(220,702,o),
(198,702,cs),
(72,702,ls),
(66,702,o),
(62,698,o),
(62,692,cs),
(62,10,ls),
(62,4,o),
(66,0,o),
(72,0,cs),
(223,0,ls),
(229,0,o),
(233,4,o),
(233,10,cs),
(233,254,ls),
(233,276,o),
(246,289,o),
(268,289,cs),
(489,289,ls),
(495,289,o),
(499,285,o),
(499,279,cs)
);
}
);
width = 731;
}
);
note = H;
unicode = 72;
},
{
glyphname = I;
lastChange = "2022-10-20 10:20:51 +0000";
layers = (
{
layerId = m01;
shapes = (
{
closed = 1;
nodes = (
(62,10,ls),
(62,4,o),
(66,0,o),
(72,0,cs),
(223,0,ls),
(229,0,o),
(233,4,o),
(233,10,cs),
(233,667,ls),
(233,689,o),
(220,702,o),
(198,702,cs),
(72,702,ls),
(66,702,o),
(62,698,o),
(62,692,cs)
);
}
);
width = 295;
}
);
note = I;
unicode = 73;
},
{
glyphname = J;
lastChange = "2022-10-20 10:21:16 +0000";
layers = (
{
layerId = m01;
shapes = (
{
closed = 1;
nodes = (
(331,224,ls),
(331,172,o),
(307,146,o),
(266,146,cs),
(231,146,o),
(208,164,o),
(199,201,cs),
(194,223,o),
(185,235,o),
(163,235,cs),
(36,235,ls),
(30,235,o),
(26,231,o),
(26,225,cs),
(30,73,o),
(130,-7,o),
(271,-7,cs),
(410,-7,o),
(502,73,o),
(502,224,cs),
(502,692,ls),
(502,698,o),
(498,702,o),
(492,702,cs),
(366,702,ls),
(344,702,o),
(331,689,o),
(331,667,cs)
);
}
);
width = 578;
}
);
note = J;
unicode = 74;
},
{
glyphname = K;
lastChange = "2022-10-20 10:21:56 +0000";
layers = (
{
layerId = m01;
shapes = (
{
closed = 1;
nodes = (
(464,6,l),
(467,1,o),
(472,0,o),
(477,0,cs),
(662,0,ls),
(670,0,o),
(673,5,o),
(668,12,cs),
(404,347,ls),
(399,354,o),
(399,362,o),
(404,369,cs),
(658,690,ls),
(663,697,o),
(660,702,o),
(652,702,cs),
(475,702,ls),
(470,702,o),
(465,701,o),
(462,696,c),
(251,418,ls),
(243,407,o),
(233,410,o),
(233,424,cs),
(233,667,ls),
(233,689,o),
(220,702,o),
(198,702,cs),
(72,702,ls),
(66,702,o),
(62,698,o),
(62,692,cs),
(62,35,ls),
(62,13,o),
(75,0,o),
(97,0,cs),
(223,0,ls),
(229,0,o),
(233,4,o),
(233,10,cs),
(233,280,ls),
(233,294,o),
(243,297,o),
(251,286,cs)
);
}
);
width = 697;
}
);
note = K;
unicode = 75;
},
{
glyphname = L;
lastChange = "2022-10-20 10:22:52 +0000";
layers = (
{
layerId = m01;
shapes = (
{
closed = 1;
nodes = (
(72,702,ls),
(66,702,o),
(62,698,o),
(62,692,cs),
(62,10,ls),
(62,4,o),
(66,0,o),
(72,0,cs),
(422,0,ls),
(444,0,o),
(457,13,o),
(457,35,cs),
(457,122,ls),
(457,128,o),
(453,132,o),
(447,132,cs),
(268,132,ls),
(246,132,o),
(233,145,o),
(233,167,cs),
(233,667,ls),
(233,689,o),
(220,702,o),
(198,702,cs)
);
}
);
width = 477;
}
);
note = L;
unicode = 76;
},
{
glyphname = M;
lastChange = "2022-10-20 10:23:24 +0000";
layers = (
{
layerId = m01;
shapes = (
{
closed = 1;
nodes = (
(62,10,ls),
(62,4,o),
(66,0,o),
(72,0,cs),
(198,0,ls),
(220,0,o),
(233,13,o),
(233,35,cs),
(233,389,ls),
(233,398,o),
(241,401,o),
(244,392,cs),
(381,28,ls),
(388,9,o),
(401,0,o),
(421,0,cs),
(499,0,ls),
(519,0,o),
(532,9,o),
(539,28,cs),
(675,390,ls),
(678,399,o),
(686,397,o),
(686,388,cs),
(686,35,ls),
(686,13,o),
(699,0,o),
(721,0,cs),
(847,0,ls),
(853,0,o),
(857,4,o),
(857,10,cs),
(857,692,ls),
(857,698,o),
(853,702,o),
(847,702,cs),
(685,702,ls),
(665,702,o),
(652,694,o),
(645,675,cs),
(468,232,ls),
(465,224,o),
(457,224,o),
(454,232,cs),
(275,675,ls),
(268,693,o),
(255,702,o),
(235,702,cs),
(72,702,ls),
(66,702,o),
(62,698,o),
(62,692,cs)
);
}
);
width = 918;
}
);
note = M;
unicode = 77;
},
{
glyphname = N;
lastChange = "2022-10-20 10:24:24 +0000";
layers = (
{
layerId = m01;
shapes = (
{
closed = 1;
nodes = (
(529,702,ls),
(523,702,o),
(519,698,o),
(519,692,cs),
(519,289,ls),
(519,280,o),
(512,278,o),
(507,286,cs),
(233,702,l),
(72,702,ls),
(66,702,o),
(62,698,o),
(62,692,cs),
(62,35,ls),
(62,13,o),
(75,0,o),
(97,0,cs),
(223,0,ls),
(229,0,o),
(233,4,o),
(233,10,cs),
(233,411,ls),
(233,420,o),
(240,423,o),
(245,415,cs),
(519,0,l),
(680,0,ls),
(686,0,o),
(690,4,o),
(690,10,cs),
(690,667,ls),
(690,689,o),
(677,702,o),
(655,702,cs)
);
}
);
width = 752;
}
);
note = N;
unicode = 78;
},
{
glyphname = O;
layers = (
{
layerId = m01;
shapes = (
{
closed = 1;
nodes = (
(753,564,o),
(594,712,o),
(394,712,cs),
(195,712,o),
(33,564,o),
(33,353,cs),
(33,142,o),
(195,-7,o),
(394,-7,cs),
(593,-7,o),
(753,142,o),
(753,353,cs)
);
},
{
closed = 1;
nodes = (
(208,478,o),
(280,557,o),
(394,557,cs),
(506,557,o),
(579,478,o),
(579,353,cs),
(579,230,o),
(506,149,o),
(394,149,cs),
(280,149,o),
(208,230,o),
(208,353,cs)
);
}
);
width = 786;
}
);
note = O;
unicode = 79;
},
{
glyphname = P;
lastChange = "2022-10-20 10:24:58 +0000";
layers = (
{
layerId = m01;
shapes = (
{
closed = 1;
nodes = (
(233,388,l),
(233,529,ls),
(233,551,o),
(246,564,o),
(268,564,cs),
(326,564,ls),
(394,564,o),
(423,530,o),
(423,476,cs),
(423,422,o),
(394,388,o),
(326,388,cs)
);
},
{
closed = 1;
nodes = (
(597,605,o),
(511,702,o),
(339,702,cs),
(72,702,ls),
(66,702,o),
(62,698,o),
(62,692,cs),
(62,10,ls),
(62,4,o),
(66,0,o),
(72,0,cs),
(198,0,ls),
(220,0,o),
(233,13,o),
(233,35,cs),
(233,252,l),
(339,252,ls),
(518,252,o),
(597,360,o),
(597,476,cs)
);
}
);
width = 624;
}
);
note = P;
unicode = 80;
},
{
glyphname = Q;
lastChange = "2022-10-20 10:25:31 +0000";
layers = (
{
layerId = m01;
shapes = (
{
closed = 1;
nodes = (
(208,478,o),
(280,557,o),
(394,557,cs),
(506,557,o),
(579,478,o),
(579,353,cs),
(579,230,o),
(506,149,o),
(394,149,cs),
(280,149,o),
(208,230,o),
(208,353,cs)
);
},
{
closed = 1;
nodes = (
(753,564,o),
(594,712,o),
(394,712,cs),
(195,712,o),
(33,564,o),
(33,353,cs),
(33,142,o),
(195,-7,o),
(394,-7,cs),
(421,-7,o),
(447,-4,o),
(472,1,c),
(557,-114,ls),
(560,-119,o),
(565,-120,o),
(570,-120,cs),
(753,-120,ls),
(761,-120,o),
(764,-114,o),
(759,-108,cs),
(615,65,l),
(699,129,o),
(753,230,o),
(753,353,cs)
);
}
);
width = 788;
}
);
note = Q;
unicode = 81;
},
{
glyphname = R;
lastChange = "2022-10-20 10:26:16 +0000";
layers = (
{
layerId = m01;
shapes = (
{
closed = 1;
nodes = (
(433,419,o),
(403,386,o),
(339,386,cs),
(233,386,l),
(233,525,ls),
(233,547,o),
(246,560,o),
(268,560,cs),
(339,560,ls),
(403,560,o),
(433,526,o),
(433,474,cs)
);
},
{
closed = 1;
nodes = (
(97,702,ls),
(75,702,o),
(62,689,o),
(62,667,cs),
(62,10,ls),
(62,4,o),
(66,0,o),
(72,0,cs),
(223,0,ls),
(229,0,o),
(233,4,o),
(233,10,cs),
(233,265,l),
(274,265,l),
(406,25,ls),
(415,8,o),
(429,0,o),
(448,0,cs),
(599,0,ls),
(607,0,o),
(610,5,o),
(606,12,cs),
(451,278,l),
(559,310,o),
(607,393,o),
(607,481,cs),
(607,603,o),
(521,702,o),
(349,702,cs)
);
}
);
width = 652;
}
);
note = R;
unicode = 82;
},
{
glyphname = S;
lastChange = "2022-10-20 10:26:57 +0000";
layers = (
{
layerId = m01;
shapes = (
{
closed = 1;
nodes = (
(572,444,o),
(225,389,o),
(225,511,cs),
(225,555,o),
(256,576,o),
(297,575,cs),
(332,574,o),
(358,559,o),
(371,532,cs),
(379,513,o),
(388,502,o),
(409,502,cs),
(553,502,ls),
(559,502,o),
(563,506,o),
(562,512,cs),
(551,640,o),
(449,712,o),
(300,712,cs),
(153,712,o),
(44,638,o),
(44,505,cs),
(42,256,o),
(393,326,o),
(393,196,cs),
(393,155,o),
(361,130,o),
(311,130,cs),
(273,130,o),
(244,146,o),
(231,179,cs),
(223,199,o),
(214,210,o),
(193,210,cs),
(52,210,ls),
(46,210,o),
(42,206,o),
(43,200,cs),
(53,64,o),
(169,-7,o),
(316,-7,cs),
(480,-7,o),
(572,91,o),
(572,209,cs)
);
}
);
width = 615;
}
);
note = S;
unicode = 83;
},
{
glyphname = T;
lastChange = "2022-10-20 10:27:49 +0000";
layers = (
{
layerId = m01;
shapes = (
{
closed = 1;
nodes = (
(24,575,ls),
(24,569,o),
(28,565,o),
(34,565,cs),
(175,565,ls),
(197,565,o),
(210,552,o),
(210,530,cs),
(210,10,ls),
(210,4,o),
(214,0,o),
(220,0,cs),
(371,0,ls),
(377,0,o),
(381,4,o),
(381,10,cs),
(381,530,ls),
(381,552,o),
(394,565,o),
(416,565,cs),
(557,565,ls),
(563,565,o),
(567,569,o),
(567,575,cs),
(567,692,ls),
(567,698,o),
(563,702,o),
(557,702,cs),
(34,702,ls),
(28,702,o),
(24,698,o),
(24,692,cs)
);
}
);
width = 591;
}
);
note = T;
unicode = 84;
},
{
glyphname = U;
lastChange = "2022-10-20 10:28:24 +0000";
layers = (
{
layerId = m01;
shapes = (
{
closed = 1;
nodes = (
(59,283,ls),
(59,89,o),
(186,-7,o),
(349,-7,cs),
(511,-7,o),
(647,89,o),
(647,283,cs),
(647,692,ls),
(647,698,o),
(643,702,o),
(637,702,cs),
(511,702,ls),
(489,702,o),
(476,689,o),
(476,667,cs),
(476,282,ls),
(476,199,o),
(433,151,o),
(352,151,cs),
(271,151,o),
(230,199,o),
(230,282,cs),
(230,667,ls),
(230,689,o),
(217,702,o),
(195,702,cs),
(69,702,ls),
(63,702,o),
(59,698,o),
(59,692,cs)
);
}
);
width = 705;
}
);
note = U;
unicode = 85;
},
{
glyphname = V;
lastChange = "2022-10-20 10:28:59 +0000";
layers = (
{
layerId = m01;
shapes = (
{
closed = 1;
nodes = (
(371,192,ls),
(368,183,o),
(362,183,o),
(359,192,cs),
(200,673,ls),
(194,692,o),
(181,702,o),
(161,702,cs),
(21,702,ls),
(14,702,o),
(11,698,o),
(13,691,cs),
(248,28,ls),
(255,8,o),
(268,0,o),
(288,0,cs),
(442,0,ls),
(462,0,o),
(475,8,o),
(482,28,cs),
(717,691,ls),
(719,698,o),
(716,702,o),
(709,702,cs),
(570,702,ls),
(550,702,o),
(537,692,o),
(531,673,cs)
);
}
);
width = 730;
}
);
note = V;
unicode = 86;
},
{
glyphname = W;
lastChange = "2022-10-20 10:29:41 +0000";
layers = (
{
layerId = m01;
shapes = (
{
closed = 1;
nodes = (
(195,30,ls),
(200,9,o),
(213,0,o),
(234,0,cs),
(379,0,ls),
(400,0,o),
(413,9,o),
(418,30,cs),
(520,437,ls),
(522,447,o),
(530,446,o),
(532,437,cs),
(631,30,ls),
(636,9,o),
(648,0,o),
(669,0,cs),
(814,0,ls),
(835,0,o),
(848,9,o),
(853,30,cs),
(1025,691,ls),
(1027,698,o),
(1023,702,o),
(1016,702,cs),
(876,702,ls),
(855,702,o),
(842,691,o),
(838,671,cs),
(748,219,ls),
(746,210,o),
(738,210,o),
(736,219,cs),
(629,671,ls),
(624,691,o),
(612,702,o),
(591,702,cs),
(465,702,ls),
(444,702,o),
(432,693,o),
(427,672,cs),
(316,218,ls),
(314,209,o),
(306,209,o),
(304,218,cs),
(214,671,ls),
(210,692,o),
(197,702,o),
(176,702,cs),
(36,702,ls),
(29,702,o),
(26,698,o),
(28,691,cs)
);
}
);
width = 1052;
}
);
note = W;
unicode = 87;
},
{
glyphname = X;
lastChange = "2022-10-20 10:30:16 +0000";
layers = (
{
layerId = m01;
shapes = (
{
closed = 1;
nodes = (
(488,6,ls),
(491,2,o),
(495,0,o),
(500,0,cs),
(676,0,ls),
(684,0,o),
(687,6,o),
(683,12,cs),
(466,338,ls),
(461,345,o),
(462,351,o),
(466,358,cs),
(674,690,ls),
(678,697,o),
(676,702,o),
(668,702,cs),
(496,702,ls),
(491,702,o),
(487,699,o),
(484,695,cs),
(374,507,ls),
(368,497,o),
(359,496,o),
(353,506,cs),
(227,696,ls),
(224,700,o),
(220,702,o),
(215,702,cs),
(39,702,ls),
(31,702,o),
(28,696,o),
(32,690,cs),
(247,367,ls),
(252,360,o),
(251,354,o),
(247,347,cs),
(37,12,ls),
(33,5,o),
(35,0,o),
(43,0,cs),
(215,0,ls),
(220,0,o),
(224,3,o),
(227,7,cs),
(339,198,ls),
(345,208,o),
(354,209,o),
(360,199,cs)
);
}
);
width = 715;
}
);
note = X;
unicode = 88;
},
{
glyphname = Y;
lastChange = "2022-10-20 10:30:54 +0000";
layers = (
{
layerId = m01;
shapes = (
{
closed = 1;
nodes = (
(250,232,l),
(250,10,ls),
(250,4,o),
(254,0,o),
(260,0,cs),
(411,0,ls),
(417,0,o),
(421,4,o),
(421,10,cs),
(421,232,l),
(658,690,ls),
(661,697,o),
(658,702,o),
(651,702,cs),
(501,702,ls),
(482,702,o),
(468,694,o),
(460,676,cs),
(344,423,ls),
(341,415,o),
(333,416,o),
(330,423,cs),
(213,676,ls),
(205,694,o),
(191,702,o),
(172,702,cs),
(20,702,ls),
(13,702,o),
(10,697,o),
(13,690,cs)
);
}
);
width = 671;
}
);
note = Y;
unicode = 89;
},
{
glyphname = Z;
lastChange = "2022-10-20 10:31:30 +0000";
layers = (
{
layerId = m01;
shapes = (
{
closed = 1;
nodes = (
(546,692,ls),
(546,698,o),
(542,702,o),
(536,702,cs),
(60,702,ls),
(54,702,o),
(50,698,o),
(50,692,cs),
(50,597,ls),
(50,575,o),
(63,562,o),
(85,562,cs),
(335,562,ls),
(343,562,o),
(346,556,o),
(342,550,cs),
(50,130,l),
(50,0,l),
(536,0,ls),
(542,0,o),
(546,4,o),
(546,10,cs),
(546,105,ls),
(546,127,o),
(533,140,o),
(511,140,cs),
(259,140,ls),
(251,140,o),
(247,146,o),
(252,152,cs),
(546,572,l)
);
}
);
width = 596;
}
);
note = Z;
unicode = 90;
},
{
glyphname = bracketleft;
layers = (
{
layerId = m01;
shapes = (
{
closed = 1;
nodes = (
(120,-209,l),
(420,-209,l),
(420,-70,l),
(280,-70,l),
(280,775,l),
(420,775,l),
(420,913,l),
(120,913,l)
);
}
);
width = 510;
}
);
note = bracketleft;
unicode = 91;
},
{
glyphname = backslash;
layers = (
{
layerId = m01;
shapes = (
{
closed = 1;
nodes = (
(348,950,l),
(183,950,l),
(451,-187,l),
(616,-187,l)
);
}
);
width = 802;
}
);
note = backslash;
unicode = 92;
},
{
glyphname = bracketright;
layers = (
{
layerId = m01;
shapes = (
{
closed = 1;
nodes = (
(390,-209,l),
(90,-209,l),
(90,-70,l),
(230,-70,l),
(230,775,l),
(90,775,l),
(90,913,l),
(390,913,l)
);
}
);
width = 510;
}
);
note = bracketright;
unicode = 93;
},
{
glyphname = asciicircum;
layers = (
{
layerId = m01;
shapes = (
{
closed = 1;
nodes = (
(507,165,l),
(679,165,l),
(438,704,l),
(272,704,l),
(30,165,l),
(202,165,l),
(355,506,l)
);
}
);
width = 709;
}
);
note = asciicircum;
unicode = 94;
},
{
glyphname = underscore;
layers = (
{
layerId = m01;
shapes = (
{
closed = 1;
nodes = (
(85,-205,l),
(705,-205,l),
(705,-41,l),
(85,-41,l)
);
}
);
width = 780;
}
);
note = underscore;
unicode = 95;
},
{
glyphname = grave;
layers = (
{
layerId = m01;
shapes = (
{
closed = 1;
nodes = (
(10,697,l),
(251,596,l),
(251,714,l),
(10,830,l)
);
}
);
width = 291;
}
);
note = grave;
unicode = 96;
},
{
glyphname = a;
lastChange = "2022-10-20 10:14:36 +0000";
layers = (
{
layerId = m01;
shapes = (
{
closed = 1;
nodes = (
(28,104,o),
(137,-8,o),
(273,-8,cs),
(356,-8,o),
(415,30,o),
(446,79,c),
(446,35,ls),
(446,13,o),
(459,0,o),
(481,0,cs),
(607,0,ls),
(613,0,o),
(617,4,o),
(617,10,cs),
(617,523,ls),
(617,545,o),
(604,558,o),
(582,558,cs),
(456,558,ls),
(450,558,o),
(446,554,o),
(446,548,cs),
(446,479,l),
(416,528,o),
(357,566,o),
(274,566,cs),
(137,566,o),
(28,456,o),
(28,280,cs)
);
},
{
closed = 1;
nodes = (
(433,190,o),
(376,141,o),
(311,141,cs),
(247,141,o),
(189,191,o),
(189,280,cs),
(189,369,o),
(247,417,o),
(311,417,cs),
(376,417,o),
(433,368,o),
(433,279,cs)
);
}
);
width = 679;
}
);
note = a;
unicode = 97;
},
{
glyphname = b;
lastChange = "2022-10-20 10:16:11 +0000";
layers = (
{
layerId = m01;
shapes = (
{
closed = 1;
nodes = (
(233,730,ls),
(233,736,o),
(229,740,o),
(223,740,cs),
(97,740,ls),
(75,740,o),
(62,727,o),
(62,705,cs),
(62,10,ls),
(62,4,o),
(66,0,o),
(72,0,cs),
(198,0,ls),
(220,0,o),
(233,13,o),
(233,35,cs),
(233,78,l),
(264,29,o),
(323,-8,o),
(405,-8,cs),
(542,-8,o),
(651,104,o),
(651,280,cs),
(651,456,o),
(543,566,o),
(405,566,cs),
(325,566,o),
(264,529,o),
(233,479,c)
);
},
{
closed = 1;
nodes = (
(504,191,o),
(446,141,o),
(381,141,cs),
(317,141,o),
(259,190,o),
(259,279,cs),
(259,368,o),
(317,417,o),
(381,417,cs),
(446,417,o),
(504,369,o),
(504,280,cs)
);
}
);
width = 679;
}
);
note = b;
unicode = 98;
},
{
glyphname = c;
lastChange = "2022-10-20 10:16:42 +0000";
layers = (
{
layerId = m01;
shapes = (
{
closed = 1;
nodes = (
(28,102,o),
(144,-8,o),
(308,-8,cs),
(433,-8,o),
(525,57,o),
(564,162,cs),
(573,186,o),
(560,202,o),
(535,202,cs),
(402,202,ls),
(397,202,o),
(393,200,o),
(391,194,cs),
(375,158,o),
(349,138,o),
(305,138,cs),
(244,138,o),
(202,186,o),
(202,279,cs),
(202,372,o),
(244,420,o),
(305,420,cs),
(349,420,o),
(376,398,o),
(391,364,cs),
(393,359,o),
(397,356,o),
(402,356,cs),
(535,356,ls),
(560,356,o),
(573,371,o),
(565,396,cs),
(526,504,o),
(433,566,o),
(308,566,cs),
(144,566,o),
(28,455,o),
(28,279,cs)
);
}
);
width = 605;
}
);
note = c;
unicode = 99;
},
{
glyphname = d;
lastChange = "2022-10-20 10:17:12 +0000";
layers = (
{
layerId = m01;
shapes = (
{
closed = 1;
nodes = (
(28,104,o),
(137,-8,o),
(274,-8,cs),
(356,-8,o),
(415,29,o),
(446,80,c),
(446,35,ls),
(446,13,o),
(459,0,o),
(481,0,cs),
(607,0,ls),
(613,0,o),
(617,4,o),
(617,10,cs),
(617,705,ls),
(617,727,o),
(604,740,o),
(582,740,cs),
(456,740,ls),
(450,740,o),
(446,736,o),
(446,730,cs),
(446,481,l),
(412,532,o),
(348,566,o),
(274,566,cs),
(137,566,o),
(28,456,o),
(28,280,cs)
);
},
{
closed = 1;
nodes = (
(446,190,o),
(389,141,o),
(324,141,cs),
(260,141,o),
(202,191,o),
(202,280,cs),
(202,369,o),
(260,417,o),
(324,417,cs),
(389,417,o),
(446,368,o),
(446,279,cs)
);
}
);
width = 679;
}
);
note = d;
unicode = 100;
},
{
glyphname = e;
lastChange = "2022-10-20 10:17:48 +0000";
layers = (
{
layerId = m01;
shapes = (
{
closed = 1;
nodes = (
(360,429,o),
(404,400,o),
(412,349,cs),
(413,339,o),
(407,333,o),
(397,333,cs),
(216,333,ls),
(206,333,o),
(200,339,o),
(203,350,cs),
(217,401,o),
(257,429,o),
(308,429,cs)
);
},
{
closed = 1;
nodes = (
(401,185,ls),
(396,185,o),
(392,183,o),
(389,178,cs),
(374,151,o),
(348,131,o),
(304,131,cs),
(249,131,o),
(204,165,o),
(198,238,c),
(585,238,l),
(587,255,o),
(588,272,o),
(588,288,cs),
(588,458,o),
(473,566,o),
(310,566,cs),
(144,566,o),
(28,456,o),
(28,279,cs),
(28,102,o),
(146,-8,o),
(310,-8,cs),
(431,-8,o),
(522,56,o),
(561,145,cs),
(572,169,o),
(558,185,o),
(533,185,cs)
);
}
);
width = 616;
}
);
note = e;
unicode = 101;
},
{
glyphname = f;
lastChange = "2022-10-20 10:19:09 +0000";
layers = (
{
layerId = m01;
shapes = (
{
closed = 1;
nodes = (
(79,10,ls),
(79,4,o),
(83,0,o),
(89,0,cs),
(240,0,ls),
(246,0,o),
(250,4,o),
(250,10,cs),
(250,406,ls),
(250,412,o),
(254,416,o),
(260,416,cs),
(332,416,ls),
(338,416,o),
(342,420,o),
(342,426,cs),
(342,548,ls),
(342,554,o),
(338,558,o),
(332,558,cs),
(260,558,ls),
(251,558,o),
(250,560,o),
(250,563,cs),
(250,610,o),
(265,632,o),
(304,637,cs),
(327,640,o),
(339,651,o),
(339,673,cs),
(339,773,ls),
(339,779,o),
(336,783,o),
(329,783,cs),
(165,789,o),
(79,717,o),
(79,574,cs),
(79,568,ls),
(79,562,o),
(75,558,o),
(69,558,cs),
(27,558,ls),
(21,558,o),
(17,554,o),
(17,548,cs),
(17,426,ls),
(17,420,o),
(21,416,o),
(27,416,cs),
(44,416,ls),
(66,416,o),
(79,403,o),
(79,381,cs)
);
}
);
width = 360;
}
);
note = f;
unicode = 102;
},
{
glyphname = g;
lastChange = "2022-10-20 10:20:00 +0000";
layers = (
{
layerId = m01;
shapes = (
{
closed = 1;
nodes = (
(28,104,o),
(137,-8,o),
(274,-8,cs),
(356,-8,o),
(415,31,o),
(446,80,c),
(446,1,ls),
(446,-93,o),
(395,-127,o),
(330,-127,cs),
(284,-127,o),
(249,-111,o),
(230,-84,cs),
(219,-67,o),
(208,-58,o),
(189,-58,cs),
(60,-58,ls),
(54,-58,o),
(49,-62,o),
(50,-69,cs),
(70,-195,o),
(176,-275,o),
(338,-275,cs),
(531,-275,o),
(617,-148,o),
(617,1,cs),
(617,548,ls),
(617,554,o),
(613,558,o),
(607,558,cs),
(481,558,ls),
(459,558,o),
(446,545,o),
(446,523,cs),
(446,479,l),
(416,529,o),
(356,566,o),
(274,566,cs),
(137,566,o),
(28,456,o),
(28,280,cs)
);
},
{
closed = 1;
nodes = (
(426,190,o),
(369,141,o),
(304,141,cs),
(240,141,o),
(182,191,o),
(182,280,cs),
(182,369,o),
(240,417,o),
(304,417,cs),
(369,417,o),
(426,368,o),
(426,279,cs)
);
}
);
width = 679;
}
);
note = g;
unicode = 103;
},
{
glyphname = h;
lastChange = "2022-10-20 10:20:36 +0000";
layers = (
{
layerId = m01;
shapes = (
{
closed = 1;
nodes = (
(62,10,ls),
(62,4,o),
(66,0,o),
(72,0,cs),
(223,0,ls),
(229,0,o),
(233,4,o),
(233,10,cs),
(233,303,ls),
(233,379,o),
(275,421,o),
(340,421,cs),
(405,421,o),
(447,379,o),
(447,303,cs),
(447,35,ls),
(447,13,o),
(460,0,o),
(482,0,cs),
(607,0,ls),
(613,0,o),
(617,4,o),
(617,10,cs),
(617,326,ls),
(617,476,o),
(532,564,o),
(405,564,cs),
(328,564,o),
(267,531,o),
(233,483,c),
(233,705,ls),
(233,727,o),
(220,740,o),
(198,740,cs),
(72,740,ls),
(66,740,o),
(62,736,o),
(62,730,cs)
);
}
);
width = 674;
}
);
note = h;
unicode = 104;
},
{
glyphname = i;
lastChange = "2022-10-20 10:21:04 +0000";
layers = (
{
layerId = m01;
shapes = (
{
closed = 1;
nodes = (
(62,35,ls),
(62,13,o),
(75,0,o),
(97,0,cs),
(223,0,ls),
(229,0,o),
(233,4,o),
(233,10,cs),
(233,523,ls),
(233,545,o),
(220,558,o),
(198,558,cs),
(72,558,ls),
(66,558,o),
(62,554,o),
(62,548,cs)
);
},
{
closed = 1;
nodes = (
(208,616,o),
(249,657,o),
(249,708,cs),
(249,760,o),
(208,801,o),
(148,801,cs),
(87,801,o),
(46,760,o),
(46,708,cs),
(46,657,o),
(87,616,o),
(148,616,cs)
);
}
);
width = 295;
}
);
note = i;
unicode = 105;
},
{
glyphname = j;
lastChange = "2022-10-20 10:21:31 +0000";
layers = (
{
layerId = m01;
shapes = (
{
closed = 1;
nodes = (
(207,616,o),
(248,657,o),
(248,708,cs),
(248,760,o),
(207,801,o),
(147,801,cs),
(86,801,o),
(45,760,o),
(45,708,cs),
(45,657,o),
(86,616,o),
(147,616,cs)
);
},
{
closed = 1;
nodes = (
(72,558,ls),
(66,558,o),
(62,554,o),
(62,548,cs),
(62,-74,ls),
(62,-107,o),
(48,-121,o),
(10,-121,cs),
(4,-121,ls),
(-18,-121,o),
(-31,-134,o),
(-31,-156,cs),
(-31,-256,ls),
(-31,-262,o),
(-27,-266,o),
(-21,-266,cs),
(36,-266,ls),
(152,-266,o),
(233,-217,o),
(233,-72,cs),
(233,523,ls),
(233,545,o),
(220,558,o),
(198,558,cs)
);
}
);
width = 294;
}
);
note = j;
unicode = 106;
},
{
glyphname = k;
lastChange = "2022-10-20 10:22:15 +0000";
layers = (
{
layerId = m01;
shapes = (
{
closed = 1;
nodes = (
(62,35,ls),
(62,13,o),
(75,0,o),
(97,0,cs),
(223,0,ls),
(229,0,o),
(233,4,o),
(233,10,cs),
(233,203,ls),
(233,217,o),
(243,221,o),
(251,209,cs),
(399,6,ls),
(402,1,o),
(406,0,o),
(411,0,cs),
(599,0,ls),
(607,0,o),
(610,6,o),
(605,12,cs),
(390,267,ls),
(384,274,o),
(384,282,o),
(390,289,cs),
(603,546,ls),
(608,553,o),
(605,558,o),
(597,558,cs),
(410,558,ls),
(405,558,o),
(400,557,o),
(397,552,cs),
(251,356,ls),
(243,345,o),
(233,348,o),
(233,362,cs),
(233,705,ls),
(233,727,o),
(220,740,o),
(198,740,cs),
(72,740,ls),
(66,740,o),
(62,736,o),
(62,730,cs)
);
}
);
width = 618;
}
);
note = k;
unicode = 107;
},
{
glyphname = l;
lastChange = "2022-10-20 10:23:02 +0000";
layers = (
{
layerId = m01;
shapes = (
{
closed = 1;
nodes = (
(62,35,ls),
(62,13,o),
(75,0,o),
(97,0,cs),
(223,0,ls),
(229,0,o),
(233,4,o),
(233,10,cs),
(233,705,ls),
(233,727,o),
(220,740,o),
(198,740,cs),
(72,740,ls),
(66,740,o),
(62,736,o),
(62,730,cs)
);
}
);
width = 295;
}
);
note = l;
unicode = 108;
},
{
glyphname = m;
lastChange = "2022-10-20 10:23:47 +0000";
layers = (
{
layerId = m01;
shapes = (
{
closed = 1;
nodes = (
(831,35,ls),
(831,13,o),
(844,0,o),
(866,0,cs),
(991,0,ls),
(997,0,o),
(1001,4,o),
(1001,10,cs),
(1001,326,ls),
(1001,476,o),
(912,564,o),
(774,564,cs),
(693,564,o),
(623,519,o),
(586,460,c),
(548,527,o),
(480,564,o),
(396,564,cs),
(323,564,o),
(266,533,o),
(233,488,c),
(233,523,ls),
(233,545,o),
(220,558,o),
(198,558,cs),
(72,558,ls),
(66,558,o),
(62,554,o),
(62,548,cs),
(62,10,ls),
(62,4,o),
(66,0,o),
(72,0,cs),
(223,0,ls),
(229,0,o),
(233,4,o),
(233,10,cs),
(233,303,ls),
(233,376,o),
(275,416,o),
(340,416,cs),
(405,416,o),
(447,376,o),
(447,303,cs),
(447,35,ls),
(447,13,o),
(460,0,o),
(482,0,cs),
(607,0,ls),
(613,0,o),
(617,4,o),
(617,10,cs),
(617,303,ls),
(617,376,o),
(659,416,o),
(724,416,cs),
(789,416,o),
(831,376,o),
(831,303,cs)
);
}
);
width = 1059;
}
);
note = m;
unicode = 109;
},
{
glyphname = n;
lastChange = "2022-10-20 10:24:39 +0000";
layers = (
{
layerId = m01;
shapes = (
{
closed = 1;
nodes = (
(447,35,ls),
(447,13,o),
(460,0,o),
(482,0,cs),
(607,0,ls),
(613,0,o),
(617,4,o),
(617,10,cs),
(617,326,ls),
(617,476,o),
(531,564,o),
(402,564,cs),
(327,564,o),
(267,531,o),
(233,484,c),
(233,523,ls),
(233,545,o),
(220,558,o),
(198,558,cs),
(72,558,ls),
(66,558,o),
(62,554,o),
(62,548,cs),
(62,10,ls),
(62,4,o),
(66,0,o),
(72,0,cs),
(223,0,ls),
(229,0,o),
(233,4,o),
(233,10,cs),
(233,303,ls),
(233,379,o),
(275,421,o),
(340,421,cs),
(405,421,o),
(447,379,o),
(447,303,cs)
);
}
);
width = 674;
}
);
note = n;
unicode = 110;
},
{
glyphname = o;
layers = (
{
layerId = m01;
shapes = (
{
closed = 1;
nodes = (
(608,456,o),
(482,566,o),
(318,566,cs),
(155,566,o),
(28,456,o),
(28,279,cs),
(28,102,o),
(152,-8,o),
(316,-8,cs),
(480,-8,o),
(608,102,o),
(608,279,cs)
);
},
{
closed = 1;
nodes = (
(202,374,o),
(256,418,o),
(318,418,cs),
(378,418,o),
(434,374,o),
(434,279,cs),
(434,185,o),
(377,140,o),
(316,140,cs),
(254,140,o),
(202,185,o),
(202,279,cs)
);
}
);
width = 637;
}
);
note = o;
unicode = 111;
},
{
glyphname = p;
lastChange = "2022-10-20 10:25:21 +0000";
layers = (
{
layerId = m01;
shapes = (
{
closed = 1;
nodes = (
(233,523,ls),
(233,545,o),
(220,558,o),
(198,558,cs),
(72,558,ls),
(66,558,o),
(62,554,o),
(62,548,cs),
(62,-231,ls),
(62,-253,o),
(75,-266,o),
(97,-266,cs),
(223,-266,ls),
(229,-266,o),
(233,-262,o),
(233,-256,cs),
(233,78,l),
(264,31,o),
(323,-8,o),
(405,-8,cs),
(542,-8,o),
(651,104,o),
(651,280,cs),
(651,456,o),
(542,566,o),
(405,566,cs),
(323,566,o),
(264,528,o),
(233,479,c)
);
},
{
closed = 1;
nodes = (
(507,191,o),
(449,141,o),
(384,141,cs),
(320,141,o),
(262,190,o),
(262,279,cs),
(262,368,o),
(320,417,o),
(384,417,cs),
(449,417,o),
(507,369,o),
(507,280,cs)
);
}
);
width = 679;
}
);
note = p;
unicode = 112;
},
{
glyphname = q;
lastChange = "2022-10-20 10:25:49 +0000";
layers = (
{
layerId = m01;
shapes = (
{
closed = 1;
nodes = (
(28,108,o),
(144,-7,o),
(281,-7,cs),
(355,-7,o),
(410,26,o),
(446,70,c),
(446,-256,ls),
(446,-262,o),
(450,-266,o),
(456,-266,cs),
(582,-266,ls),
(604,-266,o),
(617,-253,o),
(617,-231,cs),
(617,548,ls),
(617,554,o),
(613,558,o),
(607,558,cs),
(481,558,ls),
(459,558,o),
(446,545,o),
(446,523,cs),
(446,494,l),
(412,536,o),
(356,564,o),
(283,564,cs),
(144,564,o),
(28,448,o),
(28,278,cs)
);
},
{
closed = 1;
nodes = (
(446,185,o),
(382,141,o),
(324,141,cs),
(267,141,o),
(202,184,o),
(202,278,cs),
(202,372,o),
(267,416,o),
(324,416,cs),
(382,416,o),
(446,373,o),
(446,279,cs)
);
}
);
width = 679;
}
);
note = q;
unicode = 113;
},
{
glyphname = r;
lastChange = "2022-10-20 10:26:41 +0000";
layers = (
{
layerId = m01;
shapes = (
{
closed = 1;
nodes = (
(233,259,ls),
(233,355,o),
(280,383,o),
(361,383,cs),
(373,383,ls),
(395,383,o),
(408,396,o),
(408,418,cs),
(408,554,ls),
(408,560,o),
(404,564,o),
(398,564,cs),
(327,560,o),
(270,521,o),
(233,465,c),
(233,523,ls),
(233,545,o),
(220,558,o),
(198,558,cs),
(72,558,ls),
(66,558,o),
(62,554,o),
(62,548,cs),
(62,10,ls),
(62,4,o),
(66,0,o),
(72,0,cs),
(223,0,ls),
(229,0,o),
(233,4,o),
(233,10,cs)
);
}
);
width = 428;
}
);
note = r;
unicode = 114;
},
{
glyphname = s;
lastChange = "2022-10-20 10:27:18 +0000";
layers = (
{
layerId = m01;
shapes = (
{
closed = 1;
nodes = (
(512,370,o),
(210,307,o),
(210,396,cs),
(210,423,o),
(232,439,o),
(272,439,cs),
(307,439,o),
(332,426,o),
(345,404,cs),
(355,386,o),
(364,376,o),
(384,376,cs),
(501,376,ls),
(507,376,o),
(512,380,o),
(511,387,cs),
(496,491,o),
(416,566,o),
(277,566,cs),
(131,566,o),
(50,488,o),
(50,393,cs),
(50,188,o),
(354,253,o),
(354,163,cs),
(354,138,o),
(331,118,o),
(287,118,cs),
(252,118,o),
(224,132,o),
(210,155,cs),
(200,173,o),
(191,183,o),
(171,183,cs),
(43,183,ls),
(37,183,o),
(32,179,o),
(33,173,cs),
(47,70,o),
(145,-8,o),
(289,-8,cs),
(429,-8,o),
(515,65,o),
(515,162,cs)
);
}
);
width = 558;
}
);
note = s;
unicode = 115;
},
{
glyphname = t;
lastChange = "2022-10-20 10:28:13 +0000";
layers = (
{
layerId = m01;
shapes = (
{
closed = 1;
nodes = (
(89,194,ls),
(89,49,o),
(170,0,o),
(286,0,cs),
(363,0,ls),
(369,0,o),
(373,4,o),
(373,10,cs),
(373,110,ls),
(373,132,o),
(360,145,o),
(338,145,cs),
(312,145,ls),
(274,145,o),
(260,159,o),
(260,192,cs),
(260,406,ls),
(260,412,o),
(264,416,o),
(270,416,cs),
(362,416,ls),
(368,416,o),
(372,420,o),
(372,426,cs),
(372,548,ls),
(372,554,o),
(368,558,o),
(362,558,cs),
(270,558,ls),
(264,558,o),
(260,562,o),
(260,568,cs),
(260,684,ls),
(260,690,o),
(256,694,o),
(250,694,cs),
(99,694,ls),
(93,694,o),
(89,690,o),
(89,684,cs),
(89,593,ls),
(89,571,o),
(76,558,o),
(54,558,cs),
(21,558,l),
(21,426,ls),
(21,420,o),
(25,416,o),
(31,416,cs),
(79,416,ls),
(85,416,o),
(89,412,o),
(89,406,cs)
);
}
);
width = 406;
}
);
note = t;
unicode = 116;
},
{
glyphname = u;
lastChange = "2022-10-20 10:28:39 +0000";
layers = (
{
layerId = m01;
shapes = (
{
closed = 1;
nodes = (
(613,548,ls),
(613,554,o),
(609,558,o),
(603,558,cs),
(452,558,ls),
(446,558,o),
(442,554,o),
(442,548,cs),
(442,255,ls),
(442,179,o),
(400,137,o),
(334,137,cs),
(270,137,o),
(227,179,o),
(227,255,cs),
(227,523,ls),
(227,545,o),
(214,558,o),
(192,558,cs),
(67,558,ls),
(61,558,o),
(57,554,o),
(57,548,cs),
(57,232,ls),
(57,83,o),
(144,-6,o),
(273,-6,cs),
(348,-6,o),
(408,28,o),
(442,76,c),
(442,35,ls),
(442,13,o),
(455,0,o),
(477,0,cs),
(603,0,ls),
(609,0,o),
(613,4,o),
(613,10,cs)
);
}
);
width = 674;
}
);
note = u;
unicode = 117;
},
{
glyphname = v;
lastChange = "2022-10-20 10:29:17 +0000";
layers = (
{
layerId = m01;
shapes = (
{
closed = 1;
nodes = (
(21,558,ls),
(14,558,o),
(11,554,o),
(13,547,cs),
(197,28,ls),
(204,8,o),
(217,0,o),
(237,0,cs),
(388,0,ls),
(408,0,o),
(421,8,o),
(428,28,cs),
(612,547,ls),
(614,554,o),
(611,558,o),
(604,558,cs),
(464,558,ls),
(444,558,o),
(431,548,o),
(425,529,cs),
(319,181,ls),
(316,171,o),
(310,171,o),
(307,181,cs),
(201,529,ls),
(195,548,o),
(182,558,o),
(162,558,cs)
);
}
);
width = 626;
}
);
note = v;
unicode = 118;
},
{
glyphname = w;
lastChange = "2022-10-20 10:30:01 +0000";
layers = (
{
layerId = m01;
shapes = (
{
closed = 1;
nodes = (
(148,30,ls),
(153,10,o),
(167,0,o),
(187,0,cs),
(313,0,ls),
(334,0,o),
(347,9,o),
(352,30,cs),
(429,337,ls),
(431,347,o),
(439,346,o),
(441,337,cs),
(516,30,ls),
(521,9,o),
(533,0,o),
(554,0,cs),
(681,0,ls),
(701,0,o),
(715,10,o),
(720,30,cs),
(860,547,ls),
(862,554,o),
(858,558,o),
(851,558,cs),
(734,558,ls),
(713,558,o),
(700,548,o),
(696,527,cs),
(629,189,ls),
(627,180,o),
(619,179,o),
(617,188,cs),
(536,528,ls),
(531,549,o),
(519,558,o),
(498,558,cs),
(379,558,ls),
(358,558,o),
(346,547,o),
(341,527,cs),
(261,187,ls),
(259,178,o),
(250,178,o),
(248,187,cs),
(181,527,ls),
(177,548,o),
(164,558,o),
(143,558,cs),
(16,558,ls),
(9,558,o),
(5,554,o),
(7,547,cs)
);
}
);
width = 866;
}
);
note = w;
unicode = 119;
},
{
glyphname = x;
lastChange = "2022-10-20 10:30:35 +0000";
layers = (
{
layerId = m01;
shapes = (
{
closed = 1;
nodes = (
(388,6,ls),
(391,1,o),
(395,0,o),
(400,0,cs),
(569,0,ls),
(577,0,o),
(580,6,o),
(576,12,cs),
(409,253,ls),
(398,270,o),
(397,286,o),
(408,302,cs),
(571,546,ls),
(575,552,o),
(572,558,o),
(564,558,cs),
(402,558,ls),
(397,558,o),
(393,555,o),
(390,551,cs),
(327,443,ls),
(314,420,o),
(293,419,o),
(278,441,cs),
(201,552,ls),
(198,557,o),
(194,558,o),
(189,558,cs),
(20,558,ls),
(12,558,o),
(9,552,o),
(13,546,cs),
(177,309,ls),
(188,293,o),
(189,277,o),
(178,260,cs),
(18,12,ls),
(14,5,o),
(16,0,o),
(24,0,cs),
(187,0,ls),
(192,0,o),
(196,3,o),
(199,7,cs),
(262,116,ls),
(275,139,o),
(296,140,o),
(311,118,cs)
);
}
);
width = 588;
}
);
note = x;
unicode = 120;
},
{
glyphname = y;
lastChange = "2022-10-20 10:31:12 +0000";
layers = (
{
layerId = m01;
shapes = (
{
closed = 1;
nodes = (
(319,209,l),
(193,550,ls),
(191,556,o),
(187,558,o),
(182,558,cs),
(12,558,ls),
(5,558,o),
(1,553,o),
(4,546,cs),
(226,19,l),
(103,-253,ls),
(100,-260,o),
(104,-265,o),
(111,-265,cs),
(274,-265,ls),
(279,-265,o),
(283,-263,o),
(285,-257,cs),
(627,546,ls),
(630,553,o),
(626,558,o),
(619,558,cs),
(477,558,ls),
(457,558,o),
(444,549,o),
(437,530,cs)
);
}
);
width = 632;
}
);
note = y;
unicode = 121;
},
{
glyphname = z;
lastChange = "2022-10-20 10:31:47 +0000";
layers = (
{
layerId = m01;
shapes = (
{
closed = 1;
nodes = (
(459,548,ls),
(459,554,o),
(455,558,o),
(449,558,cs),
(43,558,ls),
(37,558,o),
(33,554,o),
(33,548,cs),
(33,452,ls),
(33,430,o),
(46,417,o),
(68,417,cs),
(263,417,l),
(31,136,l),
(31,10,ls),
(31,4,o),
(35,0,o),
(41,0,cs),
(454,0,ls),
(460,0,o),
(464,4,o),
(464,10,cs),
(464,106,ls),
(464,128,o),
(451,141,o),
(429,141,cs),
(222,141,l),
(459,422,l)
);
}
);
width = 496;
}
);
note = z;
unicode = 122;
},
{
glyphname = braceleft;
layers = (
{
layerId = m01;
shapes = (
{
closed = 1;
nodes = (
(186,145,o),
(165,46,o),
(165,-30,cs),
(165,-147,o),
(242,-211,o),
(356,-211,cs),
(428,-211,l),
(428,-71,l),
(389,-71,ls),
(346,-71,o),
(329,-51,o),
(329,-13,cs),
(329,41,o),
(346,143,o),
(346,213,cs),
(346,285,o),
(313,336,o),
(239,351,c),
(239,353,l),
(313,367,o),
(346,419,o),
(346,490,cs),
(346,560,o),
(329,663,o),
(329,717,cs),
(329,755,o),
(346,774,o),
(389,774,cs),
(428,774,l),
(428,914,l),
(356,914,ls),
(242,914,o),
(165,850,o),
(165,734,cs),
(165,658,o),
(186,559,o),
(186,497,cs),
(186,450,o),
(158,423,o),
(91,420,c),
(91,284,l),
(158,281,o),
(186,251,o),
(186,207,cs)
);
}
);
width = 499;
}
);
note = braceleft;
unicode = 123;
},
{
glyphname = bar;
layers = (
{
layerId = m01;
shapes = (
{
closed = 1;
nodes = (
(60,815,l),
(60,-129,l),
(231,-129,l),
(231,815,l)
);
}
);
width = 291;
}
);
note = bar;
unicode = 124;
},
{
glyphname = braceright;
layers = (
{
layerId = m01;
shapes = (
{
closed = 1;
nodes = (
(313,145,o),
(334,46,o),
(334,-30,cs),
(334,-147,o),
(257,-211,o),
(143,-211,cs),
(71,-211,l),
(71,-71,l),
(110,-71,ls),
(153,-71,o),
(170,-51,o),
(170,-13,cs),
(170,41,o),
(153,143,o),
(153,213,cs),
(153,285,o),
(186,336,o),
(260,351,c),
(260,353,l),
(186,367,o),
(153,419,o),
(153,490,cs),
(153,560,o),
(170,663,o),
(170,717,cs),
(170,755,o),
(153,774,o),
(110,774,cs),
(71,774,l),
(71,914,l),
(143,914,ls),
(257,914,o),
(334,850,o),
(334,734,cs),
(334,658,o),
(313,559,o),
(313,497,cs),
(313,450,o),
(341,423,o),
(408,420,c),
(408,284,l),
(341,281,o),
(313,251,o),
(313,207,cs)
);
}
);
width = 499;
}
);
note = braceright;
unicode = 125;
},
{
glyphname = asciitilde;
layers = (
{
layerId = m01;
shapes = (
{
closed = 1;
nodes = (
(153,208,l),
(160,253,o),
(183,274,o),
(217,274,cs),
(276,274,o),
(321,208,o),
(409,208,cs),
(508,208,o),
(584,271,o),
(609,425,c),
(482,425,l),
(476,379,o),
(453,359,o),
(419,359,cs),
(361,359,o),
(315,425,o),
(227,425,cs),
(128,425,o),
(53,362,o),
(28,208,c)
);
}
);
width = 636;
}
);
note = asciitilde;
unicode = 126;
},
{
glyphname = exclamdown;
layers = (
{
layerId = m01;
shapes = (
{
closed = 1;
nodes = (
(122,316,l),
(267,316,l),
(287,-163,l),
(102,-163,l)
);
},
{
closed = 1;
nodes = (
(298,427,o),
(257,386,o),
(197,386,cs),
(136,386,o),
(95,427,o),
(95,480,cs),
(95,531,o),
(136,572,o),
(197,572,cs),
(257,572,o),
(298,531,o),
(298,480,cs)
);
}
);
width = 392;
}
);
note = exclamdown;
unicode = 161;
},
{
glyphname = cent;
layers = (
{
layerId = m01;
shapes = (
{
closed = 1;
nodes = (
(405,190,l),
(394,154,o),
(360,133,o),
(314,133,cs),
(246,133,o),
(205,179,o),
(205,256,cs),
(205,333,o),
(246,379,o),
(314,379,cs),
(360,379,o),
(392,360,o),
(405,322,c),
(562,322,l),
(553,435,o),
(460,506,o),
(343,516,c),
(343,597,l),
(279,597,l),
(279,515,l),
(129,502,o),
(42,403,o),
(42,256,cs),
(42,109,o),
(129,10,o),
(279,-3,c),
(279,-85,l),
(343,-85,l),
(343,-4,l),
(460,6,o),
(553,77,o),
(562,190,c)
);
}
);
width = 631;
}
);
note = cent;
unicode = 162;
},
{
glyphname = sterling;
layers = (
{
layerId = m01;
shapes = (
{
closed = 1;
nodes = (
(98,479,o),
(107,438,o),
(117,402,c),
(36,402,l),
(36,287,l),
(145,287,l),
(145,285,ls),
(145,190,o),
(115,134,o),
(54,80,c),
(78,-4,l),
(588,-4,l),
(588,130,l),
(241,130,l),
(291,175,o),
(307,239,o),
(307,284,cs),
(307,287,l),
(463,287,l),
(463,402,l),
(282,402,l),
(271,439,o),
(260,476,o),
(260,510,cs),
(260,576,o),
(292,607,o),
(344,607,cs),
(402,607,o),
(425,570,o),
(427,520,c),
(584,520,l),
(579,647,o),
(501,747,o),
(340,747,cs),
(198,747,o),
(98,666,o),
(98,527,cs)
);
}
);
width = 663;
}
);
note = sterling;
unicode = 163;
},
{
glyphname = currency;
layers = (
{
layerId = m01;
shapes = (
{
closed = 1;
nodes = (
(363,321,o),
(327,296,o),
(289,296,cs),
(250,296,o),
(216,321,o),
(216,377,cs),
(216,434,o),
(251,459,o),
(289,459,cs),
(328,459,o),
(363,434,o),
(363,377,cs)
);
},
{
closed = 1;
nodes = (
(451,150,l),
(517,217,l),
(463,271,l),
(485,300,o),
(498,336,o),
(498,378,cs),
(498,421,o),
(485,458,o),
(463,487,c),
(517,541,l),
(451,608,l),
(385,542,l),
(357,552,o),
(325,558,o),
(290,558,cs),
(254,558,o),
(222,552,o),
(193,541,c),
(126,608,l),
(60,541,l),
(116,485,l),
(94,456,o),
(82,420,o),
(82,378,cs),
(82,337,o),
(94,301,o),
(115,272,c),
(60,217,l),
(126,150,l),
(190,214,l),
(219,202,o),
(252,196,o),
(289,196,cs),
(325,196,o),
(358,202,o),
(387,214,c)
);
}
);
width = 577;
}
);
note = currency;
unicode = 164;
},
{
glyphname = yen;
layers = (
{
layerId = m01;
shapes = (
{
closed = 1;
nodes = (
(621,134,l),
(621,248,l),
(429,248,l),
(461,309,l),
(621,310,l),
(621,425,l),
(521,425,l),
(664,702,l),
(472,702,l),
(337,391,l),
(201,702,l),
(7,702,l),
(150,425,l),
(50,425,l),
(50,310,l),
(210,309,l),
(242,248,l),
(50,248,l),
(50,134,l),
(250,134,l),
(250,0,l),
(421,0,l),
(421,134,l)
);
}
);
width = 671;
}
);
note = yen;
unicode = 165;
},
{
glyphname = brokenbar;
layers = (
{
layerId = m01;
shapes = (
{
closed = 1;
nodes = (
(105,281,l),
(105,-129,l),
(276,-129,l),
(276,281,l)
);
},
{
closed = 1;
nodes = (
(276,405,l),
(276,815,l),
(105,815,l),
(105,405,l)
);
}
);
width = 381;
}
);
note = brokenbar;
unicode = 166;
},
{
glyphname = section;
layers = (
{
layerId = m01;
shapes = (
{
closed = 1;
nodes = (
(66,479,o),
(90,433,o),
(137,394,c),
(59,364,o),
(30,307,o),
(30,244,cs),
(30,160,o),
(92,104,o),
(196,59,cs),
(314,8,o),
(349,-14,o),
(349,-55,cs),
(349,-89,o),
(328,-104,o),
(293,-104,cs),
(258,-104,o),
(238,-83,o),
(235,-35,c),
(66,-35,l),
(71,-149,o),
(155,-224,o),
(291,-224,cs),
(437,-224,o),
(521,-147,o),
(521,-45,cs),
(521,9,o),
(496,56,o),
(450,94,c),
(528,130,o),
(557,181,o),
(557,244,cs),
(557,328,o),
(495,384,o),
(391,429,cs),
(273,480,o),
(238,502,o),
(238,543,cs),
(238,577,o),
(259,592,o),
(294,592,cs),
(329,592,o),
(349,571,o),
(352,523,c),
(521,523,l),
(516,637,o),
(432,712,o),
(296,712,cs),
(150,712,o),
(66,635,o),
(66,533,cs)
);
},
{
closed = 1;
nodes = (
(377,201,o),
(346,166,o),
(294,166,cs),
(242,166,o),
(211,201,o),
(211,244,cs),
(211,287,o),
(242,322,o),
(294,322,cs),
(346,322,o),
(377,287,o),
(377,244,cs)
);
}
);
width = 587;
}
);
note = section;
unicode = 167;
},
{
glyphname = dieresis;
layers = (
{
layerId = m01;
shapes = (
{
closed = 1;
nodes = (
(125,620,o),
(157,652,o),
(157,693,cs),
(157,735,o),
(125,767,o),
(83,767,cs),
(42,767,o),
(10,735,o),
(10,693,cs),
(10,652,o),
(42,620,o),
(83,620,cs)
);
},
{
closed = 1;
nodes = (
(325,620,o),
(357,652,o),
(357,693,cs),
(357,735,o),
(325,767,o),
(283,767,cs),
(242,767,o),
(210,735,o),
(210,693,cs),
(210,652,o),
(242,620,o),
(283,620,cs)
);
}
);
width = 367;
}
);
note = dieresis;
unicode = 168;
},
{
glyphname = copyright;
layers = (
{
layerId = m01;
shapes = (
{
closed = 1;
nodes = (
(38,142,o),
(181,-7,o),
(390,-7,cs),
(599,-7,o),
(742,142,o),
(742,353,cs),
(742,564,o),
(599,712,o),
(390,712,cs),
(181,712,o),
(38,564,o),
(38,353,cs)
);
},
{
closed = 1;
nodes = (
(682,170,o),
(570,49,o),
(390,49,cs),
(210,49,o),
(98,170,o),
(98,353,cs),
(98,538,o),
(210,656,o),
(390,656,cs),
(570,656,o),
(682,538,o),
(682,353,cs)
);
},
{
closed = 1;
nodes = (
(453,414,l),
(444,443,o),
(421,463,o),
(386,463,cs),
(338,463,o),
(307,427,o),
(307,353,cs),
(307,280,o),
(338,243,o),
(386,243,cs),
(424,243,o),
(443,264,o),
(453,292,c),
(600,292,l),
(579,193,o),
(497,128,o),
(391,128,cs),
(262,128,o),
(169,215,o),
(169,353,cs),
(169,491,o),
(262,578,o),
(391,578,cs),
(497,578,o),
(579,516,o),
(600,414,c)
);
}
);
width = 779;
}
);
note = copyright;
unicode = 169;
},
{
glyphname = ordfeminine;
layers = (
{
layerId = m01;
shapes = (
{
closed = 1;
nodes = (
(250,349,o),
(287,368,o),
(310,396,c),
(310,354,l),
(439,354,l),
(439,706,l),
(310,706,l),
(310,662,l),
(286,691,o),
(249,711,o),
(191,711,cs),
(99,711,o),
(25,642,o),
(25,530,cs),
(25,418,o),
(99,349,o),
(194,349,cs)
);
},
{
closed = 1;
nodes = (
(274,609,o),
(310,582,o),
(310,530,cs),
(310,478,o),
(274,450,o),
(234,450,cs),
(194,450,o),
(158,477,o),
(158,529,cs),
(158,581,o),
(194,609,o),
(234,609,cs)
);
}
);
width = 469;
}
);
note = ordfeminine;
unicode = 170;
},
{
glyphname = guillemotleft;
layers = (
{
layerId = m01;
shapes = (
{
closed = 1;
nodes = (
(200,295,l),
(287,470,l),
(129,470,l),
(45,295,l),
(129,120,l),
(287,120,l)
);
},
{
closed = 1;
nodes = (
(425,295,l),
(512,470,l),
(354,470,l),
(270,295,l),
(354,120,l),
(512,120,l)
);
}
);
width = 557;
}
);
note = guillemotleft;
unicode = 171;
},
{
glyphname = logicalnot;
layers = (
{
layerId = m01;
shapes = (
{
closed = 1;
nodes = (
(47,312,l),
(491,312,l),
(491,180,l),
(662,180,l),
(662,442,l),
(47,442,l)
);
}
);
width = 717;
}
);
note = logicalnot;
unicode = 172;
},
{
glyphname = uni00AD;
layers = (
{
layerId = m01;
shapes = (
{
closed = 1;
nodes = (
(52,280,l),
(492,280,l),
(492,422,l),
(52,422,l)
);
}
);
width = 580;
}
);
note = uni00AD;
unicode = 173;
},
{
glyphname = registered;
layers = (
{
layerId = m01;
shapes = (
{
closed = 1;
nodes = (
(353,657,o),
(415,593,o),
(415,497,cs),
(415,402,o),
(353,337,o),
(257,337,cs),
(160,337,o),
(99,402,o),
(99,497,cs),
(99,593,o),
(160,657,o),
(257,657,cs)
);
},
{
closed = 1;
nodes = (
(384,281,o),
(474,371,o),
(474,497,cs),
(474,624,o),
(384,713,o),
(257,713,cs),
(130,713,o),
(39,624,o),
(39,497,cs),
(39,371,o),
(130,281,o),
(257,281,cs)
);
},
{
closed = 1;
nodes = (
(354,579,o),
(323,606,o),
(277,606,cs),
(166,606,l),
(166,394,l),
(238,394,l),
(238,468,l),
(244,468,l),
(284,394,l),
(366,394,l),
(315,476,l),
(339,487,o),
(354,509,o),
(354,537,cs)
);
},
{
closed = 1;
nodes = (
(265,546,ls),
(274,546,o),
(281,542,o),
(281,532,cs),
(281,521,o),
(274,517,o),
(265,517,cs),
(237,517,l),
(237,546,l)
);
}
);
width = 514;
}
);
note = registered;
unicode = 174;
},
{
glyphname = macron;
layers = (
{
layerId = m01;
shapes = (
{
closed = 1;
nodes = (
(10,628,l),
(410,628,l),
(410,746,l),
(10,746,l)
);
}
);
width = 420;
}
);
note = macron;
unicode = 175;
},
{
glyphname = degree;
layers = (
{
layerId = m01;
shapes = (
{
closed = 1;
nodes = (
(25,418,o),
(111,347,o),
(233,347,cs),
(355,347,o),
(438,418,o),
(438,529,cs),
(438,641,o),
(354,709,o),
(232,709,cs),
(110,709,o),
(25,641,o),
(25,529,cs)
);
},
{
closed = 1;
nodes = (
(306,467,o),
(269,440,o),
(233,440,cs),
(196,440,o),
(157,467,o),
(157,528,cs),
(157,590,o),
(195,617,o),
(232,617,cs),
(268,617,o),
(306,590,o),
(306,528,cs)
);
}
);
width = 463;
}
);
note = degree;
unicode = 176;
},
{
glyphname = plusminus;
layers = (
{
layerId = m01;
shapes = (
{
closed = 1;
nodes = (
(234,626,l),
(234,509,l),
(60,509,l),
(60,357,l),
(234,357,l),
(234,262,l),
(60,262,l),
(60,111,l),
(570,111,l),
(570,262,l),
(396,262,l),
(396,357,l),
(570,357,l),
(570,509,l),
(396,509,l),
(396,626,l)
);
}
);
width = 629;
}
);
note = plusminus;
unicode = 177;
},
{
glyphname = twosuperior;
layers = (
{
layerId = m01;
shapes = (
{
closed = 1;
nodes = (
(162,586,l),
(164,609,o),
(174,622,o),
(192,622,cs),
(207,622,o),
(217,611,o),
(217,594,cs),
(217,568,o),
(198,545,o),
(161,522,cs),
(39,448,l),
(39,352,l),
(348,352,l),
(348,452,l),
(174,452,l),
(235,482,ls),
(318,522,o),
(353,554,o),
(353,603,cs),
(353,657,o),
(308,714,o),
(205,714,cs),
(100,714,o),
(38,661,o),
(34,586,c)
);
}
);
width = 383;
}
);
note = twosuperior;
unicode = 178;
},
{
glyphname = threesuperior;
layers = (
{
layerId = m01;
shapes = (
{
closed = 1;
nodes = (
(143,592,l),
(146,613,o),
(156,623,o),
(175,623,cs),
(195,623,o),
(206,612,o),
(206,594,cs),
(206,571,o),
(192,561,o),
(167,561,cs),
(139,561,l),
(139,505,l),
(173,505,ls),
(197,505,o),
(212,494,o),
(212,471,cs),
(212,449,o),
(199,439,o),
(181,439,cs),
(162,439,o),
(150,448,o),
(148,470,c),
(15,470,l),
(20,396,o),
(71,348,o),
(189,348,cs),
(285,348,o),
(349,387,o),
(349,449,cs),
(349,491,o),
(323,517,o),
(275,530,c),
(275,533,l),
(317,542,o),
(343,567,o),
(343,609,cs),
(343,669,o),
(282,714,o),
(189,714,cs),
(73,714,o),
(23,656,o),
(21,592,c)
);
}
);
width = 374;
}
);
note = threesuperior;
unicode = 179;
},
{
glyphname = acute;
layers = (
{
layerId = m01;
shapes = (
{
closed = 1;
nodes = (
(10,714,l),
(10,596,l),
(251,697,l),
(251,830,l)
);
}
);
width = 261;
}
);
note = acute;
unicode = 180;
},
{
glyphname = uni00B5;
layers = (
{
layerId = m01;
shapes = (
{
closed = 1;
nodes = (
(630,558,l),
(459,558,l),
(459,255,ls),
(459,182,o),
(417,142,o),
(352,142,cs),
(287,142,o),
(245,182,o),
(245,255,cs),
(245,558,l),
(75,558,l),
(75,-266,l),
(245,-266,l),
(245,2,l),
(259,-3,o),
(274,-6,o),
(290,-6,cs),
(368,-6,o),
(427,29,o),
(459,82,c),
(459,0,l),
(630,0,l)
);
}
);
width = 705;
}
);
note = uni00B5;
unicode = 181;
},
{
glyphname = paragraph;
layers = (
{
layerId = m01;
shapes = (
{
closed = 1;
nodes = (
(266,702,ls),
(97,702,o),
(28,598,o),
(28,487,cs),
(28,376,o),
(97,273,o),
(266,273,cs),
(289,273,l),
(289,0,l),
(430,0,l),
(430,572,l),
(492,572,l),
(492,0,l),
(633,0,l),
(633,702,l)
);
}
);
width = 708;
}
);
note = paragraph;
unicode = 182;
},
{
glyphname = periodcentered;
layers = (
{
layerId = m01;
shapes = (
{
closed = 1;
nodes = (
(253,367,o),
(212,408,o),
(152,408,cs),
(91,408,o),
(50,367,o),
(50,314,cs),
(50,263,o),
(91,222,o),
(152,222,cs),
(212,222,o),
(253,263,o),
(253,314,cs)
);
}
);
width = 299;
}
);
note = periodcentered;
unicode = 183;
},
{
glyphname = cedilla;
layers = (
{
layerId = m01;
shapes = (
{
closed = 1;
nodes = (
(173,7,l),
(70,7,l),
(70,-122,l),
(141,-122,ls),
(166,-122,o),
(181,-128,o),
(181,-147,cs),
(181,-167,o),
(166,-173,o),
(141,-173,cs),
(10,-173,l),
(10,-267,l),
(164,-267,ls),
(233,-267,o),
(303,-233,o),
(303,-151,cs),
(303,-68,o),
(233,-37,o),
(173,-37,c)
);
}
);
width = 313;
}
);
note = cedilla;
unicode = 184;
},
{
glyphname = onesuperior;
layers = (
{
layerId = m01;
shapes = (
{
closed = 1;
nodes = (
(80,352,l),
(209,352,l),
(209,704,l),
(20,704,l),
(20,605,l),
(80,605,l)
);
}
);
width = 249;
}
);
note = onesuperior;
unicode = 185;
},
{
glyphname = ordmasculine;
layers = (
{
layerId = m01;
shapes = (
{
closed = 1;
nodes = (
(25,423,o),
(106,347,o),
(228,347,cs),
(350,347,o),
(433,423,o),
(433,529,cs),
(433,635,o),
(351,709,o),
(229,709,cs),
(107,709,o),
(25,635,o),
(25,529,cs)
);
},
{
closed = 1;
nodes = (
(301,474,o),
(266,447,o),
(228,447,cs),
(189,447,o),
(157,474,o),
(157,528,cs),
(157,584,o),
(190,610,o),
(228,610,cs),
(267,610,o),
(301,584,o),
(301,528,cs)
);
}
);
width = 458;
}
);
note = ordmasculine;
unicode = 186;
},
{
glyphname = guillemotright;
layers = (
{
layerId = m01;
shapes = (
{
closed = 1;
nodes = (
(433,120,l),
(517,295,l),
(433,470,l),
(275,470,l),
(362,295,l),
(275,120,l)
);
},
{
closed = 1;
nodes = (
(208,120,l),
(292,295,l),
(208,470,l),
(50,470,l),
(137,295,l),
(50,120,l)
);
}
);
width = 557;
}
);
note = guillemotright;
unicode = 187;
},
{
glyphname = onequarter;
layers = (
{
layerId = m01;
shapes = (
{
closed = 1;
nodes = (
(88,0,l),
(253,0,l),
(638,702,l),
(473,702,l)
);
},
{
closed = 1;
nodes = (
(716,135,l),
(716,352,l),
(538,352,l),
(392,130,l),
(392,62,l),
(587,62,l),
(587,0,l),
(716,0,l),
(716,62,l),
(756,62,l),
(756,135,l)
);
},
{
closed = 1;
nodes = (
(515,138,l),
(593,267,l),
(593,138,l)
);
},
{
closed = 1;
nodes = (
(100,352,l),
(229,352,l),
(229,704,l),
(40,704,l),
(40,605,l),
(100,605,l)
);
}
);
width = 786;
}
);
note = onequarter;
unicode = 188;
},
{
glyphname = onehalf;
layers = (
{
layerId = m01;
shapes = (
{
closed = 1;
nodes = (
(88,0,l),
(253,0,l),
(638,704,l),
(473,704,l)
);
},
{
closed = 1;
nodes = (
(100,352,l),
(229,352,l),
(229,704,l),
(40,704,l),
(40,605,l),
(100,605,l)
);
},
{
closed = 1;
nodes = (
(571,233,l),
(573,256,o),
(583,269,o),
(601,269,cs),
(616,269,o),
(626,258,o),
(626,241,cs),
(626,215,o),
(607,192,o),
(570,169,cs),
(448,95,l),
(448,-1,l),
(757,-1,l),
(757,99,l),
(583,99,l),
(644,129,ls),
(727,169,o),
(762,201,o),
(762,250,cs),
(762,304,o),
(717,361,o),
(614,361,cs),
(509,361,o),
(447,308,o),
(443,233,c)
);
}
);
width = 821;
}
);
note = onehalf;
unicode = 189;
},
{
glyphname = threequarters;
layers = (
{
layerId = m01;
shapes = (
{
closed = 1;
nodes = (
(203,0,l),
(368,0,l),
(753,704,l),
(588,704,l)
);
},
{
closed = 1;
nodes = (
(831,135,l),
(831,352,l),
(642,352,l),
(507,130,l),
(507,62,l),
(702,62,l),
(702,0,l),
(831,0,l),
(831,62,l),
(871,62,l),
(871,135,l)
);
},
{
closed = 1;
nodes = (
(630,135,l),
(708,277,l),
(708,135,l)
);
},
{
closed = 1;
nodes = (
(178,592,l),
(181,613,o),
(191,623,o),
(210,623,cs),
(230,623,o),
(241,612,o),
(241,594,cs),
(241,571,o),
(227,561,o),
(202,561,cs),
(174,561,l),
(174,505,l),
(208,505,ls),
(232,505,o),
(247,494,o),
(247,471,cs),
(247,449,o),
(234,439,o),
(216,439,cs),
(197,439,o),
(185,448,o),
(183,470,c),
(50,470,l),
(55,396,o),
(106,348,o),
(224,348,cs),
(320,348,o),
(384,387,o),
(384,449,cs),
(384,491,o),
(358,517,o),
(310,530,c),
(310,533,l),
(352,542,o),
(378,567,o),
(378,609,cs),
(378,669,o),
(317,714,o),
(224,714,cs),
(108,714,o),
(58,656,o),
(56,592,c)
);
}
);
width = 891;
}
);
note = threequarters;
unicode = 190;
},
{
glyphname = questiondown;
layers = (
{
layerId = m01;
shapes = (
{
closed = 1;
nodes = (
(348,39,l),
(348,-7,o),
(321,-37,o),
(272,-37,cs),
(228,-37,o),
(200,-9,o),
(200,36,cs),
(199,109,o),
(264,126,o),
(358,126,cs),
(418,126,l),
(413,312,l),
(263,312,l),
(258,237,l),
(127,236,o),
(34,166,o),
(34,37,cs),
(34,-102,o),
(131,-177,o),
(270,-177,cs),
(428,-177,o),
(512,-81,o),
(509,39,c)
);
},
{
closed = 1;
nodes = (
(235,427,o),
(276,386,o),
(336,386,cs),
(397,386,o),
(438,427,o),
(438,480,cs),
(438,531,o),
(397,572,o),
(336,572,cs),
(276,572,o),
(235,531,o),
(235,480,cs)
);
}
);
width = 538;
}
);
note = questiondown;
unicode = 191;
},
{
glyphname = Agrave;
layers = (
{
layerId = m01;
shapes = (
{
closed = 1;
nodes = (
(541,0,l),
(722,0,l),
(468,702,l),
(270,702,l),
(16,0,l),
(195,0,l),
(237,124,l),
(499,124,l)
);
},
{
closed = 1;
nodes = (
(244,843,l),
(485,742,l),
(485,860,l),
(244,976,l)
);
},
{
closed = 1;
nodes = (
(455,256,l),
(282,256,l),
(368,513,l)
);
}
);
width = 737;
}
);
note = Agrave;
unicode = 192;
},
{
glyphname = Aacute;
layers = (
{
layerId = m01;
shapes = (
{
closed = 1;
nodes = (
(541,0,l),
(722,0,l),
(468,702,l),
(270,702,l),
(16,0,l),
(195,0,l),
(237,124,l),
(499,124,l)
);
},
{
closed = 1;
nodes = (
(244,860,l),
(244,742,l),
(485,843,l),
(485,976,l)
);
},
{
closed = 1;
nodes = (
(455,256,l),
(282,256,l),
(368,513,l)
);
}
);
width = 737;
}
);
note = Aacute;
unicode = 193;
},
{
glyphname = Acircumflex;
layers = (
{
layerId = m01;
shapes = (
{
closed = 1;
nodes = (
(541,0,l),
(722,0,l),
(468,702,l),
(270,702,l),
(16,0,l),
(195,0,l),
(237,124,l),
(499,124,l)
);
},
{
closed = 1;
nodes = (
(524,860,l),
(369,939,l),
(214,860,l),
(214,742,l),
(369,824,l),
(524,742,l)
);
},
{
closed = 1;
nodes = (
(455,256,l),
(282,256,l),
(368,513,l)
);
}
);
width = 737;
}
);
note = Acircumflex;
unicode = 194;
},
{
glyphname = Atilde;
layers = (
{
layerId = m01;
shapes = (
{
closed = 1;
nodes = (
(541,0,l),
(722,0,l),
(468,702,l),
(270,702,l),
(16,0,l),
(195,0,l),
(237,124,l),
(499,124,l)
);
},
{
closed = 1;
nodes = (
(256,751,l),
(261,782,o),
(277,796,o),
(300,796,cs),
(340,796,o),
(371,751,o),
(431,751,cs),
(501,751,o),
(552,794,o),
(569,899,c),
(481,899,l),
(477,868,o),
(461,854,o),
(438,854,cs),
(398,854,o),
(367,899,o),
(307,899,cs),
(236,899,o),
(186,856,o),
(169,751,c)
);
},
{
closed = 1;
nodes = (
(455,256,l),
(282,256,l),
(368,513,l)
);
}
);
width = 737;
}
);
note = Atilde;
unicode = 195;
},
{
glyphname = Adieresis;
layers = (
{
layerId = m01;
shapes = (
{
closed = 1;
nodes = (
(541,0,l),
(722,0,l),
(468,702,l),
(270,702,l),
(16,0,l),
(195,0,l),
(237,124,l),
(499,124,l)
);
},
{
closed = 1;
nodes = (
(310,766,o),
(342,798,o),
(342,839,cs),
(342,881,o),
(310,913,o),
(268,913,cs),
(227,913,o),
(195,881,o),
(195,839,cs),
(195,798,o),
(227,766,o),
(268,766,cs)
);
},
{
closed = 1;
nodes = (
(510,766,o),
(542,798,o),
(542,839,cs),
(542,881,o),
(510,913,o),
(468,913,cs),
(427,913,o),
(395,881,o),
(395,839,cs),
(395,798,o),
(427,766,o),
(468,766,cs)
);
},
{
closed = 1;
nodes = (
(455,256,l),
(282,256,l),
(368,513,l)
);
}
);
width = 737;
}
);
note = Adieresis;
unicode = 196;
},
{
glyphname = Aring;
layers = (
{
layerId = m01;
shapes = (
{
closed = 1;
nodes = (
(541,0,l),
(722,0,l),
(468,702,l),
(270,702,l),
(16,0,l),
(195,0,l),
(237,124,l),
(499,124,l)
);
},
{
closed = 1;
nodes = (
(343,817,o),
(322,837,o),
(322,866,cs),
(322,896,o),
(343,915,o),
(369,915,cs),
(396,915,o),
(417,896,o),
(417,866,cs),
(417,837,o),
(396,817,o),
(369,817,cs)
);
},
{
closed = 1;
nodes = (
(302,987,o),
(247,941,o),
(247,866,cs),
(247,791,o),
(302,745,o),
(369,745,cs),
(437,745,o),
(492,791,o),
(492,866,cs),
(492,941,o),
(437,987,o),
(369,987,cs)
);
},
{
closed = 1;
nodes = (
(455,256,l),
(282,256,l),
(368,513,l)
);
}
);
width = 737;
}
);
note = Aring;
unicode = 197;
},
{
glyphname = AE;
layers = (
{
layerId = m01;
shapes = (
{
closed = 1;
nodes = (
(482,575,l),
(482,248,l),
(317,248,l)
);
},
{
closed = 1;
nodes = (
(906,567,l),
(906,702,l),
(365,702,l),
(6,0,l),
(191,0,l),
(251,118,l),
(482,118,l),
(482,0,l),
(906,0,l),
(906,135,l),
(653,135,l),
(653,293,l),
(876,293,l),
(876,423,l),
(653,423,l),
(653,567,l)
);
}
);
width = 955;
}
);
note = AE;
unicode = 198;
},
{
glyphname = Ccedilla;
layers = (
{
layerId = m01;
shapes = (
{
closed = 1;
nodes = (
(33,159,o),
(156,19,o),
(337,-2,c),
(337,-126,l),
(408,-126,ls),
(433,-126,o),
(448,-132,o),
(448,-151,cs),
(448,-171,o),
(433,-177,o),
(408,-177,cs),
(277,-177,l),
(277,-271,l),
(431,-271,ls),
(500,-271,o),
(570,-237,o),
(570,-155,cs),
(570,-72,o),
(500,-41,o),
(440,-41,c),
(440,-2,l),
(580,16,o),
(683,105,o),
(719,240,c),
(531,240,l),
(502,180,o),
(449,150,o),
(384,150,cs),
(279,150,o),
(207,228,o),
(207,352,cs),
(207,476,o),
(279,554,o),
(384,554,cs),
(449,554,o),
(502,524,o),
(531,464,c),
(719,464,l),
(679,616,o),
(553,710,o),
(386,710,cs),
(179,710,o),
(33,562,o),
(33,352,cs)
);
}
);
width = 762;
}
);
note = Ccedilla;
unicode = 199;
},
{
glyphname = Egrave;
layers = (
{
layerId = m01;
shapes = (
{
closed = 1;
nodes = (
(492,702,l),
(62,702,l),
(62,0,l),
(492,0,l),
(492,137,l),
(233,137,l),
(233,291,l),
(462,291,l),
(462,423,l),
(233,423,l),
(233,565,l),
(492,565,l)
);
},
{
closed = 1;
nodes = (
(148,843,l),
(389,742,l),
(389,860,l),
(148,976,l)
);
}
);
width = 541;
}
);
note = Egrave;
unicode = 200;
},
{
glyphname = Eacute;
layers = (
{
layerId = m01;
shapes = (
{
closed = 1;
nodes = (
(492,702,l),
(62,702,l),
(62,0,l),
(492,0,l),
(492,137,l),
(233,137,l),
(233,291,l),
(462,291,l),
(462,423,l),
(233,423,l),
(233,565,l),
(492,565,l)
);
},
{
closed = 1;
nodes = (
(148,860,l),
(148,742,l),
(389,843,l),
(389,976,l)
);
}
);
width = 541;
}
);
note = Eacute;
unicode = 201;
},
{
glyphname = Ecircumflex;
layers = (
{
layerId = m01;
shapes = (
{
closed = 1;
nodes = (
(492,702,l),
(62,702,l),
(62,0,l),
(492,0,l),
(492,137,l),
(233,137,l),
(233,291,l),
(462,291,l),
(462,423,l),
(233,423,l),
(233,565,l),
(492,565,l)
);
},
{
closed = 1;
nodes = (
(427,860,l),
(272,939,l),
(117,860,l),
(117,742,l),
(272,824,l),
(427,742,l)
);
}
);
width = 541;
}
);
note = Ecircumflex;
unicode = 202;
},
{
glyphname = Edieresis;
layers = (
{
layerId = m01;
shapes = (
{
closed = 1;
nodes = (
(492,702,l),
(62,702,l),
(62,0,l),
(492,0,l),
(492,137,l),
(233,137,l),
(233,291,l),
(462,291,l),
(462,423,l),
(233,423,l),
(233,565,l),
(492,565,l)
);
},
{
closed = 1;
nodes = (
(214,766,o),
(246,798,o),
(246,839,cs),
(246,881,o),
(214,913,o),
(172,913,cs),
(131,913,o),
(99,881,o),
(99,839,cs),
(99,798,o),
(131,766,o),
(172,766,cs)
);
},
{
closed = 1;
nodes = (
(414,766,o),
(446,798,o),
(446,839,cs),
(446,881,o),
(414,913,o),
(372,913,cs),
(331,913,o),
(299,881,o),
(299,839,cs),
(299,798,o),
(331,766,o),
(372,766,cs)
);
}
);
width = 541;
}
);
note = Edieresis;
unicode = 203;
},
{
glyphname = Igrave;
layers = (
{
layerId = m01;
shapes = (
{
closed = 1;
nodes = (
(62,0,l),
(233,0,l),
(233,702,l),
(62,702,l)
);
},
{
closed = 1;
nodes = (
(23,843,l),
(264,742,l),
(264,860,l),
(23,976,l)
);
}
);
width = 295;
}
);
note = Igrave;
unicode = 204;
},
{
glyphname = Iacute;
layers = (
{
layerId = m01;
shapes = (
{
closed = 1;
nodes = (
(62,0,l),
(233,0,l),
(233,702,l),
(62,702,l)
);
},
{
closed = 1;
nodes = (
(23,860,l),
(23,742,l),
(264,843,l),
(264,976,l)
);
}
);
width = 295;
}
);
note = Iacute;
unicode = 205;
},
{
glyphname = Icircumflex;
layers = (
{
layerId = m01;
shapes = (
{
closed = 1;
nodes = (
(62,0,l),
(233,0,l),
(233,702,l),
(62,702,l)
);
},
{
closed = 1;
nodes = (
(303,860,l),
(148,939,l),
(-7,860,l),
(-7,742,l),
(148,824,l),
(303,742,l)
);
}
);
width = 295;
}
);
note = Icircumflex;
unicode = 206;
},
{
glyphname = Idieresis;
layers = (
{
layerId = m01;
shapes = (
{
closed = 1;
nodes = (
(62,0,l),
(233,0,l),
(233,702,l),
(62,702,l)
);
},
{
closed = 1;
nodes = (
(89,766,o),
(121,798,o),
(121,839,cs),
(121,881,o),
(89,913,o),
(47,913,cs),
(6,913,o),
(-26,881,o),
(-26,839,cs),
(-26,798,o),
(6,766,o),
(47,766,cs)
);
},
{
closed = 1;
nodes = (
(289,766,o),
(321,798,o),
(321,839,cs),
(321,881,o),
(289,913,o),
(247,913,cs),
(206,913,o),
(174,881,o),
(174,839,cs),
(174,798,o),
(206,766,o),
(247,766,cs)
);
}
);
width = 295;
}
);
note = Idieresis;
unicode = 207;
},
{
glyphname = Eth;
layers = (
{
layerId = m01;
shapes = (
{
closed = 1;
nodes = (
(67,702,l),
(67,422,l),
(4,422,l),
(4,280,l),
(67,280,l),
(67,0,l),
(330,0,ls),
(555,0,o),
(698,143,o),
(698,351,cs),
(698,560,o),
(555,702,o),
(330,702,cs)
);
},
{
closed = 1;
nodes = (
(239,146,l),
(239,280,l),
(391,280,l),
(391,422,l),
(239,422,l),
(239,556,l),
(320,556,ls),
(448,556,o),
(524,480,o),
(524,351,cs),
(524,222,o),
(448,146,o),
(320,146,cs)
);
}
);
width = 732;
}
);
note = Eth;
unicode = 208;
},
{
glyphname = Ntilde;
layers = (
{
layerId = m01;
shapes = (
{
closed = 1;
nodes = (
(519,702,l),
(519,267,l),
(233,702,l),
(62,702,l),
(62,0,l),
(233,0,l),
(233,433,l),
(519,0,l),
(690,0,l),
(690,702,l)
);
},
{
closed = 1;
nodes = (
(263,751,l),
(268,782,o),
(284,796,o),
(307,796,cs),
(347,796,o),
(378,751,o),
(438,751,cs),
(508,751,o),
(559,794,o),
(576,899,c),
(488,899,l),
(484,868,o),
(468,854,o),
(445,854,cs),
(405,854,o),
(374,899,o),
(314,899,cs),
(243,899,o),
(193,856,o),
(176,751,c)
);
}
);
width = 752;
}
);
note = Ntilde;
unicode = 209;
},
{
glyphname = Ograve;
layers = (
{
layerId = m01;
shapes = (
{
closed = 1;
nodes = (
(753,564,o),
(594,712,o),
(394,712,cs),
(195,712,o),
(33,564,o),
(33,353,cs),
(33,142,o),
(195,-7,o),
(394,-7,cs),
(593,-7,o),
(753,142,o),
(753,353,cs)
);
},
{
closed = 1;
nodes = (
(208,478,o),
(280,557,o),
(394,557,cs),
(506,557,o),
(579,478,o),
(579,353,cs),
(579,230,o),
(506,149,o),
(394,149,cs),
(280,149,o),
(208,230,o),
(208,353,cs)
);
},
{
closed = 1;
nodes = (
(269,843,l),
(510,742,l),
(510,860,l),
(269,976,l)
);
}
);
width = 786;
}
);
note = Ograve;
unicode = 210;
},
{
glyphname = Oacute;
layers = (
{
layerId = m01;
shapes = (
{
closed = 1;
nodes = (
(753,564,o),
(594,712,o),
(394,712,cs),
(195,712,o),
(33,564,o),
(33,353,cs),
(33,142,o),
(195,-7,o),
(394,-7,cs),
(593,-7,o),
(753,142,o),
(753,353,cs)
);
},
{
closed = 1;
nodes = (
(208,478,o),
(280,557,o),
(394,557,cs),
(506,557,o),
(579,478,o),
(579,353,cs),
(579,230,o),
(506,149,o),
(394,149,cs),
(280,149,o),
(208,230,o),
(208,353,cs)
);
},
{
closed = 1;
nodes = (
(269,860,l),
(269,742,l),
(510,843,l),
(510,976,l)
);
}
);
width = 786;
}
);
note = Oacute;
unicode = 211;
},
{
glyphname = Ocircumflex;
layers = (
{
layerId = m01;
shapes = (
{
closed = 1;
nodes = (
(753,564,o),
(594,712,o),
(394,712,cs),
(195,712,o),
(33,564,o),
(33,353,cs),
(33,142,o),
(195,-7,o),
(394,-7,cs),
(593,-7,o),
(753,142,o),
(753,353,cs)
);
},
{
closed = 1;
nodes = (
(208,478,o),
(280,557,o),
(394,557,cs),
(506,557,o),
(579,478,o),
(579,353,cs),
(579,230,o),
(506,149,o),
(394,149,cs),
(280,149,o),
(208,230,o),
(208,353,cs)
);
},
{
closed = 1;
nodes = (
(548,860,l),
(393,939,l),
(238,860,l),
(238,742,l),
(393,824,l),
(548,742,l)
);
}
);
width = 786;
}
);
note = Ocircumflex;
unicode = 212;
},
{
glyphname = Otilde;
layers = (
{
layerId = m01;
shapes = (
{
closed = 1;
nodes = (
(753,564,o),
(594,712,o),
(394,712,cs),
(195,712,o),
(33,564,o),
(33,353,cs),
(33,142,o),
(195,-7,o),
(394,-7,cs),
(593,-7,o),
(753,142,o),
(753,353,cs)
);
},
{
closed = 1;
nodes = (
(208,478,o),
(280,557,o),
(394,557,cs),
(506,557,o),
(579,478,o),
(579,353,cs),
(579,230,o),
(506,149,o),
(394,149,cs),
(280,149,o),
(208,230,o),
(208,353,cs)
);
},
{
closed = 1;
nodes = (
(280,751,l),
(285,782,o),
(301,796,o),
(324,796,cs),
(364,796,o),
(395,751,o),
(455,751,cs),
(525,751,o),
(576,794,o),
(593,899,c),
(505,899,l),
(501,868,o),
(485,854,o),
(462,854,cs),
(422,854,o),
(391,899,o),
(331,899,cs),
(260,899,o),
(210,856,o),
(193,751,c)
);
}
);
width = 786;
}
);
note = Otilde;
unicode = 213;
},
{
glyphname = Odieresis;
layers = (
{
layerId = m01;
shapes = (
{
closed = 1;
nodes = (
(753,564,o),
(594,712,o),
(394,712,cs),
(195,712,o),
(33,564,o),
(33,353,cs),
(33,142,o),
(195,-7,o),
(394,-7,cs),
(593,-7,o),
(753,142,o),
(753,353,cs)
);
},
{
closed = 1;
nodes = (
(208,478,o),
(280,557,o),
(394,557,cs),
(506,557,o),
(579,478,o),
(579,353,cs),
(579,230,o),
(506,149,o),
(394,149,cs),
(280,149,o),
(208,230,o),
(208,353,cs)
);
},
{
closed = 1;
nodes = (
(335,766,o),
(367,798,o),
(367,839,cs),
(367,881,o),
(335,913,o),
(293,913,cs),
(252,913,o),
(220,881,o),
(220,839,cs),
(220,798,o),
(252,766,o),
(293,766,cs)
);
},
{
closed = 1;
nodes = (
(535,766,o),
(567,798,o),
(567,839,cs),
(567,881,o),
(535,913,o),
(493,913,cs),
(452,913,o),
(420,881,o),
(420,839,cs),
(420,798,o),
(452,766,o),
(493,766,cs)
);
}
);
width = 786;
}
);
note = Odieresis;
unicode = 214;
},
{
glyphname = multiply;
layers = (
{
layerId = m01;
shapes = (
{
closed = 1;
nodes = (
(180,107,l),
(317,245,l),
(456,106,l),
(568,217,l),
(428,357,l),
(561,490,l),
(449,600,l),
(318,467,l),
(185,600,l),
(73,489,l),
(206,356,l),
(69,217,l)
);
}
);
width = 637;
}
);
note = multiply;
unicode = 215;
},
{
glyphname = Oslash;
layers = (
{
layerId = m01;
shapes = (
{
closed = 1;
nodes = (
(752,449,o),
(719,532,o),
(664,594,c),
(764,704,l),
(660,704,l),
(607,646,l),
(547,688,o),
(474,712,o),
(393,712,cs),
(194,712,o),
(32,564,o),
(32,353,cs),
(32,257,o),
(66,173,o),
(122,111,c),
(22,1,l),
(126,1,l),
(179,60,l),
(239,17,o),
(313,-7,o),
(393,-7,cs),
(592,-7,o),
(752,142,o),
(752,353,cs)
);
},
{
closed = 1;
nodes = (
(207,478,o),
(279,557,o),
(393,557,cs),
(434,557,o),
(470,546,o),
(499,527,c),
(235,236,l),
(217,268,o),
(207,308,o),
(207,353,cs)
);
},
{
closed = 1;
nodes = (
(352,149,o),
(316,160,o),
(287,179,c),
(551,469,l),
(568,438,o),
(578,398,o),
(578,353,cs),
(578,230,o),
(505,149,o),
(393,149,cs)
);
}
);
width = 786;
}
);
note = Oslash;
unicode = 216;
},
{
glyphname = Ugrave;
layers = (
{
layerId = m01;
shapes = (
{
closed = 1;
nodes = (
(59,283,ls),
(59,89,o),
(186,-7,o),
(349,-7,cs),
(511,-7,o),
(647,89,o),
(647,283,cs),
(647,702,l),
(476,702,l),
(476,282,ls),
(476,199,o),
(433,151,o),
(352,151,cs),
(271,151,o),
(230,199,o),
(230,282,cs),
(230,702,l),
(59,702,l)
);
},
{
closed = 1;
nodes = (
(228,843,l),
(469,742,l),
(469,860,l),
(228,976,l)
);
}
);
width = 705;
}
);
note = Ugrave;
unicode = 217;
},
{
glyphname = Uacute;
layers = (
{
layerId = m01;
shapes = (
{
closed = 1;
nodes = (
(59,283,ls),
(59,89,o),
(186,-7,o),
(349,-7,cs),
(511,-7,o),
(647,89,o),
(647,283,cs),
(647,702,l),
(476,702,l),
(476,282,ls),
(476,199,o),
(433,151,o),
(352,151,cs),
(271,151,o),
(230,199,o),
(230,282,cs),
(230,702,l),
(59,702,l)
);
},
{
closed = 1;
nodes = (
(228,860,l),
(228,742,l),
(469,843,l),
(469,976,l)
);
}
);
width = 705;
}
);
note = Uacute;
unicode = 218;
},
{
glyphname = Ucircumflex;
layers = (
{
layerId = m01;
shapes = (
{
closed = 1;
nodes = (
(59,283,ls),
(59,89,o),
(186,-7,o),
(349,-7,cs),
(511,-7,o),
(647,89,o),
(647,283,cs),
(647,702,l),
(476,702,l),
(476,282,ls),
(476,199,o),
(433,151,o),
(352,151,cs),
(271,151,o),
(230,199,o),
(230,282,cs),
(230,702,l),
(59,702,l)
);
},
{
closed = 1;
nodes = (
(508,860,l),
(353,939,l),
(198,860,l),
(198,742,l),
(353,824,l),
(508,742,l)
);
}
);
width = 705;
}
);
note = Ucircumflex;
unicode = 219;
},
{
glyphname = Udieresis;
layers = (
{
layerId = m01;
shapes = (
{
closed = 1;
nodes = (
(59,283,ls),
(59,89,o),
(186,-7,o),
(349,-7,cs),
(511,-7,o),
(647,89,o),
(647,283,cs),
(647,702,l),
(476,702,l),
(476,282,ls),
(476,199,o),
(433,151,o),
(352,151,cs),
(271,151,o),
(230,199,o),
(230,282,cs),
(230,702,l),
(59,702,l)
);
},
{
closed = 1;
nodes = (
(294,766,o),
(326,798,o),
(326,839,cs),
(326,881,o),
(294,913,o),
(252,913,cs),
(211,913,o),
(179,881,o),
(179,839,cs),
(179,798,o),
(211,766,o),
(252,766,cs)
);
},
{
closed = 1;
nodes = (
(494,766,o),
(526,798,o),
(526,839,cs),
(526,881,o),
(494,913,o),
(452,913,cs),
(411,913,o),
(379,881,o),
(379,839,cs),
(379,798,o),
(411,766,o),
(452,766,cs)
);
}
);
width = 705;
}
);
note = Udieresis;
unicode = 220;
},
{
glyphname = Yacute;
layers = (
{
layerId = m01;
shapes = (
{
closed = 1;
nodes = (
(250,232,l),
(250,0,l),
(421,0,l),
(421,232,l),
(664,702,l),
(472,702,l),
(337,408,l),
(201,702,l),
(7,702,l)
);
},
{
closed = 1;
nodes = (
(211,860,l),
(211,742,l),
(452,843,l),
(452,976,l)
);
}
);
width = 671;
}
);
note = Yacute;
unicode = 221;
},
{
glyphname = Thorn;
layers = (
{
layerId = m01;
shapes = (
{
closed = 1;
nodes = (
(233,262,l),
(233,442,l),
(326,442,ls),
(394,442,o),
(423,406,o),
(423,352,cs),
(423,298,o),
(394,262,o),
(326,262,cs)
);
},
{
closed = 1;
nodes = (
(597,477,o),
(511,572,o),
(339,572,cs),
(231,572,l),
(231,702,l),
(62,702,l),
(62,0,l),
(233,0,l),
(233,133,l),
(339,133,ls),
(518,133,o),
(597,238,o),
(597,352,cs)
);
}
);
width = 624;
}
);
note = Thorn;
unicode = 222;
},
{
glyphname = germandbls;
layers = (
{
layerId = m01;
shapes = (
{
closed = 1;
nodes = (
(49,0,l),
(219,0,l),
(219,522,ls),
(219,587,o),
(252,626,o),
(324,626,cs),
(380,626,o),
(416,601,o),
(416,560,cs),
(416,496,o),
(305,452,o),
(305,366,cs),
(305,304,o),
(352,269,o),
(464,229,cs),
(532,205,o),
(547,187,o),
(547,158,cs),
(547,129,o),
(527,114,o),
(491,114,cs),
(450,114,o),
(423,140,o),
(418,181,c),
(261,181,l),
(277,58,o),
(362,-10,o),
(494,-10,cs),
(626,-10,o),
(712,62,o),
(712,168,cs),
(712,248,o),
(671,296,o),
(568,335,cs),
(488,364,o),
(476,376,o),
(476,394,cs),
(476,434,o),
(586,476,o),
(586,586,cs),
(586,684,o),
(487,768,o),
(333,768,cs),
(157,768,o),
(49,673,o),
(49,534,cs)
);
}
);
width = 760;
}
);
note = germandbls;
unicode = 223;
},
{
glyphname = agrave;
layers = (
{
layerId = m01;
shapes = (
{
closed = 1;
nodes = (
(28,104,o),
(137,-8,o),
(273,-8,cs),
(356,-8,o),
(415,30,o),
(446,79,c),
(446,0,l),
(617,0,l),
(617,558,l),
(446,558,l),
(446,479,l),
(416,528,o),
(357,566,o),
(274,566,cs),
(137,566,o),
(28,456,o),
(28,280,cs)
);
},
{
closed = 1;
nodes = (
(446,190,o),
(389,141,o),
(324,141,cs),
(260,141,o),
(202,191,o),
(202,280,cs),
(202,369,o),
(260,417,o),
(324,417,cs),
(389,417,o),
(446,368,o),
(446,279,cs)
);
},
{
closed = 1;
nodes = (
(218,697,l),
(459,596,l),
(459,714,l),
(218,830,l)
);
}
);
width = 679;
}
);
note = agrave;
unicode = 224;
},
{
glyphname = aacute;
layers = (
{
layerId = m01;
shapes = (
{
closed = 1;
nodes = (
(28,104,o),
(137,-8,o),
(273,-8,cs),
(356,-8,o),
(415,30,o),
(446,79,c),
(446,0,l),
(617,0,l),
(617,558,l),
(446,558,l),
(446,479,l),
(416,528,o),
(357,566,o),
(274,566,cs),
(137,566,o),
(28,456,o),
(28,280,cs)
);
},
{
closed = 1;
nodes = (
(446,190,o),
(389,141,o),
(324,141,cs),
(260,141,o),
(202,191,o),
(202,280,cs),
(202,369,o),
(260,417,o),
(324,417,cs),
(389,417,o),
(446,368,o),
(446,279,cs)
);
},
{
closed = 1;
nodes = (
(218,714,l),
(218,596,l),
(459,697,l),
(459,830,l)
);
}
);
width = 679;
}
);
note = aacute;
unicode = 225;
},
{
glyphname = acircumflex;
layers = (
{
layerId = m01;
shapes = (
{
closed = 1;
nodes = (
(28,104,o),
(137,-8,o),
(273,-8,cs),
(356,-8,o),
(415,30,o),
(446,79,c),
(446,0,l),
(617,0,l),
(617,558,l),
(446,558,l),
(446,479,l),
(416,528,o),
(357,566,o),
(274,566,cs),
(137,566,o),
(28,456,o),
(28,280,cs)
);
},
{
closed = 1;
nodes = (
(446,190,o),
(389,141,o),
(324,141,cs),
(260,141,o),
(202,191,o),
(202,280,cs),
(202,369,o),
(260,417,o),
(324,417,cs),
(389,417,o),
(446,368,o),
(446,279,cs)
);
},
{
closed = 1;
nodes = (
(498,714,l),
(343,793,l),
(188,714,l),
(188,596,l),
(343,678,l),
(498,596,l)
);
}
);
width = 679;
}
);
note = acircumflex;
unicode = 226;
},
{
glyphname = atilde;
layers = (
{
layerId = m01;
shapes = (
{
closed = 1;
nodes = (
(28,104,o),
(137,-8,o),
(273,-8,cs),
(356,-8,o),
(415,30,o),
(446,79,c),
(446,0,l),
(617,0,l),
(617,558,l),
(446,558,l),
(446,479,l),
(416,528,o),
(357,566,o),
(274,566,cs),
(137,566,o),
(28,456,o),
(28,280,cs)
);
},
{
closed = 1;
nodes = (
(446,190,o),
(389,141,o),
(324,141,cs),
(260,141,o),
(202,191,o),
(202,280,cs),
(202,369,o),
(260,417,o),
(324,417,cs),
(389,417,o),
(446,368,o),
(446,279,cs)
);
},
{
closed = 1;
nodes = (
(230,605,l),
(235,636,o),
(251,650,o),
(274,650,cs),
(314,650,o),
(345,605,o),
(405,605,cs),
(475,605,o),
(526,648,o),
(543,753,c),
(455,753,l),
(451,722,o),
(435,708,o),
(412,708,cs),
(372,708,o),
(341,753,o),
(281,753,cs),
(210,753,o),
(160,710,o),
(143,605,c)
);
}
);
width = 679;
}
);
note = atilde;
unicode = 227;
},
{
glyphname = adieresis;
layers = (
{
layerId = m01;
shapes = (
{
closed = 1;
nodes = (
(28,104,o),
(137,-8,o),
(273,-8,cs),
(356,-8,o),
(415,30,o),
(446,79,c),
(446,0,l),
(617,0,l),
(617,558,l),
(446,558,l),
(446,479,l),
(416,528,o),
(357,566,o),
(274,566,cs),
(137,566,o),
(28,456,o),
(28,280,cs)
);
},
{
closed = 1;
nodes = (
(446,190,o),
(389,141,o),
(324,141,cs),
(260,141,o),
(202,191,o),
(202,280,cs),
(202,369,o),
(260,417,o),
(324,417,cs),
(389,417,o),
(446,368,o),
(446,279,cs)
);
},
{
closed = 1;
nodes = (
(284,620,o),
(316,652,o),
(316,693,cs),
(316,735,o),
(284,767,o),
(242,767,cs),
(201,767,o),
(169,735,o),
(169,693,cs),
(169,652,o),
(201,620,o),
(242,620,cs)
);
},
{
closed = 1;
nodes = (
(484,620,o),
(516,652,o),
(516,693,cs),
(516,735,o),
(484,767,o),
(442,767,cs),
(401,767,o),
(369,735,o),
(369,693,cs),
(369,652,o),
(401,620,o),
(442,620,cs)
);
}
);
width = 679;
}
);
note = adieresis;
unicode = 228;
},
{
glyphname = aring;
layers = (
{
layerId = m01;
shapes = (
{
closed = 1;
nodes = (
(28,104,o),
(137,-8,o),
(273,-8,cs),
(356,-8,o),
(415,30,o),
(446,79,c),
(446,0,l),
(617,0,l),
(617,558,l),
(446,558,l),
(446,479,l),
(416,528,o),
(357,566,o),
(274,566,cs),
(137,566,o),
(28,456,o),
(28,280,cs)
);
},
{
closed = 1;
nodes = (
(446,190,o),
(389,141,o),
(324,141,cs),
(260,141,o),
(202,191,o),
(202,280,cs),
(202,369,o),
(260,417,o),
(324,417,cs),
(389,417,o),
(446,368,o),
(446,279,cs)
);
},
{
closed = 1;
nodes = (
(276,841,o),
(221,795,o),
(221,720,cs),
(221,645,o),
(276,599,o),
(343,599,cs),
(411,599,o),
(466,645,o),
(466,720,cs),
(466,795,o),
(411,841,o),
(343,841,cs)
);
},
{
closed = 1;
nodes = (
(317,671,o),
(296,691,o),
(296,720,cs),
(296,750,o),
(317,769,o),
(343,769,cs),
(370,769,o),
(391,750,o),
(391,720,cs),
(391,691,o),
(370,671,o),
(343,671,cs)
);
}
);
width = 679;
}
);
note = aring;
unicode = 229;
},
{
glyphname = ae;
layers = (
{
layerId = m01;
shapes = (
{
closed = 1;
nodes = (
(812,429,o),
(865,392,o),
(866,327,c),
(622,327,l),
(634,396,o),
(686,429,o),
(746,429,cs)
);
},
{
closed = 1;
nodes = (
(845,185,l),
(831,152,o),
(798,129,o),
(742,129,cs),
(686,129,o),
(632,162,o),
(622,240,c),
(1036,240,l),
(1039,257,o),
(1041,273,o),
(1041,289,cs),
(1041,456,o),
(938,566,o),
(793,566,cs),
(713,566,o),
(652,538,o),
(611,480,c),
(611,558,l),
(450,558,l),
(450,480,l),
(412,535,o),
(353,566,o),
(277,566,cs),
(137,566,o),
(28,456,o),
(28,280,cs),
(28,104,o),
(137,-8,o),
(274,-8,cs),
(353,-8,o),
(414,29,o),
(448,80,c),
(448,0,l),
(611,0,l),
(611,80,l),
(646,27,o),
(711,-8,o),
(793,-8,cs),
(915,-8,o),
(1000,76,o),
(1027,185,c)
);
},
{
closed = 1;
nodes = (
(202,369,o),
(260,417,o),
(324,417,cs),
(389,417,o),
(446,368,o),
(446,279,cs),
(446,190,o),
(389,141,o),
(324,141,cs),
(260,141,o),
(202,191,o),
(202,280,cs)
);
}
);
width = 1069;
}
);
note = ae;
unicode = 230;
},
{
glyphname = ccedilla;
layers = (
{
layerId = m01;
shapes = (
{
closed = 1;
nodes = (
(28,122,o),
(120,17,o),
(255,-4,c),
(255,-126,l),
(326,-126,ls),
(351,-126,o),
(366,-132,o),
(366,-151,cs),
(366,-171,o),
(351,-177,o),
(326,-177,cs),
(195,-177,l),
(195,-271,l),
(349,-271,ls),
(418,-271,o),
(488,-237,o),
(488,-155,cs),
(488,-72,o),
(418,-41,o),
(358,-41,c),
(358,-4,l),
(471,13,o),
(551,89,o),
(576,202,c),
(394,202,l),
(379,161,o),
(352,138,o),
(305,138,cs),
(244,138,o),
(202,186,o),
(202,279,cs),
(202,372,o),
(244,420,o),
(305,420,cs),
(352,420,o),
(380,395,o),
(394,356,c),
(576,356,l),
(547,489,o),
(448,566,o),
(308,566,cs),
(144,566,o),
(28,455,o),
(28,279,cs)
);
}
);
width = 605;
}
);
note = ccedilla;
unicode = 231;
},
{
glyphname = egrave;
layers = (
{
layerId = m01;
shapes = (
{
closed = 1;
nodes = (
(365,429,o),
(413,394,o),
(413,333,c),
(199,333,l),
(209,395,o),
(252,429,o),
(308,429,cs)
);
},
{
closed = 1;
nodes = (
(393,185,l),
(379,155,o),
(352,131,o),
(304,131,cs),
(249,131,o),
(204,165,o),
(198,238,c),
(585,238,l),
(587,255,o),
(588,272,o),
(588,288,cs),
(588,458,o),
(473,566,o),
(310,566,cs),
(144,566,o),
(28,456,o),
(28,279,cs),
(28,102,o),
(146,-8,o),
(310,-8,cs),
(449,-8,o),
(548,76,o),
(575,185,c)
);
},
{
closed = 1;
nodes = (
(184,701,l),
(425,600,l),
(425,718,l),
(184,834,l)
);
}
);
width = 616;
}
);
note = egrave;
unicode = 232;
},
{
glyphname = eacute;
layers = (
{
layerId = m01;
shapes = (
{
closed = 1;
nodes = (
(365,429,o),
(413,394,o),
(413,333,c),
(199,333,l),
(209,395,o),
(252,429,o),
(308,429,cs)
);
},
{
closed = 1;
nodes = (
(393,185,l),
(379,155,o),
(352,131,o),
(304,131,cs),
(249,131,o),
(204,165,o),
(198,238,c),
(585,238,l),
(587,255,o),
(588,272,o),
(588,288,cs),
(588,458,o),
(473,566,o),
(310,566,cs),
(144,566,o),
(28,456,o),
(28,279,cs),
(28,102,o),
(146,-8,o),
(310,-8,cs),
(449,-8,o),
(548,76,o),
(575,185,c)
);
},
{
closed = 1;
nodes = (
(184,718,l),
(184,600,l),
(425,701,l),
(425,834,l)
);
}
);
width = 616;
}
);
note = eacute;
unicode = 233;
},
{
glyphname = ecircumflex;
layers = (
{
layerId = m01;
shapes = (
{
closed = 1;
nodes = (
(365,429,o),
(413,394,o),
(413,333,c),
(199,333,l),
(209,395,o),
(252,429,o),
(308,429,cs)
);
},
{
closed = 1;
nodes = (
(393,185,l),
(379,155,o),
(352,131,o),
(304,131,cs),
(249,131,o),
(204,165,o),
(198,238,c),
(585,238,l),
(587,255,o),
(588,272,o),
(588,288,cs),
(588,458,o),
(473,566,o),
(310,566,cs),
(144,566,o),
(28,456,o),
(28,279,cs),
(28,102,o),
(146,-8,o),
(310,-8,cs),
(449,-8,o),
(548,76,o),
(575,185,c)
);
},
{
closed = 1;
nodes = (
(463,718,l),
(308,797,l),
(153,718,l),
(153,600,l),
(308,682,l),
(463,600,l)
);
}
);
width = 616;
}
);
note = ecircumflex;
unicode = 234;
},
{
glyphname = edieresis;
layers = (
{
layerId = m01;
shapes = (
{
closed = 1;
nodes = (
(365,429,o),
(413,394,o),
(413,333,c),
(199,333,l),
(209,395,o),
(252,429,o),
(308,429,cs)
);
},
{
closed = 1;
nodes = (
(393,185,l),
(379,155,o),
(352,131,o),
(304,131,cs),
(249,131,o),
(204,165,o),
(198,238,c),
(585,238,l),
(587,255,o),
(588,272,o),
(588,288,cs),
(588,458,o),
(473,566,o),
(310,566,cs),
(144,566,o),
(28,456,o),
(28,279,cs),
(28,102,o),
(146,-8,o),
(310,-8,cs),
(449,-8,o),
(548,76,o),
(575,185,c)
);
},
{
closed = 1;
nodes = (
(249,624,o),
(281,656,o),
(281,697,cs),
(281,739,o),
(249,771,o),
(207,771,cs),
(166,771,o),
(134,739,o),
(134,697,cs),
(134,656,o),
(166,624,o),
(207,624,cs)
);
},
{
closed = 1;
nodes = (
(449,624,o),
(481,656,o),
(481,697,cs),
(481,739,o),
(449,771,o),
(407,771,cs),
(366,771,o),
(334,739,o),
(334,697,cs),
(334,656,o),
(366,624,o),
(407,624,cs)
);
}
);
width = 616;
}
);
note = edieresis;
unicode = 235;
},
{
glyphname = igrave;
layers = (
{
layerId = m01;
shapes = (
{
closed = 1;
nodes = (
(75,0,l),
(246,0,l),
(246,558,l),
(75,558,l)
);
},
{
closed = 1;
nodes = (
(36,697,l),
(277,596,l),
(277,714,l),
(36,830,l)
);
}
);
width = 321;
}
);
note = igrave;
unicode = 236;
},
{
glyphname = iacute;
layers = (
{
layerId = m01;
shapes = (
{
closed = 1;
nodes = (
(75,0,l),
(246,0,l),
(246,558,l),
(75,558,l)
);
},
{
closed = 1;
nodes = (
(36,714,l),
(36,596,l),
(277,697,l),
(277,830,l)
);
}
);
width = 321;
}
);
note = iacute;
unicode = 237;
},
{
glyphname = icircumflex;
layers = (
{
layerId = m01;
shapes = (
{
closed = 1;
nodes = (
(75,0,l),
(246,0,l),
(246,558,l),
(75,558,l)
);
},
{
closed = 1;
nodes = (
(316,714,l),
(161,793,l),
(6,714,l),
(6,596,l),
(161,678,l),
(316,596,l)
);
}
);
width = 321;
}
);
note = icircumflex;
unicode = 238;
},
{
glyphname = idieresis;
layers = (
{
layerId = m01;
shapes = (
{
closed = 1;
nodes = (
(75,0,l),
(246,0,l),
(246,558,l),
(75,558,l)
);
},
{
closed = 1;
nodes = (
(102,620,o),
(134,652,o),
(134,693,cs),
(134,735,o),
(102,767,o),
(60,767,cs),
(19,767,o),
(-13,735,o),
(-13,693,cs),
(-13,652,o),
(19,620,o),
(60,620,cs)
);
},
{
closed = 1;
nodes = (
(302,620,o),
(334,652,o),
(334,693,cs),
(334,735,o),
(302,767,o),
(260,767,cs),
(219,767,o),
(187,735,o),
(187,693,cs),
(187,652,o),
(219,620,o),
(260,620,cs)
);
}
);
width = 321;
}
);
note = idieresis;
unicode = 239;
},
{
glyphname = eth;
layers = (
{
layerId = m01;
shapes = (
{
closed = 1;
nodes = (
(28,104,o),
(160,-7,o),
(321,-7,cs),
(482,-7,o),
(612,104,o),
(612,317,cs),
(612,441,o),
(565,559,o),
(490,657,c),
(539,672,l),
(539,739,l),
(444,710,l),
(434,720,o),
(424,730,o),
(414,740,c),
(257,740,l),
(281,719,o),
(304,697,o),
(326,674,c),
(264,655,l),
(264,588,l),
(369,620,l),
(390,592,o),
(407,563,o),
(421,533,c),
(384,553,o),
(348,564,o),
(304,564,cs),
(151,564,o),
(28,456,o),
(28,280,cs)
);
},
{
closed = 1;
nodes = (
(203,376,o),
(262,418,o),
(320,418,cs),
(377,418,o),
(437,376,o),
(437,279,cs),
(437,182,o),
(379,139,o),
(321,139,cs),
(263,139,o),
(203,182,o),
(203,279,cs)
);
}
);
width = 640;
}
);
note = eth;
unicode = 240;
},
{
glyphname = ntilde;
layers = (
{
layerId = m01;
shapes = (
{
closed = 1;
nodes = (
(233,303,ls),
(233,379,o),
(275,421,o),
(340,421,cs),
(405,421,o),
(447,379,o),
(447,303,cs),
(447,0,l),
(617,0,l),
(617,326,ls),
(617,476,o),
(531,564,o),
(402,564,cs),
(327,564,o),
(267,531,o),
(233,484,c),
(233,558,l),
(62,558,l),
(62,0,l),
(233,0,l)
);
},
{
closed = 1;
nodes = (
(248,605,l),
(253,636,o),
(269,650,o),
(292,650,cs),
(332,650,o),
(363,605,o),
(423,605,cs),
(493,605,o),
(544,648,o),
(561,753,c),
(473,753,l),
(469,722,o),
(453,708,o),
(430,708,cs),
(390,708,o),
(359,753,o),
(299,753,cs),
(228,753,o),
(178,710,o),
(161,605,c)
);
}
);
width = 674;
}
);
note = ntilde;
unicode = 241;
},
{
glyphname = ograve;
layers = (
{
layerId = m01;
shapes = (
{
closed = 1;
nodes = (
(608,456,o),
(482,566,o),
(318,566,cs),
(155,566,o),
(28,456,o),
(28,279,cs),
(28,102,o),
(152,-8,o),
(316,-8,cs),
(480,-8,o),
(608,102,o),
(608,279,cs)
);
},
{
closed = 1;
nodes = (
(202,374,o),
(256,418,o),
(318,418,cs),
(378,418,o),
(434,374,o),
(434,279,cs),
(434,185,o),
(377,140,o),
(316,140,cs),
(254,140,o),
(202,185,o),
(202,279,cs)
);
},
{
closed = 1;
nodes = (
(207,701,l),
(448,600,l),
(448,718,l),
(207,834,l)
);
}
);
width = 637;
}
);
note = ograve;
unicode = 242;
},
{
glyphname = oacute;
layers = (
{
layerId = m01;
shapes = (
{
closed = 1;
nodes = (
(608,456,o),
(482,566,o),
(318,566,cs),
(155,566,o),
(28,456,o),
(28,279,cs),
(28,102,o),
(152,-8,o),
(316,-8,cs),
(480,-8,o),
(608,102,o),
(608,279,cs)
);
},
{
closed = 1;
nodes = (
(202,374,o),
(256,418,o),
(318,418,cs),
(378,418,o),
(434,374,o),
(434,279,cs),
(434,185,o),
(377,140,o),
(316,140,cs),
(254,140,o),
(202,185,o),
(202,279,cs)
);
},
{
closed = 1;
nodes = (
(207,718,l),
(207,600,l),
(448,701,l),
(448,834,l)
);
}
);
width = 637;
}
);
note = oacute;
unicode = 243;
},
{
glyphname = ocircumflex;
layers = (
{
layerId = m01;
shapes = (
{
closed = 1;
nodes = (
(608,456,o),
(482,566,o),
(318,566,cs),
(155,566,o),
(28,456,o),
(28,279,cs),
(28,102,o),
(152,-8,o),
(316,-8,cs),
(480,-8,o),
(608,102,o),
(608,279,cs)
);
},
{
closed = 1;
nodes = (
(202,374,o),
(256,418,o),
(318,418,cs),
(378,418,o),
(434,374,o),
(434,279,cs),
(434,185,o),
(377,140,o),
(316,140,cs),
(254,140,o),
(202,185,o),
(202,279,cs)
);
},
{
closed = 1;
nodes = (
(487,718,l),
(332,797,l),
(177,718,l),
(177,600,l),
(332,682,l),
(487,600,l)
);
}
);
width = 637;
}
);
note = ocircumflex;
unicode = 244;
},
{
glyphname = otilde;
layers = (
{
layerId = m01;
shapes = (
{
closed = 1;
nodes = (
(608,456,o),
(482,566,o),
(318,566,cs),
(155,566,o),
(28,456,o),
(28,279,cs),
(28,102,o),
(152,-8,o),
(316,-8,cs),
(480,-8,o),
(608,102,o),
(608,279,cs)
);
},
{
closed = 1;
nodes = (
(202,374,o),
(256,418,o),
(318,418,cs),
(378,418,o),
(434,374,o),
(434,279,cs),
(434,185,o),
(377,140,o),
(316,140,cs),
(254,140,o),
(202,185,o),
(202,279,cs)
);
},
{
closed = 1;
nodes = (
(218,609,l),
(223,640,o),
(239,654,o),
(262,654,cs),
(302,654,o),
(333,609,o),
(393,609,cs),
(463,609,o),
(514,652,o),
(531,757,c),
(443,757,l),
(439,726,o),
(423,712,o),
(400,712,cs),
(360,712,o),
(329,757,o),
(269,757,cs),
(198,757,o),
(148,714,o),
(131,609,c)
);
}
);
width = 637;
}
);
note = otilde;
unicode = 245;
},
{
glyphname = odieresis;
layers = (
{
layerId = m01;
shapes = (
{
closed = 1;
nodes = (
(608,456,o),
(482,566,o),
(318,566,cs),
(155,566,o),
(28,456,o),
(28,279,cs),
(28,102,o),
(152,-8,o),
(316,-8,cs),
(480,-8,o),
(608,102,o),
(608,279,cs)
);
},
{
closed = 1;
nodes = (
(202,374,o),
(256,418,o),
(318,418,cs),
(378,418,o),
(434,374,o),
(434,279,cs),
(434,185,o),
(377,140,o),
(316,140,cs),
(254,140,o),
(202,185,o),
(202,279,cs)
);
},
{
closed = 1;
nodes = (
(273,624,o),
(305,656,o),
(305,697,cs),
(305,739,o),
(273,771,o),
(231,771,cs),
(190,771,o),
(158,739,o),
(158,697,cs),
(158,656,o),
(190,624,o),
(231,624,cs)
);
},
{
closed = 1;
nodes = (
(473,624,o),
(505,656,o),
(505,697,cs),
(505,739,o),
(473,771,o),
(431,771,cs),
(390,771,o),
(358,739,o),
(358,697,cs),
(358,656,o),
(390,624,o),
(431,624,cs)
);
}
);
width = 637;
}
);
note = odieresis;
unicode = 246;
},
{
glyphname = divide;
layers = (
{
layerId = m01;
shapes = (
{
closed = 1;
nodes = (
(53,275,l),
(564,275,l),
(564,426,l),
(53,426,l)
);
},
{
closed = 1;
nodes = (
(413,176,o),
(372,217,o),
(312,217,cs),
(251,217,o),
(210,176,o),
(210,123,cs),
(210,72,o),
(251,31,o),
(312,31,cs),
(372,31,o),
(413,72,o),
(413,123,cs)
);
},
{
closed = 1;
nodes = (
(413,629,o),
(372,670,o),
(312,670,cs),
(251,670,o),
(210,629,o),
(210,576,cs),
(210,525,o),
(251,484,o),
(312,484,cs),
(372,484,o),
(413,525,o),
(413,576,cs)
);
}
);
width = 611;
}
);
note = divide;
unicode = 247;
},
{
glyphname = oslash;
layers = (
{
layerId = m01;
shapes = (
{
closed = 1;
nodes = (
(604,358,o),
(579,423,o),
(537,472,c),
(616,558,l),
(524,558,l),
(486,517,l),
(438,549,o),
(379,566,o),
(314,566,cs),
(151,566,o),
(24,456,o),
(24,279,cs),
(24,200,o),
(49,134,o),
(91,85,c),
(13,0,l),
(105,0,l),
(142,40,l),
(189,9,o),
(247,-8,o),
(312,-8,cs),
(476,-8,o),
(604,102,o),
(604,279,cs)
);
},
{
closed = 1;
nodes = (
(198,374,o),
(252,418,o),
(314,418,cs),
(337,418,o),
(359,412,o),
(378,398,c),
(209,214,l),
(202,232,o),
(198,254,o),
(198,279,cs)
);
},
{
closed = 1;
nodes = (
(289,140,o),
(268,146,o),
(250,158,c),
(419,343,l),
(426,325,o),
(430,304,o),
(430,279,cs),
(430,185,o),
(373,140,o),
(312,140,cs)
);
}
);
width = 629;
}
);
note = oslash;
unicode = 248;
},
{
glyphname = ugrave;
layers = (
{
layerId = m01;
shapes = (
{
closed = 1;
nodes = (
(613,558,l),
(442,558,l),
(442,255,ls),
(442,179,o),
(400,137,o),
(334,137,cs),
(270,137,o),
(227,179,o),
(227,255,cs),
(227,558,l),
(57,558,l),
(57,232,ls),
(57,83,o),
(144,-6,o),
(273,-6,cs),
(348,-6,o),
(408,28,o),
(442,76,c),
(442,0,l),
(613,0,l)
);
},
{
closed = 1;
nodes = (
(213,697,l),
(454,596,l),
(454,714,l),
(213,830,l)
);
}
);
width = 674;
}
);
note = ugrave;
unicode = 249;
},
{
glyphname = uacute;
layers = (
{
layerId = m01;
shapes = (
{
closed = 1;
nodes = (
(613,558,l),
(442,558,l),
(442,255,ls),
(442,179,o),
(400,137,o),
(334,137,cs),
(270,137,o),
(227,179,o),
(227,255,cs),
(227,558,l),
(57,558,l),
(57,232,ls),
(57,83,o),
(144,-6,o),
(273,-6,cs),
(348,-6,o),
(408,28,o),
(442,76,c),
(442,0,l),
(613,0,l)
);
},
{
closed = 1;
nodes = (
(213,714,l),
(213,596,l),
(454,697,l),
(454,830,l)
);
}
);
width = 674;
}
);
note = uacute;
unicode = 250;
},
{
glyphname = ucircumflex;
layers = (
{
layerId = m01;
shapes = (
{
closed = 1;
nodes = (
(613,558,l),
(442,558,l),
(442,255,ls),
(442,179,o),
(400,137,o),
(334,137,cs),
(270,137,o),
(227,179,o),
(227,255,cs),
(227,558,l),
(57,558,l),
(57,232,ls),
(57,83,o),
(144,-6,o),
(273,-6,cs),
(348,-6,o),
(408,28,o),
(442,76,c),
(442,0,l),
(613,0,l)
);
},
{
closed = 1;
nodes = (
(493,714,l),
(338,793,l),
(183,714,l),
(183,596,l),
(338,678,l),
(493,596,l)
);
}
);
width = 674;
}
);
note = ucircumflex;
unicode = 251;
},
{
glyphname = udieresis;
layers = (
{
layerId = m01;
shapes = (
{
closed = 1;
nodes = (
(613,558,l),
(442,558,l),
(442,255,ls),
(442,179,o),
(400,137,o),
(334,137,cs),
(270,137,o),
(227,179,o),
(227,255,cs),
(227,558,l),
(57,558,l),
(57,232,ls),
(57,83,o),
(144,-6,o),
(273,-6,cs),
(348,-6,o),
(408,28,o),
(442,76,c),
(442,0,l),
(613,0,l)
);
},
{
closed = 1;
nodes = (
(279,620,o),
(311,652,o),
(311,693,cs),
(311,735,o),
(279,767,o),
(237,767,cs),
(196,767,o),
(164,735,o),
(164,693,cs),
(164,652,o),
(196,620,o),
(237,620,cs)
);
},
{
closed = 1;
nodes = (
(479,620,o),
(511,652,o),
(511,693,cs),
(511,735,o),
(479,767,o),
(437,767,cs),
(396,767,o),
(364,735,o),
(364,693,cs),
(364,652,o),
(396,620,o),
(437,620,cs)
);
}
);
width = 674;
}
);
note = udieresis;
unicode = 252;
},
{
glyphname = yacute;
layers = (
{
layerId = m01;
shapes = (
{
closed = 1;
nodes = (
(319,209,l),
(190,558,l),
(-1,558,l),
(226,19,l),
(98,-265,l),
(282,-265,l),
(632,558,l),
(447,558,l)
);
},
{
closed = 1;
nodes = (
(191,714,l),
(191,596,l),
(432,697,l),
(432,830,l)
);
}
);
width = 632;
}
);
note = yacute;
unicode = 253;
},
{
glyphname = thorn;
layers = (
{
layerId = m01;
shapes = (
{
closed = 1;
nodes = (
(233,740,l),
(62,740,l),
(62,-266,l),
(233,-266,l),
(233,81,l),
(270,27,o),
(323,-7,o),
(397,-7,cs),
(536,-7,o),
(651,108,o),
(651,278,cs),
(651,448,o),
(536,564,o),
(397,564,cs),
(323,564,o),
(269,535,o),
(233,485,c)
);
},
{
closed = 1;
nodes = (
(477,184,o),
(413,141,o),
(355,141,cs),
(297,141,o),
(233,185,o),
(233,279,cs),
(233,373,o),
(297,416,o),
(355,416,cs),
(413,416,o),
(477,372,o),
(477,278,cs)
);
}
);
width = 679;
}
);
note = thorn;
unicode = 254;
},
{
glyphname = ydieresis;
layers = (
{
layerId = m01;
shapes = (
{
closed = 1;
nodes = (
(319,209,l),
(190,558,l),
(-1,558,l),
(226,19,l),
(98,-265,l),
(282,-265,l),
(632,558,l),
(447,558,l)
);
},
{
closed = 1;
nodes = (
(257,620,o),
(289,652,o),
(289,693,cs),
(289,735,o),
(257,767,o),
(215,767,cs),
(174,767,o),
(142,735,o),
(142,693,cs),
(142,652,o),
(174,620,o),
(215,620,cs)
);
},
{
closed = 1;
nodes = (
(457,620,o),
(489,652,o),
(489,693,cs),
(489,735,o),
(457,767,o),
(415,767,cs),
(374,767,o),
(342,735,o),
(342,693,cs),
(342,652,o),
(374,620,o),
(415,620,cs)
);
}
);
width = 632;
}
);
note = ydieresis;
unicode = 255;
},
{
glyphname = Amacron;
layers = (
{
layerId = m01;
shapes = (
{
closed = 1;
nodes = (
(541,0,l),
(722,0,l),
(468,702,l),
(270,702,l),
(16,0,l),
(195,0,l),
(237,124,l),
(499,124,l)
);
},
{
closed = 1;
nodes = (
(169,774,l),
(569,774,l),
(569,892,l),
(169,892,l)
);
},
{
closed = 1;
nodes = (
(455,256,l),
(282,256,l),
(368,513,l)
);
}
);
width = 737;
}
);
note = Amacron;
unicode = 256;
},
{
glyphname = amacron;
layers = (
{
layerId = m01;
shapes = (
{
closed = 1;
nodes = (
(28,104,o),
(137,-8,o),
(273,-8,cs),
(356,-8,o),
(415,30,o),
(446,79,c),
(446,0,l),
(617,0,l),
(617,558,l),
(446,558,l),
(446,479,l),
(416,528,o),
(357,566,o),
(274,566,cs),
(137,566,o),
(28,456,o),
(28,280,cs)
);
},
{
closed = 1;
nodes = (
(446,190,o),
(389,141,o),
(324,141,cs),
(260,141,o),
(202,191,o),
(202,280,cs),
(202,369,o),
(260,417,o),
(324,417,cs),
(389,417,o),
(446,368,o),
(446,279,cs)
);
},
{
closed = 1;
nodes = (
(143,628,l),
(543,628,l),
(543,746,l),
(143,746,l)
);
}
);
width = 679;
}
);
note = amacron;
unicode = 257;
},
{
glyphname = Abreve;
layers = (
{
layerId = m01;
shapes = (
{
closed = 1;
nodes = (
(541,0,l),
(722,0,l),
(468,702,l),
(270,702,l),
(16,0,l),
(195,0,l),
(237,124,l),
(499,124,l)
);
},
{
closed = 1;
nodes = (
(540,937,l),
(454,937,l),
(454,895,o),
(434,870,o),
(369,870,cs),
(304,870,o),
(284,895,o),
(284,937,c),
(199,937,l),
(199,918,ls),
(199,806,o),
(269,745,o),
(369,745,cs),
(469,745,o),
(540,805,o),
(540,917,cs)
);
},
{
closed = 1;
nodes = (
(455,256,l),
(282,256,l),
(368,513,l)
);
}
);
width = 737;
}
);
note = Abreve;
unicode = 258;
},
{
glyphname = abreve;
layers = (
{
layerId = m01;
shapes = (
{
closed = 1;
nodes = (
(28,104,o),
(137,-8,o),
(273,-8,cs),
(356,-8,o),
(415,30,o),
(446,79,c),
(446,0,l),
(617,0,l),
(617,558,l),
(446,558,l),
(446,479,l),
(416,528,o),
(357,566,o),
(274,566,cs),
(137,566,o),
(28,456,o),
(28,280,cs)
);
},
{
closed = 1;
nodes = (
(446,190,o),
(389,141,o),
(324,141,cs),
(260,141,o),
(202,191,o),
(202,280,cs),
(202,369,o),
(260,417,o),
(324,417,cs),
(389,417,o),
(446,368,o),
(446,279,cs)
);
},
{
closed = 1;
nodes = (
(514,791,l),
(428,791,l),
(428,749,o),
(408,724,o),
(343,724,cs),
(278,724,o),
(258,749,o),
(258,791,c),
(173,791,l),
(173,772,ls),
(173,660,o),
(243,599,o),
(343,599,cs),
(443,599,o),
(514,659,o),
(514,771,cs)
);
}
);
width = 679;
}
);
note = abreve;
unicode = 259;
},
{
glyphname = Aogonek;
layers = (
{
layerId = m01;
shapes = (
{
closed = 1;
nodes = (
(270,702,l),
(16,0,l),
(195,0,l),
(237,124,l),
(499,124,l),
(539,6,l),
(497,-27,o),
(483,-61,o),
(483,-100,cs),
(483,-180,o),
(548,-217,o),
(630,-217,cs),
(667,-217,o),
(700,-211,o),
(729,-202,c),
(729,-106,l),
(700,-116,o),
(675,-121,o),
(654,-121,cs),
(625,-121,o),
(609,-108,o),
(609,-86,cs),
(609,-66,o),
(622,-46,o),
(675,-22,cs),
(722,0,l),
(468,702,l)
);
},
{
closed = 1;
nodes = (
(455,256,l),
(282,256,l),
(368,513,l)
);
}
);
width = 737;
}
);
note = Aogonek;
unicode = 260;
},
{
glyphname = aogonek;
layers = (
{
layerId = m01;
shapes = (
{
closed = 1;
nodes = (
(28,104,o),
(137,-8,o),
(273,-8,cs),
(356,-8,o),
(415,30,o),
(446,79,c),
(446,10,l),
(395,-26,o),
(378,-63,o),
(378,-103,cs),
(378,-180,o),
(443,-217,o),
(526,-217,cs),
(562,-217,o),
(596,-211,o),
(624,-202,c),
(624,-106,l),
(596,-116,o),
(569,-121,o),
(548,-121,cs),
(520,-121,o),
(504,-108,o),
(504,-88,cs),
(504,-66,o),
(522,-48,o),
(571,-23,cs),
(617,0,l),
(617,558,l),
(446,558,l),
(446,479,l),
(416,528,o),
(357,566,o),
(274,566,cs),
(137,566,o),
(28,456,o),
(28,280,cs)
);
},
{
closed = 1;
nodes = (
(446,190,o),
(389,141,o),
(324,141,cs),
(260,141,o),
(202,191,o),
(202,280,cs),
(202,369,o),
(260,417,o),
(324,417,cs),
(389,417,o),
(446,368,o),
(446,279,cs)
);
}
);
width = 679;
}
);
note = aogonek;
unicode = 261;
},
{
glyphname = Cacute;
layers = (
{
layerId = m01;
shapes = (
{
closed = 1;
nodes = (
(33,142,o),
(179,-5,o),
(386,-5,cs),
(553,-5,o),
(679,88,o),
(719,240,c),
(531,240,l),
(502,180,o),
(449,150,o),
(384,150,cs),
(279,150,o),
(207,228,o),
(207,352,cs),
(207,476,o),
(279,554,o),
(384,554,cs),
(449,554,o),
(502,524,o),
(531,464,c),
(719,464,l),
(679,616,o),
(553,710,o),
(386,710,cs),
(179,710,o),
(33,562,o),
(33,352,cs)
);
},
{
closed = 1;
nodes = (
(259,864,l),
(259,746,l),
(500,847,l),
(500,980,l)
);
}
);
width = 762;
}
);
note = Cacute;
unicode = 262;
},
{
glyphname = cacute;
layers = (
{
layerId = m01;
shapes = (
{
closed = 1;
nodes = (
(28,102,o),
(144,-8,o),
(308,-8,cs),
(448,-8,o),
(547,73,o),
(576,202,c),
(394,202,l),
(379,161,o),
(352,138,o),
(305,138,cs),
(244,138,o),
(202,186,o),
(202,279,cs),
(202,372,o),
(244,420,o),
(305,420,cs),
(352,420,o),
(380,395,o),
(394,356,c),
(576,356,l),
(547,489,o),
(448,566,o),
(308,566,cs),
(144,566,o),
(28,455,o),
(28,279,cs)
);
},
{
closed = 1;
nodes = (
(175,714,l),
(175,596,l),
(416,697,l),
(416,830,l)
);
}
);
width = 605;
}
);
note = cacute;
unicode = 263;
},
{
glyphname = Cdotaccent;
layers = (
{
layerId = m01;
shapes = (
{
closed = 1;
nodes = (
(33,142,o),
(179,-5,o),
(386,-5,cs),
(553,-5,o),
(679,88,o),
(719,240,c),
(531,240,l),
(502,180,o),
(449,150,o),
(384,150,cs),
(279,150,o),
(207,228,o),
(207,352,cs),
(207,476,o),
(279,554,o),
(384,554,cs),
(449,554,o),
(502,524,o),
(531,464,c),
(719,464,l),
(679,616,o),
(553,710,o),
(386,710,cs),
(179,710,o),
(33,562,o),
(33,352,cs)
);
},
{
closed = 1;
nodes = (
(425,770,o),
(457,802,o),
(457,843,cs),
(457,885,o),
(425,917,o),
(383,917,cs),
(342,917,o),
(310,885,o),
(310,843,cs),
(310,802,o),
(342,770,o),
(383,770,cs)
);
}
);
width = 762;
}
);
note = Cdotaccent;
unicode = 266;
},
{
glyphname = cdotaccent;
layers = (
{
layerId = m01;
shapes = (
{
closed = 1;
nodes = (
(28,102,o),
(144,-8,o),
(308,-8,cs),
(448,-8,o),
(547,73,o),
(576,202,c),
(394,202,l),
(379,161,o),
(352,138,o),
(305,138,cs),
(244,138,o),
(202,186,o),
(202,279,cs),
(202,372,o),
(244,420,o),
(305,420,cs),
(352,420,o),
(380,395,o),
(394,356,c),
(576,356,l),
(547,489,o),
(448,566,o),
(308,566,cs),
(144,566,o),
(28,455,o),
(28,279,cs)
);
},
{
closed = 1;
nodes = (
(340,620,o),
(372,652,o),
(372,693,cs),
(372,735,o),
(340,767,o),
(298,767,cs),
(257,767,o),
(225,735,o),
(225,693,cs),
(225,652,o),
(257,620,o),
(298,620,cs)
);
}
);
width = 605;
}
);
note = cdotaccent;
unicode = 267;
},
{
glyphname = Ccaron;
layers = (
{
layerId = m01;
shapes = (
{
closed = 1;
nodes = (
(33,142,o),
(179,-5,o),
(386,-5,cs),
(553,-5,o),
(679,88,o),
(719,240,c),
(531,240,l),
(502,180,o),
(449,150,o),
(384,150,cs),
(279,150,o),
(207,228,o),
(207,352,cs),
(207,476,o),
(279,554,o),
(384,554,cs),
(449,554,o),
(502,524,o),
(531,464,c),
(719,464,l),
(679,616,o),
(553,710,o),
(386,710,cs),
(179,710,o),
(33,562,o),
(33,352,cs)
);
},
{
closed = 1;
nodes = (
(384,856,l),
(229,943,l),
(229,825,l),
(384,746,l),
(539,825,l),
(539,943,l)
);
}
);
width = 762;
}
);
note = Ccaron;
unicode = 268;
},
{
glyphname = ccaron;
layers = (
{
layerId = m01;
shapes = (
{
closed = 1;
nodes = (
(28,102,o),
(144,-8,o),
(308,-8,cs),
(448,-8,o),
(547,73,o),
(576,202,c),
(394,202,l),
(379,161,o),
(352,138,o),
(305,138,cs),
(244,138,o),
(202,186,o),
(202,279,cs),
(202,372,o),
(244,420,o),
(305,420,cs),
(352,420,o),
(380,395,o),
(394,356,c),
(576,356,l),
(547,489,o),
(448,566,o),
(308,566,cs),
(144,566,o),
(28,455,o),
(28,279,cs)
);
},
{
closed = 1;
nodes = (
(299,706,l),
(144,793,l),
(144,675,l),
(299,596,l),
(454,675,l),
(454,793,l)
);
}
);
width = 605;
}
);
note = ccaron;
unicode = 269;
},
{
glyphname = Dcaron;
layers = (
{
layerId = m01;
shapes = (
{
closed = 1;
nodes = (
(62,702,l),
(62,0,l),
(325,0,ls),
(549,0,o),
(693,143,o),
(693,351,cs),
(693,560,o),
(549,702,o),
(325,702,cs)
);
},
{
closed = 1;
nodes = (
(233,148,l),
(233,556,l),
(314,556,ls),
(443,556,o),
(519,480,o),
(519,351,cs),
(519,222,o),
(443,148,o),
(314,148,cs)
);
},
{
closed = 1;
nodes = (
(357,852,l),
(202,939,l),
(202,821,l),
(357,742,l),
(512,821,l),
(512,939,l)
);
}
);
width = 727;
}
);
note = Dcaron;
unicode = 270;
},
{
glyphname = dcaron;
layers = (
{
layerId = m01;
shapes = (
{
closed = 1;
nodes = (
(673,740,l),
(673,617,l),
(736,617,l),
(736,601,ls),
(736,556,o),
(718,535,o),
(684,535,c),
(684,470,l),
(779,470,o),
(824,532,o),
(824,622,cs),
(824,658,o),
(818,698,o),
(804,740,c)
);
},
{
closed = 1;
nodes = (
(28,104,o),
(137,-8,o),
(274,-8,cs),
(356,-8,o),
(415,29,o),
(446,80,c),
(446,0,l),
(617,0,l),
(617,740,l),
(446,740,l),
(446,481,l),
(412,532,o),
(348,566,o),
(274,566,cs),
(137,566,o),
(28,456,o),
(28,280,cs)
);
},
{
closed = 1;
nodes = (
(446,190,o),
(389,141,o),
(324,141,cs),
(260,141,o),
(202,191,o),
(202,280,cs),
(202,369,o),
(260,417,o),
(324,417,cs),
(389,417,o),
(446,368,o),
(446,279,cs)
);
}
);
width = 834;
}
);
note = dcaron;
unicode = 271;
},
{
glyphname = Dcroat;
layers = (
{
layerId = m01;
shapes = (
{
closed = 1;
nodes = (
(67,702,l),
(67,422,l),
(4,422,l),
(4,280,l),
(67,280,l),
(67,0,l),
(330,0,ls),
(555,0,o),
(698,143,o),
(698,351,cs),
(698,560,o),
(555,702,o),
(330,702,cs)
);
},
{
closed = 1;
nodes = (
(239,146,l),
(239,280,l),
(391,280,l),
(391,422,l),
(239,422,l),
(239,556,l),
(320,556,ls),
(448,556,o),
(524,480,o),
(524,351,cs),
(524,222,o),
(448,146,o),
(320,146,cs)
);
}
);
width = 732;
}
);
note = Dcroat;
unicode = 272;
},
{
glyphname = dcroat;
layers = (
{
layerId = m01;
shapes = (
{
closed = 1;
nodes = (
(28,104,o),
(137,-8,o),
(274,-8,cs),
(356,-8,o),
(415,29,o),
(446,80,c),
(446,0,l),
(617,0,l),
(617,591,l),
(679,591,l),
(679,673,l),
(617,673,l),
(617,740,l),
(446,740,l),
(446,673,l),
(376,673,l),
(376,591,l),
(446,591,l),
(446,481,l),
(412,532,o),
(348,566,o),
(274,566,cs),
(137,566,o),
(28,456,o),
(28,280,cs)
);
},
{
closed = 1;
nodes = (
(446,190,o),
(389,141,o),
(324,141,cs),
(260,141,o),
(202,191,o),
(202,280,cs),
(202,369,o),
(260,417,o),
(324,417,cs),
(389,417,o),
(446,368,o),
(446,279,cs)
);
}
);
width = 692;
}
);
note = dcroat;
unicode = 273;
},
{
glyphname = Emacron;
layers = (
{
layerId = m01;
shapes = (
{
closed = 1;
nodes = (
(492,702,l),
(62,702,l),
(62,0,l),
(492,0,l),
(492,137,l),
(233,137,l),
(233,291,l),
(462,291,l),
(462,423,l),
(233,423,l),
(233,565,l),
(492,565,l)
);
},
{
closed = 1;
nodes = (
(73,774,l),
(473,774,l),
(473,892,l),
(73,892,l)
);
}
);
width = 541;
}
);
note = Emacron;
unicode = 274;
},
{
glyphname = emacron;
layers = (
{
layerId = m01;
shapes = (
{
closed = 1;
nodes = (
(365,429,o),
(413,394,o),
(413,333,c),
(199,333,l),
(209,395,o),
(252,429,o),
(308,429,cs)
);
},
{
closed = 1;
nodes = (
(393,185,l),
(379,155,o),
(352,131,o),
(304,131,cs),
(249,131,o),
(204,165,o),
(198,238,c),
(585,238,l),
(587,255,o),
(588,272,o),
(588,288,cs),
(588,458,o),
(473,566,o),
(310,566,cs),
(144,566,o),
(28,456,o),
(28,279,cs),
(28,102,o),
(146,-8,o),
(310,-8,cs),
(449,-8,o),
(548,76,o),
(575,185,c)
);
},
{
closed = 1;
nodes = (
(109,632,l),
(509,632,l),
(509,750,l),
(109,750,l)
);
}
);
width = 616;
}
);
note = emacron;
unicode = 275;
},
{
glyphname = Ebreve;
layers = (
{
layerId = m01;
shapes = (
{
closed = 1;
nodes = (
(492,702,l),
(62,702,l),
(62,0,l),
(492,0,l),
(492,137,l),
(233,137,l),
(233,291,l),
(462,291,l),
(462,423,l),
(233,423,l),
(233,565,l),
(492,565,l)
);
},
{
closed = 1;
nodes = (
(443,937,l),
(357,937,l),
(357,895,o),
(337,870,o),
(272,870,cs),
(207,870,o),
(187,895,o),
(187,937,c),
(102,937,l),
(102,918,ls),
(102,806,o),
(172,745,o),
(272,745,cs),
(372,745,o),
(443,805,o),
(443,917,cs)
);
}
);
width = 541;
}
);
note = Ebreve;
unicode = 276;
},
{
glyphname = ebreve;
layers = (
{
layerId = m01;
shapes = (
{
closed = 1;
nodes = (
(365,429,o),
(413,394,o),
(413,333,c),
(199,333,l),
(209,395,o),
(252,429,o),
(308,429,cs)
);
},
{
closed = 1;
nodes = (
(393,185,l),
(379,155,o),
(352,131,o),
(304,131,cs),
(249,131,o),
(204,165,o),
(198,238,c),
(585,238,l),
(587,255,o),
(588,272,o),
(588,288,cs),
(588,458,o),
(473,566,o),
(310,566,cs),
(144,566,o),
(28,456,o),
(28,279,cs),
(28,102,o),
(146,-8,o),
(310,-8,cs),
(449,-8,o),
(548,76,o),
(575,185,c)
);
},
{
closed = 1;
nodes = (
(479,795,l),
(393,795,l),
(393,753,o),
(373,728,o),
(308,728,cs),
(243,728,o),
(223,753,o),
(223,795,c),
(138,795,l),
(138,776,ls),
(138,664,o),
(208,603,o),
(308,603,cs),
(408,603,o),
(479,663,o),
(479,775,cs)
);
}
);
width = 616;
}
);
note = ebreve;
unicode = 277;
},
{
glyphname = Edotaccent;
layers = (
{
layerId = m01;
shapes = (
{
closed = 1;
nodes = (
(492,702,l),
(62,702,l),
(62,0,l),
(492,0,l),
(492,137,l),
(233,137,l),
(233,291,l),
(462,291,l),
(462,423,l),
(233,423,l),
(233,565,l),
(492,565,l)
);
},
{
closed = 1;
nodes = (
(313,766,o),
(345,798,o),
(345,839,cs),
(345,881,o),
(313,913,o),
(271,913,cs),
(230,913,o),
(198,881,o),
(198,839,cs),
(198,798,o),
(230,766,o),
(271,766,cs)
);
}
);
width = 541;
}
);
note = Edotaccent;
unicode = 278;
},
{
glyphname = edotaccent;
layers = (
{
layerId = m01;
shapes = (
{
closed = 1;
nodes = (
(365,429,o),
(413,394,o),
(413,333,c),
(199,333,l),
(209,395,o),
(252,429,o),
(308,429,cs)
);
},
{
closed = 1;
nodes = (
(393,185,l),
(379,155,o),
(352,131,o),
(304,131,cs),
(249,131,o),
(204,165,o),
(198,238,c),
(585,238,l),
(587,255,o),
(588,272,o),
(588,288,cs),
(588,458,o),
(473,566,o),
(310,566,cs),
(144,566,o),
(28,456,o),
(28,279,cs),
(28,102,o),
(146,-8,o),
(310,-8,cs),
(449,-8,o),
(548,76,o),
(575,185,c)
);
},
{
closed = 1;
nodes = (
(349,624,o),
(381,656,o),
(381,697,cs),
(381,739,o),
(349,771,o),
(307,771,cs),
(266,771,o),
(234,739,o),
(234,697,cs),
(234,656,o),
(266,624,o),
(307,624,cs)
);
}
);
width = 616;
}
);
note = edotaccent;
unicode = 279;
},
{
glyphname = Eogonek;
layers = (
{
layerId = m01;
shapes = (
{
closed = 1;
nodes = (
(492,702,l),
(62,702,l),
(62,0,l),
(308,0,l),
(267,-33,o),
(253,-66,o),
(253,-103,cs),
(253,-180,o),
(318,-217,o),
(401,-217,cs),
(437,-217,o),
(471,-211,o),
(499,-202,c),
(499,-106,l),
(471,-116,o),
(444,-121,o),
(423,-121,cs),
(395,-121,o),
(379,-108,o),
(379,-88,cs),
(379,-66,o),
(397,-48,o),
(446,-23,cs),
(492,0,l),
(492,137,l),
(233,137,l),
(233,291,l),
(462,291,l),
(462,423,l),
(233,423,l),
(233,565,l),
(492,565,l)
);
}
);
width = 541;
}
);
note = Eogonek;
unicode = 280;
},
{
glyphname = eogonek;
layers = (
{
layerId = m01;
shapes = (
{
closed = 1;
nodes = (
(365,429,o),
(413,394,o),
(413,333,c),
(199,333,l),
(209,395,o),
(252,429,o),
(308,429,cs)
);
},
{
closed = 1;
nodes = (
(417,-95,l),
(389,-105,o),
(362,-110,o),
(341,-110,cs),
(313,-110,o),
(297,-97,o),
(297,-77,cs),
(297,-55,o),
(315,-37,o),
(364,-12,cs),
(395,3,l),
(489,30,o),
(554,100,o),
(575,185,c),
(393,185,l),
(379,155,o),
(352,131,o),
(304,131,cs),
(249,131,o),
(204,165,o),
(198,238,c),
(585,238,l),
(587,255,o),
(588,272,o),
(588,288,cs),
(588,458,o),
(473,566,o),
(310,566,cs),
(144,566,o),
(28,456,o),
(28,279,cs),
(28,137,o),
(104,38,o),
(218,5,c),
(183,-26,o),
(171,-58,o),
(171,-92,cs),
(171,-169,o),
(236,-206,o),
(319,-206,cs),
(355,-206,o),
(389,-200,o),
(417,-191,c)
);
}
);
width = 616;
}
);
note = eogonek;
unicode = 281;
},
{
glyphname = Ecaron;
layers = (
{
layerId = m01;
shapes = (
{
closed = 1;
nodes = (
(492,702,l),
(62,702,l),
(62,0,l),
(492,0,l),
(492,137,l),
(233,137,l),
(233,291,l),
(462,291,l),
(462,423,l),
(233,423,l),
(233,565,l),
(492,565,l)
);
},
{
closed = 1;
nodes = (
(272,852,l),
(117,939,l),
(117,821,l),
(272,742,l),
(427,821,l),
(427,939,l)
);
}
);
width = 541;
}
);
note = Ecaron;
unicode = 282;
},
{
glyphname = ecaron;
layers = (
{
layerId = m01;
shapes = (
{
closed = 1;
nodes = (
(365,429,o),
(413,394,o),
(413,333,c),
(199,333,l),
(209,395,o),
(252,429,o),
(308,429,cs)
);
},
{
closed = 1;
nodes = (
(393,185,l),
(379,155,o),
(352,131,o),
(304,131,cs),
(249,131,o),
(204,165,o),
(198,238,c),
(585,238,l),
(587,255,o),
(588,272,o),
(588,288,cs),
(588,458,o),
(473,566,o),
(310,566,cs),
(144,566,o),
(28,456,o),
(28,279,cs),
(28,102,o),
(146,-8,o),
(310,-8,cs),
(449,-8,o),
(548,76,o),
(575,185,c)
);
},
{
closed = 1;
nodes = (
(308,710,l),
(153,797,l),
(153,679,l),
(308,600,l),
(463,679,l),
(463,797,l)
);
}
);
width = 616;
}
);
note = ecaron;
unicode = 283;
},
{
glyphname = Gbreve;
layers = (
{
layerId = m01;
shapes = (
{
closed = 1;
nodes = (
(180,710,o),
(33,562,o),
(33,352,cs),
(33,142,o),
(181,-5,o),
(391,-5,cs),
(576,-5,o),
(693,116,o),
(729,237,c),
(729,396,l),
(357,396,l),
(357,270,l),
(574,270,l),
(548,191,o),
(489,146,o),
(404,146,cs),
(281,146,o),
(207,222,o),
(207,352,cs),
(207,474,o),
(280,552,o),
(390,552,cs),
(454,552,o),
(502,527,o),
(528,480,c),
(717,480,l),
(680,624,o),
(558,710,o),
(390,710,cs)
);
},
{
closed = 1;
nodes = (
(552,937,l),
(466,937,l),
(466,895,o),
(446,870,o),
(381,870,cs),
(316,870,o),
(296,895,o),
(296,937,c),
(211,937,l),
(211,918,ls),
(211,806,o),
(281,745,o),
(381,745,cs),
(481,745,o),
(552,805,o),
(552,917,cs)
);
}
);
width = 762;
}
);
note = Gbreve;
unicode = 286;
},
{
glyphname = gbreve;
layers = (
{
layerId = m01;
shapes = (
{
closed = 1;
nodes = (
(28,104,o),
(137,-8,o),
(274,-8,cs),
(356,-8,o),
(415,31,o),
(446,80,c),
(446,1,ls),
(446,-93,o),
(395,-127,o),
(330,-127,cs),
(271,-127,o),
(229,-100,o),
(218,-58,c),
(49,-58,l),
(64,-191,o),
(172,-275,o),
(338,-275,cs),
(531,-275,o),
(617,-148,o),
(617,1,cs),
(617,558,l),
(446,558,l),
(446,479,l),
(416,529,o),
(356,566,o),
(274,566,cs),
(137,566,o),
(28,456,o),
(28,280,cs)
);
},
{
closed = 1;
nodes = (
(446,190,o),
(389,141,o),
(324,141,cs),
(260,141,o),
(202,191,o),
(202,280,cs),
(202,369,o),
(260,417,o),
(324,417,cs),
(389,417,o),
(446,368,o),
(446,279,cs)
);
},
{
closed = 1;
nodes = (
(514,791,l),
(428,791,l),
(428,749,o),
(408,724,o),
(343,724,cs),
(278,724,o),
(258,749,o),
(258,791,c),
(173,791,l),
(173,772,ls),
(173,660,o),
(243,599,o),
(343,599,cs),
(443,599,o),
(514,659,o),
(514,771,cs)
);
}
);
width = 679;
}
);
note = gbreve;
unicode = 287;
},
{
glyphname = Gdotaccent;
layers = (
{
layerId = m01;
shapes = (
{
closed = 1;
nodes = (
(180,710,o),
(33,562,o),
(33,352,cs),
(33,142,o),
(181,-5,o),
(391,-5,cs),
(576,-5,o),
(693,116,o),
(729,237,c),
(729,396,l),
(357,396,l),
(357,270,l),
(574,270,l),
(548,191,o),
(489,146,o),
(404,146,cs),
(281,146,o),
(207,222,o),
(207,352,cs),
(207,474,o),
(280,552,o),
(390,552,cs),
(454,552,o),
(502,527,o),
(528,480,c),
(717,480,l),
(680,624,o),
(558,710,o),
(390,710,cs)
);
},
{
closed = 1;
nodes = (
(422,766,o),
(454,798,o),
(454,839,cs),
(454,881,o),
(422,913,o),
(380,913,cs),
(339,913,o),
(307,881,o),
(307,839,cs),
(307,798,o),
(339,766,o),
(380,766,cs)
);
}
);
width = 762;
}
);
note = Gdotaccent;
unicode = 288;
},
{
glyphname = gdotaccent;
layers = (
{
layerId = m01;
shapes = (
{
closed = 1;
nodes = (
(28,104,o),
(137,-8,o),
(274,-8,cs),
(356,-8,o),
(415,31,o),
(446,80,c),
(446,1,ls),
(446,-93,o),
(395,-127,o),
(330,-127,cs),
(271,-127,o),
(229,-100,o),
(218,-58,c),
(49,-58,l),
(64,-191,o),
(172,-275,o),
(338,-275,cs),
(531,-275,o),
(617,-148,o),
(617,1,cs),
(617,558,l),
(446,558,l),
(446,479,l),
(416,529,o),
(356,566,o),
(274,566,cs),
(137,566,o),
(28,456,o),
(28,280,cs)
);
},
{
closed = 1;
nodes = (
(446,190,o),
(389,141,o),
(324,141,cs),
(260,141,o),
(202,191,o),
(202,280,cs),
(202,369,o),
(260,417,o),
(324,417,cs),
(389,417,o),
(446,368,o),
(446,279,cs)
);
},
{
closed = 1;
nodes = (
(384,620,o),
(416,652,o),
(416,693,cs),
(416,735,o),
(384,767,o),
(342,767,cs),
(301,767,o),
(269,735,o),
(269,693,cs),
(269,652,o),
(301,620,o),
(342,620,cs)
);
}
);
width = 679;
}
);
note = gdotaccent;
unicode = 289;
},
{
glyphname = uni0122;
layers = (
{
layerId = m01;
shapes = (
{
closed = 1;
nodes = (
(314,-40,l),
(314,-163,l),
(377,-163,l),
(377,-179,ls),
(377,-224,o),
(359,-245,o),
(325,-245,c),
(325,-310,l),
(420,-310,o),
(465,-248,o),
(465,-158,cs),
(465,-122,o),
(459,-82,o),
(445,-40,c)
);
},
{
closed = 1;
nodes = (
(180,710,o),
(33,562,o),
(33,352,cs),
(33,142,o),
(181,-5,o),
(391,-5,cs),
(576,-5,o),
(693,116,o),
(729,237,c),
(729,396,l),
(357,396,l),
(357,270,l),
(574,270,l),
(548,191,o),
(489,146,o),
(404,146,cs),
(281,146,o),
(207,222,o),
(207,352,cs),
(207,474,o),
(280,552,o),
(390,552,cs),
(454,552,o),
(502,527,o),
(528,480,c),
(717,480,l),
(680,624,o),
(558,710,o),
(390,710,cs)
);
}
);
width = 764;
}
);
note = uni0122;
unicode = 290;
},
{
glyphname = uni0123;
layers = (
{
layerId = m01;
shapes = (
{
closed = 1;
nodes = (
(417,598,l),
(417,721,l),
(354,721,l),
(354,737,ls),
(354,782,o),
(372,803,o),
(406,803,c),
(406,868,l),
(311,868,o),
(266,806,o),
(266,716,cs),
(266,680,o),
(272,640,o),
(286,598,c)
);
},
{
closed = 1;
nodes = (
(28,104,o),
(137,-8,o),
(274,-8,cs),
(356,-8,o),
(415,31,o),
(446,80,c),
(446,1,ls),
(446,-93,o),
(395,-127,o),
(330,-127,cs),
(271,-127,o),
(229,-100,o),
(218,-58,c),
(49,-58,l),
(64,-191,o),
(172,-275,o),
(338,-275,cs),
(531,-275,o),
(617,-148,o),
(617,1,cs),
(617,558,l),
(446,558,l),
(446,479,l),
(416,529,o),
(356,566,o),
(274,566,cs),
(137,566,o),
(28,456,o),
(28,280,cs)
);
},
{
closed = 1;
nodes = (
(446,190,o),
(389,141,o),
(324,141,cs),
(260,141,o),
(202,191,o),
(202,280,cs),
(202,369,o),
(260,417,o),
(324,417,cs),
(389,417,o),
(446,368,o),
(446,279,cs)
);
}
);
width = 679;
}
);
note = uni0123;
unicode = 291;
},
{
glyphname = Itilde;
layers = (
{
layerId = m01;
shapes = (
{
closed = 1;
nodes = (
(62,0,l),
(233,0,l),
(233,702,l),
(62,702,l)
);
},
{
closed = 1;
nodes = (
(35,751,l),
(40,782,o),
(56,796,o),
(79,796,cs),
(119,796,o),
(150,751,o),
(210,751,cs),
(280,751,o),
(331,794,o),
(348,899,c),
(260,899,l),
(256,868,o),
(240,854,o),
(217,854,cs),
(177,854,o),
(146,899,o),
(86,899,cs),
(15,899,o),
(-35,856,o),
(-52,751,c)
);
}
);
width = 295;
}
);
note = Itilde;
unicode = 296;
},
{
glyphname = itilde;
layers = (
{
layerId = m01;
shapes = (
{
closed = 1;
nodes = (
(75,0,l),
(246,0,l),
(246,558,l),
(75,558,l)
);
},
{
closed = 1;
nodes = (
(48,605,l),
(53,636,o),
(69,650,o),
(92,650,cs),
(132,650,o),
(163,605,o),
(223,605,cs),
(293,605,o),
(344,648,o),
(361,753,c),
(273,753,l),
(269,722,o),
(253,708,o),
(230,708,cs),
(190,708,o),
(159,753,o),
(99,753,cs),
(28,753,o),
(-22,710,o),
(-39,605,c)
);
}
);
width = 321;
}
);
note = itilde;
unicode = 297;
},
{
glyphname = Imacron;
layers = (
{
layerId = m01;
shapes = (
{
closed = 1;
nodes = (
(62,0,l),
(233,0,l),
(233,702,l),
(62,702,l)
);
},
{
closed = 1;
nodes = (
(-52,774,l),
(348,774,l),
(348,892,l),
(-52,892,l)
);
}
);
width = 295;
}
);
note = Imacron;
unicode = 298;
},
{
glyphname = imacron;
layers = (
{
layerId = m01;
shapes = (
{
closed = 1;
nodes = (
(75,0,l),
(246,0,l),
(246,558,l),
(75,558,l)
);
},
{
closed = 1;
nodes = (
(-39,628,l),
(361,628,l),
(361,746,l),
(-39,746,l)
);
}
);
width = 321;
}
);
note = imacron;
unicode = 299;
},
{
glyphname = uni012C;
layers = (
{
layerId = m01;
shapes = (
{
closed = 1;
nodes = (
(62,0,l),
(233,0,l),
(233,702,l),
(62,702,l)
);
},
{
closed = 1;
nodes = (
(319,937,l),
(233,937,l),
(233,895,o),
(213,870,o),
(148,870,cs),
(83,870,o),
(63,895,o),
(63,937,c),
(-22,937,l),
(-22,918,ls),
(-22,806,o),
(48,745,o),
(148,745,cs),
(248,745,o),
(319,805,o),
(319,917,cs)
);
}
);
width = 295;
}
);
note = uni012C;
unicode = 300;
},
{
glyphname = uni012D;
layers = (
{
layerId = m01;
shapes = (
{
closed = 1;
nodes = (
(75,0,l),
(246,0,l),
(246,558,l),
(75,558,l)
);
},
{
closed = 1;
nodes = (
(332,791,l),
(246,791,l),
(246,749,o),
(226,724,o),
(161,724,cs),
(96,724,o),
(76,749,o),
(76,791,c),
(-9,791,l),
(-9,772,ls),
(-9,660,o),
(61,599,o),
(161,599,cs),
(261,599,o),
(332,659,o),
(332,771,cs)
);
}
);
width = 321;
}
);
note = uni012D;
unicode = 301;
},
{
glyphname = Iogonek;
layers = (
{
layerId = m01;
shapes = (
{
closed = 1;
nodes = (
(240,-106,l),
(212,-116,o),
(185,-121,o),
(164,-121,cs),
(136,-121,o),
(120,-108,o),
(120,-88,cs),
(120,-66,o),
(138,-48,o),
(187,-23,cs),
(233,0,l),
(233,702,l),
(62,702,l),
(62,10,l),
(11,-26,o),
(-6,-63,o),
(-6,-103,cs),
(-6,-180,o),
(59,-217,o),
(142,-217,cs),
(178,-217,o),
(212,-211,o),
(240,-202,c)
);
}
);
width = 295;
}
);
note = Iogonek;
unicode = 302;
},
{
glyphname = iogonek;
layers = (
{
layerId = m01;
shapes = (
{
closed = 1;
nodes = (
(240,-106,l),
(212,-116,o),
(185,-121,o),
(164,-121,cs),
(136,-121,o),
(120,-108,o),
(120,-88,cs),
(120,-66,o),
(138,-48,o),
(187,-23,cs),
(233,0,l),
(233,558,l),
(62,558,l),
(62,10,l),
(11,-26,o),
(-6,-63,o),
(-6,-103,cs),
(-6,-180,o),
(59,-217,o),
(142,-217,cs),
(178,-217,o),
(212,-211,o),
(240,-202,c)
);
},
{
closed = 1;
nodes = (
(208,616,o),
(249,657,o),
(249,708,cs),
(249,760,o),
(208,801,o),
(148,801,cs),
(87,801,o),
(46,760,o),
(46,708,cs),
(46,657,o),
(87,616,o),
(148,616,cs)
);
}
);
width = 295;
}
);
note = iogonek;
unicode = 303;
},
{
glyphname = Idotaccent;
layers = (
{
layerId = m01;
shapes = (
{
closed = 1;
nodes = (
(62,0,l),
(233,0,l),
(233,702,l),
(62,702,l)
);
},
{
closed = 1;
nodes = (
(189,766,o),
(221,798,o),
(221,839,cs),
(221,881,o),
(189,913,o),
(147,913,cs),
(106,913,o),
(74,881,o),
(74,839,cs),
(74,798,o),
(106,766,o),
(147,766,cs)
);
}
);
width = 295;
}
);
note = Idotaccent;
unicode = 304;
},
{
glyphname = dotlessi;
layers = (
{
layerId = m01;
shapes = (
{
closed = 1;
nodes = (
(75,0,l),
(246,0,l),
(246,558,l),
(75,558,l)
);
}
);
width = 321;
}
);
note = dotlessi;
unicode = 305;
},
{
glyphname = uni0136;
layers = (
{
layerId = m01;
shapes = (
{
closed = 1;
nodes = (
(292,-40,l),
(292,-163,l),
(355,-163,l),
(355,-179,ls),
(355,-224,o),
(337,-245,o),
(303,-245,c),
(303,-310,l),
(398,-310,o),
(443,-248,o),
(443,-158,cs),
(443,-122,o),
(437,-82,o),
(423,-40,c)
);
},
{
closed = 1;
nodes = (
(469,0,l),
(678,0,l),
(396,358,l),
(668,702,l),
(467,702,l),
(233,394,l),
(233,702,l),
(62,702,l),
(62,0,l),
(233,0,l),
(233,310,l)
);
}
);
width = 720;
}
);
note = uni0136;
unicode = 310;
},
{
glyphname = uni0137;
layers = (
{
layerId = m01;
shapes = (
{
closed = 1;
nodes = (
(244,-40,l),
(244,-163,l),
(307,-163,l),
(307,-179,ls),
(307,-224,o),
(288,-245,o),
(254,-245,c),
(254,-310,l),
(349,-310,o),
(394,-248,o),
(394,-158,cs),
(394,-122,o),
(388,-82,o),
(375,-40,c)
);
},
{
closed = 1;
nodes = (
(62,0,l),
(233,0,l),
(233,234,l),
(403,0,l),
(615,0,l),
(381,278,l),
(613,558,l),
(402,558,l),
(233,331,l),
(233,740,l),
(62,740,l)
);
}
);
width = 618;
}
);
note = uni0137;
unicode = 311;
},
{
glyphname = Lacute;
layers = (
{
layerId = m01;
shapes = (
{
closed = 1;
nodes = (
(62,702,l),
(62,0,l),
(457,0,l),
(457,132,l),
(233,132,l),
(233,702,l)
);
},
{
closed = 1;
nodes = (
(102,860,l),
(102,742,l),
(343,843,l),
(343,976,l)
);
}
);
width = 477;
}
);
note = Lacute;
unicode = 313;
},
{
glyphname = lacute;
layers = (
{
layerId = m01;
shapes = (
{
closed = 1;
nodes = (
(62,0,l),
(233,0,l),
(233,740,l),
(62,740,l)
);
},
{
closed = 1;
nodes = (
(23,896,l),
(23,778,l),
(264,879,l),
(264,1012,l)
);
}
);
width = 295;
}
);
note = lacute;
unicode = 314;
},
{
glyphname = uni013B;
layers = (
{
layerId = m01;
shapes = (
{
closed = 1;
nodes = (
(202,-40,l),
(202,-163,l),
(265,-163,l),
(265,-179,ls),
(265,-224,o),
(247,-245,o),
(213,-245,c),
(213,-310,l),
(308,-310,o),
(353,-248,o),
(353,-158,cs),
(353,-122,o),
(347,-82,o),
(333,-40,c)
);
},
{
closed = 1;
nodes = (
(62,702,l),
(62,0,l),
(457,0,l),
(457,132,l),
(233,132,l),
(233,702,l)
);
}
);
width = 479;
}
);
note = uni013B;
unicode = 315;
},
{
glyphname = uni013C;
layers = (
{
layerId = m01;
shapes = (
{
closed = 1;
nodes = (
(83,-40,l),
(83,-163,l),
(146,-163,l),
(146,-179,ls),
(146,-224,o),
(128,-245,o),
(94,-245,c),
(94,-310,l),
(188,-310,o),
(234,-248,o),
(234,-158,cs),
(234,-122,o),
(228,-82,o),
(214,-40,c)
);
},
{
closed = 1;
nodes = (
(62,0,l),
(233,0,l),
(233,740,l),
(62,740,l)
);
}
);
width = 295;
}
);
note = uni013C;
unicode = 316;
},
{
glyphname = Lcaron;
layers = (
{
layerId = m01;
shapes = (
{
closed = 1;
nodes = (
(335,702,l),
(335,579,l),
(398,579,l),
(398,563,ls),
(398,518,o),
(380,497,o),
(346,497,c),
(346,432,l),
(441,432,o),
(486,494,o),
(486,584,cs),
(486,620,o),
(480,660,o),
(466,702,c)
);
},
{
closed = 1;
nodes = (
(62,702,l),
(62,0,l),
(457,0,l),
(457,132,l),
(233,132,l),
(233,702,l)
);
}
);
width = 523;
}
);
note = Lcaron;
unicode = 317;
},
{
glyphname = lcaron;
layers = (
{
layerId = m01;
shapes = (
{
closed = 1;
nodes = (
(298,740,l),
(298,617,l),
(361,617,l),
(361,601,ls),
(361,556,o),
(343,535,o),
(309,535,c),
(309,470,l),
(404,470,o),
(448,532,o),
(448,622,cs),
(448,658,o),
(443,698,o),
(429,740,c)
);
},
{
closed = 1;
nodes = (
(62,0,l),
(233,0,l),
(233,740,l),
(62,740,l)
);
}
);
width = 474;
}
);
note = lcaron;
unicode = 318;
},
{
glyphname = Ldot;
layers = (
{
layerId = m01;
shapes = (
{
closed = 1;
nodes = (
(62,702,l),
(62,0,l),
(457,0,l),
(457,132,l),
(233,132,l),
(233,702,l)
);
},
{
closed = 1;
nodes = (
(267,766,o),
(299,798,o),
(299,839,cs),
(299,881,o),
(267,913,o),
(225,913,cs),
(184,913,o),
(152,881,o),
(152,839,cs),
(152,798,o),
(184,766,o),
(225,766,cs)
);
}
);
width = 477;
}
);
note = Ldot;
unicode = 319;
},
{
glyphname = ldot;
layers = (
{
layerId = m01;
shapes = (
{
closed = 1;
nodes = (
(189,781,o),
(221,813,o),
(221,855,cs),
(221,897,o),
(189,929,o),
(147,929,cs),
(105,929,o),
(74,897,o),
(74,855,cs),
(74,813,o),
(105,781,o),
(147,781,cs)
);
},
{
closed = 1;
nodes = (
(62,0,l),
(233,0,l),
(233,740,l),
(62,740,l)
);
}
);
width = 295;
}
);
note = ldot;
unicode = 320;
},
{
glyphname = Lslash;
layers = (
{
layerId = m01;
shapes = (
{
closed = 1;
nodes = (
(75,702,l),
(75,416,l),
(10,397,l),
(10,253,l),
(75,272,l),
(75,0,l),
(470,0,l),
(470,130,l),
(246,130,l),
(246,323,l),
(329,348,l),
(329,492,l),
(246,467,l),
(246,702,l)
);
}
);
width = 485;
}
);
note = Lslash;
unicode = 321;
},
{
glyphname = lslash;
layers = (
{
layerId = m01;
shapes = (
{
closed = 1;
nodes = (
(75,0,l),
(246,0,l),
(246,327,l),
(312,347,l),
(312,492,l),
(246,472,l),
(246,740,l),
(75,740,l),
(75,421,l),
(10,401,l),
(10,256,l),
(75,276,l)
);
}
);
width = 321;
}
);
note = lslash;
unicode = 322;
},
{
glyphname = Nacute;
layers = (
{
layerId = m01;
shapes = (
{
closed = 1;
nodes = (
(519,702,l),
(519,267,l),
(233,702,l),
(62,702,l),
(62,0,l),
(233,0,l),
(233,433,l),
(519,0,l),
(690,0,l),
(690,702,l)
);
},
{
closed = 1;
nodes = (
(251,860,l),
(251,742,l),
(492,843,l),
(492,976,l)
);
}
);
width = 752;
}
);
note = Nacute;
unicode = 323;
},
{
glyphname = nacute;
layers = (
{
layerId = m01;
shapes = (
{
closed = 1;
nodes = (
(236,714,l),
(236,596,l),
(477,697,l),
(477,830,l)
);
},
{
closed = 1;
nodes = (
(447,0,l),
(617,0,l),
(617,326,ls),
(617,476,o),
(531,564,o),
(402,564,cs),
(327,564,o),
(267,531,o),
(233,484,c),
(233,558,l),
(62,558,l),
(62,0,l),
(233,0,l),
(233,303,ls),
(233,379,o),
(275,421,o),
(340,421,cs),
(405,421,o),
(447,379,o),
(447,303,cs)
);
}
);
width = 674;
}
);
note = nacute;
unicode = 324;
},
{
glyphname = uni0145;
layers = (
{
layerId = m01;
shapes = (
{
closed = 1;
nodes = (
(321,-40,l),
(321,-163,l),
(384,-163,l),
(384,-179,ls),
(384,-224,o),
(366,-245,o),
(332,-245,c),
(332,-310,l),
(427,-310,o),
(472,-248,o),
(472,-158,cs),
(472,-122,o),
(466,-82,o),
(452,-40,c)
);
},
{
closed = 1;
nodes = (
(519,702,l),
(519,267,l),
(233,702,l),
(62,702,l),
(62,0,l),
(233,0,l),
(233,433,l),
(519,0,l),
(690,0,l),
(690,702,l)
);
}
);
width = 778;
}
);
note = uni0145;
unicode = 325;
},
{
glyphname = uni0146;
layers = (
{
layerId = m01;
shapes = (
{
closed = 1;
nodes = (
(282,-40,l),
(282,-163,l),
(345,-163,l),
(345,-179,ls),
(345,-224,o),
(327,-245,o),
(293,-245,c),
(293,-310,l),
(388,-310,o),
(433,-248,o),
(433,-158,cs),
(433,-122,o),
(427,-82,o),
(413,-40,c)
);
},
{
closed = 1;
nodes = (
(447,0,l),
(617,0,l),
(617,326,ls),
(617,476,o),
(531,564,o),
(402,564,cs),
(327,564,o),
(267,531,o),
(233,484,c),
(233,558,l),
(62,558,l),
(62,0,l),
(233,0,l),
(233,303,ls),
(233,379,o),
(275,421,o),
(340,421,cs),
(405,421,o),
(447,379,o),
(447,303,cs)
);
}
);
width = 674;
}
);
note = uni0146;
unicode = 326;
},
{
glyphname = Ncaron;
layers = (
{
layerId = m01;
shapes = (
{
closed = 1;
nodes = (
(519,702,l),
(519,267,l),
(233,702,l),
(62,702,l),
(62,0,l),
(233,0,l),
(233,433,l),
(519,0,l),
(690,0,l),
(690,702,l)
);
},
{
closed = 1;
nodes = (
(376,852,l),
(221,939,l),
(221,821,l),
(376,742,l),
(531,821,l),
(531,939,l)
);
}
);
width = 752;
}
);
note = Ncaron;
unicode = 327;
},
{
glyphname = ncaron;
layers = (
{
layerId = m01;
shapes = (
{
closed = 1;
nodes = (
(447,0,l),
(617,0,l),
(617,326,ls),
(617,476,o),
(531,564,o),
(402,564,cs),
(327,564,o),
(267,531,o),
(233,484,c),
(233,558,l),
(62,558,l),
(62,0,l),
(233,0,l),
(233,303,ls),
(233,379,o),
(275,421,o),
(340,421,cs),
(405,421,o),
(447,379,o),
(447,303,cs)
);
},
{
closed = 1;
nodes = (
(361,706,l),
(206,793,l),
(206,675,l),
(361,596,l),
(516,675,l),
(516,793,l)
);
}
);
width = 674;
}
);
note = ncaron;
unicode = 328;
},
{
glyphname = Omacron;
layers = (
{
layerId = m01;
shapes = (
{
closed = 1;
nodes = (
(753,564,o),
(594,712,o),
(394,712,cs),
(195,712,o),
(33,564,o),
(33,353,cs),
(33,142,o),
(195,-7,o),
(394,-7,cs),
(593,-7,o),
(753,142,o),
(753,353,cs)
);
},
{
closed = 1;
nodes = (
(208,478,o),
(280,557,o),
(394,557,cs),
(506,557,o),
(579,478,o),
(579,353,cs),
(579,230,o),
(506,149,o),
(394,149,cs),
(280,149,o),
(208,230,o),
(208,353,cs)
);
},
{
closed = 1;
nodes = (
(194,774,l),
(594,774,l),
(594,892,l),
(194,892,l)
);
}
);
width = 786;
}
);
note = Omacron;
unicode = 332;
},
{
glyphname = omacron;
layers = (
{
layerId = m01;
shapes = (
{
closed = 1;
nodes = (
(608,456,o),
(482,566,o),
(318,566,cs),
(155,566,o),
(28,456,o),
(28,279,cs),
(28,102,o),
(152,-8,o),
(316,-8,cs),
(480,-8,o),
(608,102,o),
(608,279,cs)
);
},
{
closed = 1;
nodes = (
(202,374,o),
(256,418,o),
(318,418,cs),
(378,418,o),
(434,374,o),
(434,279,cs),
(434,185,o),
(377,140,o),
(316,140,cs),
(254,140,o),
(202,185,o),
(202,279,cs)
);
},
{
closed = 1;
nodes = (
(132,632,l),
(532,632,l),
(532,750,l),
(132,750,l)
);
}
);
width = 637;
}
);
note = omacron;
unicode = 333;
},
{
glyphname = uni014E;
layers = (
{
layerId = m01;
shapes = (
{
closed = 1;
nodes = (
(753,564,o),
(594,712,o),
(394,712,cs),
(195,712,o),
(33,564,o),
(33,353,cs),
(33,142,o),
(195,-7,o),
(394,-7,cs),
(593,-7,o),
(753,142,o),
(753,353,cs)
);
},
{
closed = 1;
nodes = (
(208,478,o),
(280,557,o),
(394,557,cs),
(506,557,o),
(579,478,o),
(579,353,cs),
(579,230,o),
(506,149,o),
(394,149,cs),
(280,149,o),
(208,230,o),
(208,353,cs)
);
},
{
closed = 1;
nodes = (
(565,937,l),
(479,937,l),
(479,895,o),
(459,870,o),
(394,870,cs),
(329,870,o),
(309,895,o),
(309,937,c),
(224,937,l),
(224,918,ls),
(224,806,o),
(294,745,o),
(394,745,cs),
(494,745,o),
(565,805,o),
(565,917,cs)
);
}
);
width = 786;
}
);
note = uni014E;
unicode = 334;
},
{
glyphname = uni014F;
layers = (
{
layerId = m01;
shapes = (
{
closed = 1;
nodes = (
(608,456,o),
(482,566,o),
(318,566,cs),
(155,566,o),
(28,456,o),
(28,279,cs),
(28,102,o),
(152,-8,o),
(316,-8,cs),
(480,-8,o),
(608,102,o),
(608,279,cs)
);
},
{
closed = 1;
nodes = (
(202,374,o),
(256,418,o),
(318,418,cs),
(378,418,o),
(434,374,o),
(434,279,cs),
(434,185,o),
(377,140,o),
(316,140,cs),
(254,140,o),
(202,185,o),
(202,279,cs)
);
},
{
closed = 1;
nodes = (
(503,795,l),
(417,795,l),
(417,753,o),
(397,728,o),
(332,728,cs),
(267,728,o),
(247,753,o),
(247,795,c),
(162,795,l),
(162,776,ls),
(162,664,o),
(232,603,o),
(332,603,cs),
(432,603,o),
(503,663,o),
(503,775,cs)
);
}
);
width = 637;
}
);
note = uni014F;
unicode = 335;
},
{
glyphname = Ohungarumlaut;
layers = (
{
layerId = m01;
shapes = (
{
closed = 1;
nodes = (
(753,564,o),
(594,712,o),
(394,712,cs),
(195,712,o),
(33,564,o),
(33,353,cs),
(33,142,o),
(195,-7,o),
(394,-7,cs),
(593,-7,o),
(753,142,o),
(753,353,cs)
);
},
{
closed = 1;
nodes = (
(208,478,o),
(280,557,o),
(394,557,cs),
(506,557,o),
(579,478,o),
(579,353,cs),
(579,230,o),
(506,149,o),
(394,149,cs),
(280,149,o),
(208,230,o),
(208,353,cs)
);
},
{
closed = 1;
nodes = (
(307,956,l),
(232,747,l),
(337,747,l),
(442,956,l)
);
},
{
closed = 1;
nodes = (
(515,956,l),
(425,747,l),
(530,747,l),
(651,956,l)
);
}
);
width = 786;
}
);
note = Ohungarumlaut;
unicode = 336;
},
{
glyphname = ohungarumlaut;
layers = (
{
layerId = m01;
shapes = (
{
closed = 1;
nodes = (
(608,456,o),
(482,566,o),
(318,566,cs),
(155,566,o),
(28,456,o),
(28,279,cs),
(28,102,o),
(152,-8,o),
(316,-8,cs),
(480,-8,o),
(608,102,o),
(608,279,cs)
);
},
{
closed = 1;
nodes = (
(202,374,o),
(256,418,o),
(318,418,cs),
(378,418,o),
(434,374,o),
(434,279,cs),
(434,185,o),
(377,140,o),
(316,140,cs),
(254,140,o),
(202,185,o),
(202,279,cs)
);
},
{
closed = 1;
nodes = (
(245,814,l),
(170,605,l),
(275,605,l),
(380,814,l)
);
},
{
closed = 1;
nodes = (
(453,814,l),
(363,605,l),
(468,605,l),
(589,814,l)
);
}
);
width = 637;
}
);
note = ohungarumlaut;
unicode = 337;
},
{
glyphname = OE;
layers = (
{
layerId = m01;
shapes = (
{
closed = 1;
nodes = (
(1015,567,l),
(1015,702,l),
(584,702,l),
(584,632,l),
(533,686,o),
(461,712,o),
(380,712,cs),
(186,712,o),
(33,564,o),
(33,352,cs),
(33,139,o),
(185,-10,o),
(380,-10,cs),
(461,-8,o),
(533,17,o),
(584,72,c),
(584,0,l),
(1015,0,l),
(1015,135,l),
(755,135,l),
(755,291,l),
(985,291,l),
(985,421,l),
(755,421,l),
(755,567,l)
);
},
{
closed = 1;
nodes = (
(506,555,o),
(579,476,o),
(579,352,cs),
(579,228,o),
(506,147,o),
(394,147,cs),
(280,147,o),
(208,228,o),
(208,352,cs),
(208,476,o),
(280,555,o),
(394,555,cs)
);
}
);
width = 1063;
}
);
note = OE;
unicode = 338;
},
